<svg xmlns="http://www.w3.org/2000/svg" xmlns:xlink="http://www.w3.org/1999/xlink" viewBox="0 0 500 500"><defs><style>.cls-1{fill:none;}.cls-2{isolation:isolate;}.cls-3{clip-path:url(#clip-path);}.cls-10,.cls-4{fill:#f1f1f1;}.cls-5{fill:#e5e5e4;}.cls-6{fill:#1b1b1b;}.cls-7{fill:#b3b2b2;opacity:0.5;}.cls-12,.cls-7{mix-blend-mode:multiply;}.cls-8{fill:#4e4d4d;}.cls-9{fill:#a0d6ed;}.cls-10{opacity:0.3;}.cls-11{fill:#c0292e;}.cls-13{fill:#a57d52;}.cls-14{fill:#8ec044;}.cls-15{fill:#c59b6d;}</style><clipPath id="clip-path"><polygon class="cls-1" points="60.82 229.84 250.48 44.32 440.13 229.84 440.13 482.22 60.82 482.22 60.82 229.84"/></clipPath></defs><title>Artboard 1</title><g class="cls-2"><g id="Layer_1" data-name="Layer 1"><g class="cls-3"><rect class="cls-4" x="60.44" y="465.51" width="380.07" height="16.72"/><rect class="cls-5" x="60.44" y="461.06" width="380.07" height="4.45"/><rect class="cls-4" x="60.44" y="444.34" width="380.07" height="16.72"/><rect class="cls-5" x="60.44" y="439.89" width="380.07" height="4.45"/><rect class="cls-4" x="60.44" y="423.17" width="380.07" height="16.72"/><rect class="cls-5" x="60.44" y="418.72" width="380.07" height="4.45"/><rect class="cls-4" x="60.44" y="402.01" width="380.07" height="16.72"/><rect class="cls-5" x="60.44" y="397.56" width="380.07" height="4.45"/><rect class="cls-4" x="60.44" y="380.84" width="380.07" height="16.72"/><rect class="cls-5" x="60.44" y="376.39" width="380.07" height="4.45"/><rect class="cls-4" x="60.44" y="359.68" width="380.07" height="16.72"/><rect class="cls-5" x="60.44" y="355.22" width="380.07" height="4.45"/><rect class="cls-4" x="60.44" y="338.51" width="380.07" height="16.72"/><rect class="cls-5" x="60.44" y="334.06" width="380.07" height="4.45"/><rect class="cls-4" x="60.44" y="317.34" width="380.07" height="16.72"/><rect class="cls-5" x="60.44" y="312.89" width="380.07" height="4.45"/><rect class="cls-4" x="60.44" y="296.18" width="380.07" height="16.72"/><rect class="cls-5" x="60.44" y="291.72" width="380.07" height="4.45"/><rect class="cls-4" x="60.44" y="275.01" width="380.07" height="16.72"/><rect class="cls-5" x="60.44" y="270.56" width="380.07" height="4.45"/><rect class="cls-4" x="60.44" y="253.84" width="380.07" height="16.72"/><rect class="cls-5" x="60.44" y="249.39" width="380.07" height="4.45"/><rect class="cls-4" x="60.44" y="232.68" width="380.07" height="16.72"/><rect class="cls-5" x="60.44" y="228.23" width="380.07" height="4.45"/><rect class="cls-4" x="60.44" y="211.51" width="380.07" height="16.72"/><rect class="cls-5" x="60.44" y="207.06" width="380.07" height="4.45"/><rect class="cls-4" x="60.44" y="190.34" width="380.07" height="16.72"/><rect class="cls-5" x="60.44" y="185.89" width="380.07" height="4.45"/><rect class="cls-4" x="60.44" y="169.18" width="380.07" height="16.72"/><rect class="cls-5" x="60.44" y="164.73" width="380.07" height="4.45"/><rect class="cls-4" x="60.44" y="148.01" width="380.07" height="16.72"/><rect class="cls-5" x="60.44" y="143.56" width="380.07" height="4.45"/><rect class="cls-4" x="60.44" y="126.84" width="380.07" height="16.72"/><rect class="cls-5" x="60.44" y="122.39" width="380.07" height="4.45"/><rect class="cls-4" x="60.44" y="105.68" width="380.07" height="16.72"/><rect class="cls-5" x="60.44" y="101.23" width="380.07" height="4.45"/><rect class="cls-4" x="60.44" y="84.51" width="380.07" height="16.72"/><rect class="cls-5" x="60.44" y="80.06" width="380.07" height="4.45"/><rect class="cls-4" x="60.44" y="63.34" width="380.07" height="16.72"/><rect class="cls-5" x="60.44" y="58.89" width="380.07" height="4.45"/><rect class="cls-4" x="60.44" y="42.18" width="380.07" height="16.72"/><rect class="cls-5" x="60.44" y="37.73" width="380.07" height="4.45"/></g><rect class="cls-6" x="351.74" y="75.11" width="38.82" height="68.26"/><polygon class="cls-7" points="60.82 251.4 60.82 229.84 250.48 44.32 440.13 229.84 440.13 251.4 250.48 65.35 60.82 251.4"/><path class="cls-8" d="M51.05,500v-9.57c0-4.53,4-8.21,9-8.21H440.88c5,0,9,3.67,9,8.21V500Z"/><rect class="cls-6" x="51.05" y="496.45" width="398.85" height="3.55"/><rect class="cls-9" x="325.54" y="310.86" width="67.96" height="93.19"/><path class="cls-8" d="M316.53,301.85V413.06h86V301.85Zm9,9h68v93.19h-68Z"/><polygon class="cls-10" points="325.54 313.21 393.5 365.46 393.5 380.54 325.54 328.29 325.54 313.21"/><polygon class="cls-10" points="325.54 336.72 393.5 388.97 393.5 404.05 325.54 351.8 325.54 336.72"/><rect class="cls-9" x="248.57" y="310.86" width="67.96" height="93.19"/><path class="cls-8" d="M239.56,301.85V413.06h86V301.85Zm9,9h68v93.19h-68Z"/><polygon class="cls-10" points="248.57 313.21 316.53 365.46 316.53 380.54 248.57 328.29 248.57 313.21"/><polygon class="cls-10" points="248.57 336.72 316.53 388.97 316.53 404.05 248.57 351.8 248.57 336.72"/><rect class="cls-11" x="131.05" y="280.92" width="79.62" height="201.3"/><polygon class="cls-8" points="215.17 276.42 215.17 486.73 206.15 486.73 206.15 477.72 206.16 477.72 206.16 285.43 135.55 285.43 135.55 477.72 135.6 477.72 135.6 486.73 126.54 486.73 126.54 276.42 215.17 276.42"/><rect class="cls-6" x="120.16" y="482.22" width="101.4" height="17.78"/><g class="cls-12"><path class="cls-11" d="M144.19,364.36l26.67-.26,26.67-.16-.42.42L197,347.55l0-16.81-.06-33.61.59.59-53.33-.1.49-.49-.18,33.61Zm0,0-.31-33.61-.18-33.61v-.49h.5l53.33-.1h.59v.59l-.06,33.61,0,16.81-.09,16.81v.42h-.42l-26.67-.16Z"/></g><g class="cls-12"><path class="cls-11" d="M144.19,465.51l26.67-.26,26.67-.16-.42.42L197,448.7l0-16.8-.06-33.61.59.59-53.33-.1.49-.49-.18,33.61Zm0,0-.31-33.61-.18-33.61v-.49h.5l53.33-.1h.59v.59l-.06,33.61,0,16.8-.09,16.8v.42h-.42l-26.67-.16Z"/></g><circle class="cls-6" cx="146.07" cy="384.64" r="4.45"/><polygon class="cls-8" points="250.48 0 484.08 233.6 440.74 233.6 250.48 48.82 60.21 233.6 16.88 233.6 250.48 0"/><rect class="cls-8" x="341.73" y="49.57" width="58.83" height="33.05" rx="9.01" ry="9.01"/><circle class="cls-9" cx="250.48" cy="188.11" r="54.01"/><rect class="cls-8" x="245.97" y="134.1" width="9.01" height="108.02"/><rect class="cls-8" x="196.46" y="183.6" width="108.02" height="9.01"/><path class="cls-6" d="M250.48,246.62A58.52,58.52,0,1,1,309,188.1,58.58,58.58,0,0,1,250.48,246.62Zm0-108A49.5,49.5,0,1,0,300,188.1,49.56,49.56,0,0,0,250.48,138.6Z"/><rect class="cls-6" x="231.79" y="383.51" width="179.4" height="29.55"/><polygon class="cls-13" points="121.16 482.22 87.6 482.22 78.59 465.26 130.18 465.26 121.16 482.22"/><path class="cls-14" d="M123.8,446.38a8.41,8.41,0,0,0,.06-1c0-4.52-3.57-8.3-8.36-9.25a7.55,7.55,0,0,0-5.83-2.63,7.23,7.23,0,0,0-6.77,4.19,12.56,12.56,0,0,0-9.54-4.19c-6.63,0-12,4.76-12,10.64a9.54,9.54,0,0,0,.82,3.84,6.75,6.75,0,0,0-4.12,6,6.16,6.16,0,0,0,.8,3h50.38a6.17,6.17,0,0,0,1.44-3.91C130.69,449.54,127.66,446.7,123.8,446.38Z"/><rect class="cls-15" x="74.9" y="456.75" width="58.96" height="10.22"/><polygon class="cls-13" points="254.49 482.22 220.93 482.22 211.91 465.26 263.5 465.26 254.49 482.22"/><path class="cls-14" d="M257.13,446.38a8.42,8.42,0,0,0,.06-1c0-4.52-3.58-8.3-8.36-9.25a7.54,7.54,0,0,0-5.82-2.63,7.23,7.23,0,0,0-6.77,4.19,12.56,12.56,0,0,0-9.54-4.19c-6.63,0-12,4.76-12,10.64a9.54,9.54,0,0,0,.82,3.84,6.75,6.75,0,0,0-4.12,6,6.19,6.19,0,0,0,.8,3h50.39A6.17,6.17,0,0,0,264,453C264,449.54,261,446.7,257.13,446.38Z"/><rect class="cls-15" x="208.23" y="456.75" width="58.96" height="10.22"/></g></g></svg>