<svg xmlns="http://www.w3.org/2000/svg" xmlns:xlink="http://www.w3.org/1999/xlink" viewBox="0 0 268.62 197.65"><defs><style>.cls-1{fill:none;}.cls-2{isolation:isolate;}.cls-3{fill:#42210b;}.cls-4{fill:#8bc53f;}.cls-5{fill:#e5e5e5;}.cls-17,.cls-6{fill:#f1f1f1;}.cls-7{fill:#cbcbcb;}.cls-8{clip-path:url(#clip-path);}.cls-9{fill:#f1d085;}.cls-10{fill:#d1b062;}.cls-11{fill:#1a1a1a;}.cls-12{fill:#b2b2b2;opacity:0.5;}.cls-12,.cls-15{mix-blend-mode:multiply;}.cls-13{fill:#4d4d4d;}.cls-14{fill:#c0272d;}.cls-16{fill:#9fd6ed;}.cls-17{opacity:0.3;}.cls-18{fill:#a57c52;}.cls-19{fill:#c59b6d;}</style><clipPath id="clip-path"><polygon class="cls-1" points="209.28 90.86 134.31 17.52 59.34 90.86 59.34 190.62 209.28 190.62 209.28 90.86"/></clipPath></defs><title>Asset 2</title><g class="cls-2"><g id="Layer_2" data-name="Layer 2"><g id="Objects"><polygon class="cls-3" points="236.4 35.02 244.71 196.94 228.09 196.94 236.4 35.02"/><circle class="cls-4" cx="245.93" cy="99.26" r="10.95"/><circle class="cls-4" cx="212.84" cy="93.5" r="15.45"/><circle class="cls-4" cx="227.4" cy="105.34" r="16.88"/><circle class="cls-4" cx="243.36" cy="71.6" r="19.5"/><circle class="cls-4" cx="196.54" cy="82.02" r="13.99"/><circle class="cls-4" cx="243.36" cy="141.3" r="13.99"/><circle class="cls-4" cx="236.53" cy="151.6" r="7.89"/><circle class="cls-4" cx="254.97" cy="153.8" r="7.89"/><circle class="cls-4" cx="257.35" cy="138.64" r="7.89"/><circle class="cls-4" cx="228.64" cy="138.64" r="7.89"/><circle class="cls-4" cx="210.2" cy="79.83" r="13.66"/><circle class="cls-4" cx="212.68" cy="64.76" r="18.56"/><circle class="cls-4" cx="219.86" cy="47.39" r="12.37"/><circle class="cls-4" cx="216" cy="44.12" r="15.64"/><circle class="cls-4" cx="218.66" cy="25.07" r="8.46"/><circle class="cls-4" cx="234.31" cy="45.31" r="14.45"/><circle class="cls-4" cx="234.98" cy="25.1" r="13.83"/><circle class="cls-4" cx="229.56" cy="56.42" r="15.17"/><circle class="cls-4" cx="229.58" cy="80.2" r="19.06"/><path class="cls-4" d="M72.12,86.37A13.82,13.82,0,1,0,50.76,69.2,8.45,8.45,0,0,0,38.87,80.49a15.62,15.62,0,0,0-9.78,20.76,18.43,18.43,0,0,0-7,18.23,14,14,0,0,0-1.64,27.29c0,.39-.06.78-.06,1.18A19.41,19.41,0,0,0,25,160.63c0,.41-.06.81-.06,1.23a15.4,15.4,0,0,0,19.12,15,10.94,10.94,0,1,0,20.81-6.6,16.82,16.82,0,0,0,3.71-23.57,19,19,0,0,0,.67-29.91,15.08,15.08,0,0,0,3-9.07c0-.36,0-.71-.05-1.06a14.44,14.44,0,0,0-.15-20.27Z"/><polygon class="cls-5" points="212.75 197.65 212.75 150.6 217.18 144.66 221.61 150.6 221.61 197.65 212.75 197.65"/><polygon class="cls-5" points="230.51 197.65 230.51 150.6 234.95 144.66 239.38 150.6 239.38 197.65 230.51 197.65"/><polygon class="cls-5" points="248.28 197.65 248.28 150.6 252.72 144.66 257.15 150.6 257.15 197.65 248.28 197.65"/><rect class="cls-6" x="201.27" y="159.54" width="67.35" height="8.87"/><rect class="cls-7" x="201.27" y="168.4" width="67.35" height="1.28"/><rect class="cls-6" x="201.27" y="180.14" width="67.35" height="8.87"/><rect class="cls-7" x="201.27" y="189.01" width="67.35" height="1.28"/><polygon class="cls-5" points="11.47 197.65 11.47 150.6 15.91 144.66 20.34 150.6 20.34 197.65 11.47 197.65"/><polygon class="cls-5" points="29.24 197.65 29.24 150.6 33.68 144.66 38.11 150.6 38.11 197.65 29.24 197.65"/><polygon class="cls-5" points="47.01 197.65 47.01 150.6 51.45 144.66 55.88 150.6 55.88 197.65 47.01 197.65"/><rect class="cls-6" y="159.54" width="67.35" height="8.87"/><rect class="cls-7" y="168.4" width="67.35" height="1.28"/><rect class="cls-6" y="180.14" width="67.35" height="8.87"/><rect class="cls-7" y="189.01" width="67.35" height="1.28"/><g class="cls-8"><rect class="cls-9" x="59.19" y="184.01" width="150.24" height="6.61"/><rect class="cls-10" x="59.19" y="182.25" width="150.24" height="1.76"/><rect class="cls-9" x="59.19" y="175.64" width="150.24" height="6.61"/><rect class="cls-10" x="59.19" y="173.88" width="150.24" height="1.76"/><rect class="cls-9" x="59.19" y="167.28" width="150.24" height="6.61"/><rect class="cls-10" x="59.19" y="165.52" width="150.24" height="1.76"/><rect class="cls-9" x="59.19" y="158.91" width="150.24" height="6.61"/><rect class="cls-10" x="59.19" y="157.15" width="150.24" height="1.76"/><rect class="cls-9" x="59.19" y="150.54" width="150.24" height="6.61"/><rect class="cls-10" x="59.19" y="148.78" width="150.24" height="1.76"/><rect class="cls-9" x="59.19" y="142.18" width="150.24" height="6.61"/><rect class="cls-10" x="59.19" y="140.42" width="150.24" height="1.76"/><rect class="cls-9" x="59.19" y="133.81" width="150.24" height="6.61"/><rect class="cls-10" x="59.19" y="132.05" width="150.24" height="1.76"/><rect class="cls-9" x="59.19" y="125.44" width="150.24" height="6.61"/><rect class="cls-10" x="59.19" y="123.68" width="150.24" height="1.76"/><rect class="cls-9" x="59.19" y="117.08" width="150.24" height="6.61"/><rect class="cls-10" x="59.19" y="115.32" width="150.24" height="1.76"/><rect class="cls-9" x="59.19" y="108.71" width="150.24" height="6.61"/><rect class="cls-10" x="59.19" y="106.95" width="150.24" height="1.76"/><rect class="cls-9" x="59.19" y="100.34" width="150.24" height="6.61"/><rect class="cls-10" x="59.19" y="98.58" width="150.24" height="1.76"/><rect class="cls-9" x="59.19" y="91.97" width="150.24" height="6.61"/><rect class="cls-10" x="59.19" y="90.21" width="150.24" height="1.76"/><rect class="cls-9" x="59.19" y="83.61" width="150.24" height="6.61"/><rect class="cls-10" x="59.19" y="81.85" width="150.24" height="1.76"/><rect class="cls-9" x="59.19" y="75.24" width="150.24" height="6.61"/><rect class="cls-10" x="59.19" y="73.48" width="150.24" height="1.76"/><rect class="cls-9" x="59.19" y="66.87" width="150.24" height="6.61"/><rect class="cls-10" x="59.19" y="65.11" width="150.24" height="1.76"/><rect class="cls-9" x="59.19" y="58.51" width="150.24" height="6.61"/><rect class="cls-10" x="59.19" y="56.75" width="150.24" height="1.76"/><rect class="cls-9" x="59.19" y="50.14" width="150.24" height="6.61"/><rect class="cls-10" x="59.19" y="48.38" width="150.24" height="1.76"/><rect class="cls-9" x="59.19" y="41.77" width="150.24" height="6.61"/><rect class="cls-10" x="59.19" y="40.01" width="150.24" height="1.76"/><rect class="cls-9" x="59.19" y="33.41" width="150.24" height="6.61"/><rect class="cls-10" x="59.19" y="31.65" width="150.24" height="1.76"/><rect class="cls-9" x="59.19" y="25.04" width="150.24" height="6.61"/><rect class="cls-10" x="59.19" y="23.28" width="150.24" height="1.76"/><rect class="cls-9" x="59.19" y="16.67" width="150.24" height="6.61"/><rect class="cls-10" x="59.19" y="14.91" width="150.24" height="1.76"/></g><rect class="cls-11" x="78.94" y="29.69" width="15.34" height="26.98"/><polygon class="cls-12" points="209.28 99.37 209.28 90.86 134.31 17.52 59.34 90.86 59.34 99.37 134.31 25.83 209.28 99.37"/><path class="cls-13" d="M213.14,197.65v-3.78a3.41,3.41,0,0,0-3.56-3.24H59a3.41,3.41,0,0,0-3.56,3.24v3.78Z"/><rect class="cls-11" x="55.48" y="196.24" width="157.66" height="1.4"/><rect class="cls-14" x="118.65" y="111.05" width="31.47" height="79.57"/><polygon class="cls-13" points="116.87 109.26 116.87 192.4 120.43 192.4 120.43 188.84 120.43 188.84 120.43 112.83 148.34 112.83 148.34 188.84 148.32 188.84 148.32 192.4 151.91 192.4 151.91 109.26 116.87 109.26"/><rect class="cls-11" x="114.35" y="190.62" width="40.08" height="7.03"/><g class="cls-15"><path class="cls-14" d="M144.93,144c-3.51.12-7,.17-10.54.26s-7,.1-10.54.16h-.41V144l-.09-6.64,0-6.64-.06-13.29v-.6h.6l21.08.1h.5v.49l-.18,13.29-.14,6.64Zm0,0-.17-6.64-.14-6.64-.18-13.29.49.49-21.08.1.59-.59-.06,13.29,0,6.64-.09,6.64-.42-.42c3.51.05,7,.08,10.54.16S141.41,143.91,144.93,144Z"/></g><g class="cls-15"><path class="cls-14" d="M144.93,184c-3.51.12-7,.17-10.54.26s-7,.1-10.54.16h-.41V184l-.09-6.64,0-6.64-.06-13.29v-.6h.6l21.08.1h.5v.49l-.18,13.29-.14,6.64Zm0,0-.17-6.64-.14-6.64-.18-13.29.49.49-21.08.1.59-.59-.06,13.29,0,6.64-.09,6.64-.42-.42c3.51.05,7,.08,10.54.16S141.41,183.89,144.93,184Z"/></g><circle class="cls-11" cx="144.19" cy="152.05" r="1.76"/><polygon class="cls-14" points="134.31 0 41.97 92.34 59.1 92.34 134.31 19.3 209.52 92.34 226.65 92.34 134.31 0"/><rect class="cls-14" x="74.98" y="19.6" width="23.26" height="13.06" rx="3.56" ry="3.56"/><circle class="cls-16" cx="134.31" cy="74.36" r="21.35"/><rect class="cls-13" x="132.53" y="53.01" width="3.56" height="42.7"/><rect class="cls-13" x="112.96" y="72.57" width="42.7" height="3.56"/><path class="cls-11" d="M111.18,74.36a23.13,23.13,0,1,1,23.13,23.13A23.16,23.16,0,0,1,111.18,74.36Zm3.56,0a19.57,19.57,0,1,0,19.57-19.57A19.59,19.59,0,0,0,114.74,74.36Z"/><rect class="cls-16" x="75.43" y="122.88" width="26.86" height="36.83"/><path class="cls-13" d="M71.87,119.32v44h34v-44Zm30.43,40.4H75.43V122.88h26.86Z"/><polygon class="cls-17" points="102.29 123.81 75.43 144.46 75.43 150.42 102.29 129.77 102.29 123.81"/><polygon class="cls-17" points="102.29 133.1 75.43 153.76 75.43 159.72 102.29 139.06 102.29 133.1"/><rect class="cls-11" x="68.66" y="151.6" width="40.4" height="11.68"/><rect class="cls-16" x="166.33" y="122.88" width="26.86" height="36.83"/><path class="cls-13" d="M162.77,119.32v44h34v-44Zm30.43,40.4H166.33V122.88h26.86Z"/><polygon class="cls-17" points="193.19 123.81 166.33 144.46 166.33 150.42 193.19 129.77 193.19 123.81"/><polygon class="cls-17" points="193.19 133.1 166.33 153.76 166.33 159.72 193.19 139.06 193.19 133.1"/><rect class="cls-11" x="159.56" y="151.6" width="40.4" height="11.68"/><polygon class="cls-18" points="154.03 190.62 167.3 190.62 170.86 183.91 150.47 183.91 154.03 190.62"/><path class="cls-4" d="M153,176.45a3.31,3.31,0,0,1,0-.39,3.88,3.88,0,0,1,3.3-3.66,3,3,0,0,1,2.3-1,2.86,2.86,0,0,1,2.68,1.66,5,5,0,0,1,3.77-1.66,4.5,4.5,0,0,1,4.75,4.21,3.77,3.77,0,0,1-.33,1.52,2.67,2.67,0,0,1,1.63,2.38,2.43,2.43,0,0,1-.32,1.17H150.83a2.44,2.44,0,0,1-.57-1.54A2.8,2.8,0,0,1,153,176.45Z"/><rect class="cls-19" x="149.01" y="180.55" width="23.31" height="4.04"/><polygon class="cls-18" points="101.33 190.62 114.59 190.62 118.16 183.91 97.77 183.91 101.33 190.62"/><path class="cls-4" d="M100.28,176.45a3.4,3.4,0,0,1,0-.39,3.88,3.88,0,0,1,3.3-3.66,3,3,0,0,1,2.3-1,2.86,2.86,0,0,1,2.68,1.66,5,5,0,0,1,3.77-1.66,4.5,4.5,0,0,1,4.75,4.21,3.78,3.78,0,0,1-.32,1.52,2.67,2.67,0,0,1,1.63,2.38,2.44,2.44,0,0,1-.32,1.17H98.13a2.44,2.44,0,0,1-.57-1.54A2.8,2.8,0,0,1,100.28,176.45Z"/><rect class="cls-19" x="96.31" y="180.55" width="23.31" height="4.04"/></g></g></g></svg>