<svg id="Layer_1" data-name="Layer 1" xmlns="http://www.w3.org/2000/svg" viewBox="0 0 500 500"><defs><style>.cls-1{fill:#5b3d1d;}.cls-2{fill:#b1cc37;}.cls-3{fill:#80b828;}</style></defs><title>Artboard 1</title><path class="cls-1" d="M228.31,124a58.17,58.17,0,0,0,26-52.18s1.8-12.28,5.08-17c0,0-3.68,17.7-1.85,27.77,0,0-1.84,35.7-28.51,48.3C229,130.91,224.87,126.45,228.31,124Z"/><path class="cls-1" d="M214.32,92.85a59.13,59.13,0,0,1-44.16-38.59s-6.4-10.7-11.26-13.86c0,0,10.22,15,12.4,25,0,0,14.32,28.93,43.86,30.64C215.17,96.05,218.44,93.79,214.32,92.85Z"/><path class="cls-1" d="M174.19,67.67a26.13,26.13,0,0,1-24.67-7.19s-4.53-3.06-7-3.42c0,0,6.85,4.06,9.59,7.61,0,0,11.08,8.81,23.05,4.11C175.12,68.78,176,67.3,174.19,67.67Z"/><path class="cls-1" d="M216.08,120.58a43.2,43.2,0,0,1-32.26-28.19s-4.67-7.81-8.22-10.13c0,0,7.46,11,9.06,18.27,0,0,10.46,21.13,32,22.38C216.69,122.92,219.08,121.27,216.08,120.58Z"/><path class="cls-1" d="M186.75,102.19a19.09,19.09,0,0,1-18-5.25s-3.31-2.23-5.15-2.5c0,0,5,3,7,5.56,0,0,8.1,6.43,16.84,3C187.44,103,188.07,101.92,186.75,102.19Z"/><path class="cls-1" d="M201.64,88.85a27.81,27.81,0,0,0-14.74-23.74s-4.58-3.87-5.68-6.39c0,0,6.32,6,10.93,7.87,0,0,12.64,9.09,11,22.93C203.1,89.51,201.75,90.84,201.64,88.85Z"/><path class="cls-1" d="M193,68.11a12,12,0,0,0-1.35-12,11.7,11.7,0,0,1-1-3.55,20.37,20.37,0,0,0,2.83,5.09s3.28,5.88,0,11C193.44,68.64,192.65,68.91,193,68.11Z"/><path class="cls-1" d="M323,92.43a27.6,27.6,0,0,0,4-27.54s-1-5.85-.24-8.49c0,0,1,8.59,3.33,12.91,0,0,3.85,14.93-6.4,24.54C323.68,93.86,321.77,94,323,92.43Z"/><path class="cls-1" d="M329.74,71a12.19,12.19,0,0,0,6.75-10.13,11.71,11.71,0,0,1,1.5-3.39,20.19,20.19,0,0,0-1.11,5.7s-1.28,6.59-7.13,8.52C329.74,71.71,329,71.43,329.74,71Z"/><path class="cls-1" d="M205.27,149.56a13.32,13.32,0,0,1-6.33-11.74,12.83,12.83,0,0,0-1.29-3.85s1,4,.63,6.33c0,0,.72,7.32,6.91,10C205.19,150.32,206.08,150.09,205.27,149.56Z"/><path class="cls-1" d="M218.94,149.5A26.14,26.14,0,0,1,194,143.1s-4.63-2.91-7.15-3.19c0,0,7,3.84,9.84,7.3,0,0,11.37,8.45,23.18,3.37C219.91,150.58,220.73,149.06,218.94,149.5Z"/><path class="cls-1" d="M182.76,283.24a13.57,13.57,0,0,1-11.84,6.4A13.34,13.34,0,0,0,167,291a23.19,23.19,0,0,1,6.43-.71s7.43-.81,10.07-6.94C183.53,283.31,183.29,282.44,182.76,283.24Z"/><path class="cls-1" d="M182.5,269.79a25.1,25.1,0,0,1-6.13,24.59s-2.89,4.6-3.14,7.08c0,0,3.8-6.92,7.27-9.79,0,0,8.41-11.31,3.08-22.86C183.58,268.82,182,268,182.5,269.79Z"/><path class="cls-1" d="M165.23,225.59A13.57,13.57,0,0,1,153.4,232a13.32,13.32,0,0,0-3.9,1.32,23.16,23.16,0,0,1,6.43-.71s7.43-.81,10.07-6.94C166,225.66,165.76,224.79,165.23,225.59Z"/><path class="cls-1" d="M165,212.14a25.1,25.1,0,0,1-6.13,24.59s-2.89,4.6-3.14,7.08c0,0,3.8-6.92,7.27-9.79,0,0,8.41-11.31,3.08-22.86C166,211.17,164.5,210.39,165,212.14Z"/><path class="cls-1" d="M115,146.17a13.3,13.3,0,0,1-5.9-12,12.83,12.83,0,0,0-1.15-3.9s.83,4,.4,6.35c0,0,.46,7.34,6.54,10.25C114.91,146.92,115.8,146.73,115,146.17Z"/><path class="cls-1" d="M128.67,146.58A26.13,26.13,0,0,1,104,139.33s-4.52-3.07-7-3.44c0,0,6.84,4.08,9.57,7.63,0,0,11.06,8.83,23,4.17C129.6,147.69,130.47,146.21,128.67,146.58Z"/><path class="cls-1" d="M190.48,125.62a13.57,13.57,0,0,1-10.86-7.9,13.06,13.06,0,0,0-2.85-2.93s2.64,3.21,3.35,5.44c0,0,3.87,6.3,10.63,6.09C190.74,126.33,191.44,125.75,190.48,125.62Z"/><path class="cls-1" d="M202.77,119.74a26.11,26.11,0,0,1-25.25,4.82s-5.45-.65-7.85.17c0,0,8,.49,12.08,2.4,0,0,14,2.78,22.38-6.82C204.12,120.3,204.19,118.59,202.77,119.74Z"/><path class="cls-1" d="M216.27,42.8a13.65,13.65,0,0,1,12.65-4.65,13.38,13.38,0,0,0,4.05-.76,23.21,23.21,0,0,1-6.46-.21s-7.47-.25-11,5.44C215.52,42.62,215.64,43.52,216.27,42.8Z"/><path class="cls-1" d="M214.57,56.14a25.18,25.18,0,0,1,9.67-23.46s3.53-4.14,4.14-6.57c0,0-4.77,6.31-8.63,8.65,0,0-10,10-6.39,22.18C213.36,57,214.78,57.94,214.57,56.14Z"/><path class="cls-1" d="M252.17,120.64a20.68,20.68,0,0,0,14,14.16s3.74,2,4.92,3.57c0,0-5.28-3.21-8.7-3.82,0,0-10.05-4.41-11.33-14.15C251.08,120.39,251.76,119.29,252.17,120.64Z"/><path class="cls-1" d="M337.24,227.92a10.53,10.53,0,0,0,.69,10.62,10.24,10.24,0,0,1,.77,3.16,17.85,17.85,0,0,0-2.27-4.58s-2.63-5.29.44-9.68C336.86,227.44,337.56,227.23,337.24,227.92Z"/><path class="cls-1" d="M321.46,208.09A25.45,25.45,0,0,0,338,227.48s4.66,2.87,6,5c0,0-6.51-4.56-10.92-5.62,0,0-12.62-6.49-13-19.17C320.06,207.69,321.1,206.31,321.46,208.09Z"/><path class="cls-1" d="M301.1,240.92a10.53,10.53,0,0,0,.69,10.62,10.25,10.25,0,0,1,.77,3.16,17.86,17.86,0,0,0-2.27-4.58s-2.63-5.29.44-9.68C300.72,240.44,301.42,240.23,301.1,240.92Z"/><path class="cls-1" d="M285.32,221.09a25.46,25.46,0,0,0,16.54,19.39s4.65,2.87,6,5c0,0-6.51-4.56-10.92-5.62,0,0-12.62-6.49-13-19.17C283.92,220.69,285,219.32,285.32,221.09Z"/><path class="cls-1" d="M299.37,285.57a10.53,10.53,0,0,0,.69,10.62,10.26,10.26,0,0,1,.77,3.16,17.87,17.87,0,0,0-2.27-4.58s-2.63-5.29.44-9.68C299,285.09,299.69,284.88,299.37,285.57Z"/><path class="cls-1" d="M283.59,265.74a25.46,25.46,0,0,0,16.53,19.4s4.65,2.87,6,5c0,0-6.51-4.56-10.92-5.62,0,0-12.62-6.49-13-19.17C282.19,265.34,283.23,264,283.59,265.74Z"/><path class="cls-1" d="M245.15,116.21a26.13,26.13,0,0,0,25.38,4.15s5.43-.8,7.85,0c0,0-8,.7-12,2.71,0,0-13.88,3.15-22.56-6.23C243.81,116.81,243.69,115.1,245.15,116.21Z"/><path class="cls-1" d="M210.73,255.11a25.82,25.82,0,0,0-22.08-13s-5.35-1.21-7.32-2.79c0,0,7.67,2.21,12.18,1.8,0,0,14.09,2.07,18.68,13.92C212.2,255,211.67,256.67,210.73,255.11Z"/><path class="cls-1" d="M148.92,268.82a25.82,25.82,0,0,0-22.08-13s-5.35-1.21-7.32-2.79c0,0,7.67,2.21,12.18,1.8,0,0,14.09,2.07,18.68,13.92C150.39,268.75,149.86,270.38,148.92,268.82Z"/><path class="cls-1" d="M293.14,113.86a25.07,25.07,0,0,0-1.79-25.26s-2-5-1.87-7.51c0,0,2.55,7.46,5.47,10.86,0,0,6.34,12.55-.91,23C294,115,292.38,115.51,293.14,113.86Z"/><path class="cls-1" d="M161.31,171.66a25.63,25.63,0,0,0,17.18-18.84s2.23-4.94,4.18-6.54c0,0-3.67,7-4.12,11.43,0,0-4.75,13.21-17.45,15.39C161.1,173.09,159.57,172.27,161.31,171.66Z"/><path class="cls-1" d="M256.14,82.93a22,22,0,0,0,18.09-12.14s2.86-3.64,4.8-4.57c0,0-4.47,5-5.76,8.62,0,0-6.65,10-17.6,9.23C255.68,84.07,254.58,83.09,256.14,82.93Z"/><path class="cls-1" d="M213.75,57A35,35,0,0,1,198.4,25.49s-1-7.39-3-10.26c0,0,2.11,10.66,1,16.71,0,0,1.09,19.32,17.06,27C213.46,59,215.8,58.46,213.75,57Z"/><path class="cls-1" d="M208.54,55.29a26.08,26.08,0,0,1-23.9-9.37s-4.23-3.45-6.7-4c0,0,6.44,4.66,8.85,8.44,0,0,10.22,9.76,22.58,6.16C209.36,56.48,210.36,55.08,208.54,55.29Z"/><path class="cls-1" d="M199.87,42.59a11.25,11.25,0,0,0,6.65-9A10.84,10.84,0,0,1,208,30.49a18.62,18.62,0,0,0-1.27,5.2s-1.46,6-6.93,7.54C199.84,43.22,199.14,42.93,199.87,42.59Z"/><path class="cls-1" d="M360.89,136.09a24.68,24.68,0,0,1,22.78,8.42s4.07,3.18,6.41,3.69c0,0-6.18-4.29-8.53-7.82,0,0-9.85-9-21.47-5.41C360.09,135,359.17,136.33,360.89,136.09Z"/><path class="cls-1" d="M364.3,134.5A17.8,17.8,0,0,1,380.63,128s3.76-.27,5.26-1.13c0,0-5.43.7-8.44,0,0,0-9.76-.06-14.14,7.49C363.31,134.3,363.49,135.46,364.3,134.5Z"/><path class="cls-1" d="M374.71,136.74a7.58,7.58,0,0,0,1.07,7.58,7.38,7.38,0,0,1,.72,2.23,12.88,12.88,0,0,0-1.88-3.16s-2.17-3.66-.21-7C374.41,136.42,374.9,136.23,374.71,136.74Z"/><path class="cls-1" d="M289.21,223.77A24.68,24.68,0,0,1,312,232.2s4.07,3.19,6.41,3.7c0,0-6.18-4.29-8.52-7.82,0,0-9.85-9-21.47-5.41C288.4,222.66,287.48,224,289.21,223.77Z"/><path class="cls-1" d="M292.61,222.18a17.8,17.8,0,0,1,16.34-6.52s3.76-.27,5.26-1.13c0,0-5.43.7-8.44,0,0,0-9.76-.06-14.14,7.49C291.62,222,291.81,223.14,292.61,222.18Z"/><path class="cls-1" d="M303,224.42a7.57,7.57,0,0,0,1.07,7.58,7.38,7.38,0,0,1,.72,2.23,12.9,12.9,0,0,0-1.88-3.16s-2.17-3.66-.21-7C302.72,224.1,303.21,223.91,303,224.42Z"/><path class="cls-1" d="M264.31,191.06a24.68,24.68,0,0,1,22.78,8.42s4.07,3.18,6.41,3.69c0,0-6.18-4.29-8.53-7.82,0,0-9.85-9-21.47-5.41C263.5,190,262.58,191.3,264.31,191.06Z"/><path class="cls-1" d="M267.71,189.48A17.8,17.8,0,0,1,284,183s3.76-.27,5.26-1.13c0,0-5.43.7-8.44,0,0,0-9.76-.06-14.14,7.49C266.73,189.28,266.91,190.44,267.71,189.48Z"/><path class="cls-1" d="M278.12,191.71a7.58,7.58,0,0,0,1.07,7.58,7.39,7.39,0,0,1,.72,2.23,12.85,12.85,0,0,0-1.88-3.16s-2.17-3.66-.21-7C277.82,191.39,278.31,191.2,278.12,191.71Z"/><path class="cls-1" d="M198.21,190.83a23.8,23.8,0,0,0-8.56-22.41s-3.24-4-3.76-6.31c0,0,4.36,6.08,7.95,8.39,0,0,9.19,9.69,5.5,21.13C199.33,191.62,198,192.53,198.21,190.83Z"/><path class="cls-1" d="M199.82,187.48a17.32,17.32,0,0,0,6.62-16.08s.27-3.7,1.15-5.18c0,0-.71,5.35,0,8.31,0,0,.06,9.61-7.61,13.91C200,188.45,198.85,188.27,199.82,187.48Z"/><path class="cls-1" d="M197.54,177.24a7.91,7.91,0,0,1-7.7-1,7.7,7.7,0,0,0-2.26-.71,13.22,13.22,0,0,1,3.22,1.85s3.71,2.14,7.08.2C197.88,177.53,198.07,177,197.54,177.24Z"/><path class="cls-1" d="M298.24,118.27A24.67,24.67,0,0,1,321,126.69s4.07,3.18,6.41,3.7c0,0-6.18-4.29-8.53-7.82,0,0-9.85-9-21.47-5.41C297.44,117.16,296.52,118.5,298.24,118.27Z"/><path class="cls-1" d="M301.64,116.68A17.8,17.8,0,0,1,318,110.16s3.76-.27,5.26-1.13c0,0-5.43.7-8.44,0,0,0-9.76-.06-14.14,7.49C300.66,116.48,300.84,117.64,301.64,116.68Z"/><path class="cls-1" d="M312.05,118.92a7.58,7.58,0,0,0,1.07,7.58,7.38,7.38,0,0,1,.72,2.22,12.89,12.89,0,0,0-1.88-3.16s-2.17-3.66-.21-7C311.76,118.59,312.25,118.41,312.05,118.92Z"/><path class="cls-1" d="M225.15,132.55A24.67,24.67,0,0,1,247.93,141s4.07,3.18,6.41,3.7c0,0-6.18-4.29-8.53-7.82,0,0-9.85-9-21.47-5.41C224.34,131.44,223.43,132.78,225.15,132.55Z"/><path class="cls-1" d="M228.55,131a17.8,17.8,0,0,1,16.34-6.52s3.75-.27,5.26-1.13c0,0-5.43.7-8.44,0,0,0-9.76-.06-14.14,7.49C227.57,130.76,227.75,131.92,228.55,131Z"/><path class="cls-1" d="M239,133.2a7.58,7.58,0,0,0,1.07,7.58,7.37,7.37,0,0,1,.72,2.22,12.88,12.88,0,0,0-1.88-3.16s-2.17-3.66-.21-7C238.67,132.87,239.16,132.69,239,133.2Z"/><path class="cls-1" d="M244.18,112.62a25.34,25.34,0,0,1-11.39-22.7s-.8-5.35-2.23-7.41c0,0,1.62,7.7.83,12.1,0,0,1,14,12.59,19.45C244,114.05,245.69,113.67,244.18,112.62Z"/><path class="cls-1" d="M234.49,100.81A11.24,11.24,0,0,0,241,91.69a10.83,10.83,0,0,1,1.49-3.08,18.58,18.58,0,0,0-1.21,5.21s-1.39,6-6.84,7.62C234.48,101.44,233.76,101.16,234.49,100.81Z"/><path class="cls-1" d="M217.26,75.4a29.85,29.85,0,0,0,13.35-26.78s.92-6.3,2.61-8.74c0,0-1.89,9.08-.95,14.25,0,0-.95,18.32-14.63,24.79C217.63,78.92,215.49,76.63,217.26,75.4Z"/><path class="cls-1" d="M229.54,58.88a13.3,13.3,0,0,1-11.08-7.07,12.81,12.81,0,0,0-3-2.69,21.94,21.94,0,0,1,3.59,5.12s4.15,5.92,10.74,5.32C229.84,59.56,230.48,59,229.54,58.88Z"/><path class="cls-1" d="M229.5,73.65a10.61,10.61,0,0,0,7.19,7.27,10.35,10.35,0,0,1,2.53,1.83,17.74,17.74,0,0,0-4.46-2s-5.16-2.26-5.82-7.26C228.94,73.53,229.29,73,229.5,73.65Z"/><path class="cls-1" d="M225.9,71.38a13.41,13.41,0,0,0,13,2.13,13.08,13.08,0,0,1,4,0,22.59,22.59,0,0,0-6.16,1.39s-7.12,1.61-11.58-3.2C225.21,71.69,225.15,70.81,225.9,71.38Z"/><path class="cls-1" d="M231.54,54.3a11.31,11.31,0,0,0,9.28-6.23,10.87,10.87,0,0,1,2.47-2.35,18.67,18.67,0,0,0-3,4.43s-3.41,5.12-9,4.74C231.3,54.89,230.74,54.38,231.54,54.3Z"/><path class="cls-1" d="M222.11,56.18a5.68,5.68,0,0,0,.45-5.71,5.52,5.52,0,0,1-.16-1.74,9.54,9.54,0,0,0,.86,2.61s1,3-1,5.13C222.28,56.46,221.89,56.52,222.11,56.18Z"/><path class="cls-1" d="M267.13,243.56s23,35.36,70.76,31.35c0,0,16.47,1.79,22.94,5.83,0,0-23.78-4-37.15-1.18,0,0-42.95-1.35-60.91-35.27C262.77,244.28,263.77,239.21,267.13,243.56Z"/><path class="cls-1" d="M303.7,272.42a25.31,25.31,0,0,1,13.5-21.55s4.18-3.51,5.19-5.8c0,0-5.77,5.44-10,7.12,0,0-11.53,8.23-10.05,20.83C302.37,273,303.6,274.23,303.7,272.42Z"/><path class="cls-1" d="M319.48,276.41a25.2,25.2,0,0,0,10.42,23.15s3.66,4,4.35,6.43c0,0-5-6.16-8.9-8.38,0,0-10.3-9.68-7.11-22C318.24,275.64,319.63,274.6,319.48,276.41Z"/><path class="cls-1" d="M340.3,279.65a11.11,11.11,0,0,0,4.47,10.26,10.89,10.89,0,0,1,1.89,2.86,19,19,0,0,0-3.88-3.74s-4.49-4.32-3-9.72C339.75,279.3,340.37,278.85,340.3,279.65Z"/><path class="cls-1" d="M304.92,264a11.49,11.49,0,0,0,10.41-4.43,11.09,11.09,0,0,1,2.9-1.86,19,19,0,0,0-3.79,3.83s-4.38,4.43-9.87,3C304.57,264.54,304.11,263.94,304.92,264Z"/><path class="cls-1" d="M201.43,262.64a25.08,25.08,0,0,1-4.24,25s-2.53,4.8-2.59,7.3c0,0,3.26-7.18,6.51-10.3,0,0,7.53-11.9,1.33-23C202.43,261.59,200.83,260.93,201.43,262.64Z"/><path class="cls-1" d="M222.12,242.06S190,278.45,136.34,266c0,0-19-.69-27.07,2.83,0,0,27.7-.59,42.42,4.8,0,0,49,5.58,75.26-30C227,243.61,226.69,237.68,222.12,242.06Z"/><path class="cls-1" d="M175.62,268.81A28.94,28.94,0,0,0,164,242.08s-4.15-4.68-4.91-7.45c0,0,5.63,7.14,10.11,9.75,0,0,11.7,11.26,7.87,25.33C177,269.71,175.43,270.88,175.62,268.81Z"/><path class="cls-1" d="M157,270.73a29.09,29.09,0,0,1-15.8,24.58s-4.85,4-6,6.59c0,0,6.71-6.18,11.55-8.05,0,0,13.36-9.3,11.83-23.79C158.55,270.06,157.15,268.66,157,270.73Z"/><path class="cls-1" d="M132.79,271A12.82,12.82,0,0,1,126,281.89a12.59,12.59,0,0,0-2.63,2.93,22,22,0,0,1,5.05-3.61s5.84-4.17,5.1-10.55C133.47,270.67,132.85,270.05,132.79,271Z"/><path class="cls-1" d="M175.68,259.05a13.14,13.14,0,0,1-11.07-6.76,12.64,12.64,0,0,0-3-2.6,21.69,21.69,0,0,1,3.65,5s4.22,5.76,10.7,5C176,259.72,176.61,259.11,175.68,259.05Z"/><path class="cls-1" d="M206.76,222.08a11.23,11.23,0,0,0-5.64,9.72,10.81,10.81,0,0,1-1.18,3.21,18.62,18.62,0,0,0,.69-5.32s.8-6.15,6.08-8.25C206.71,221.45,207.45,221.66,206.76,222.08Z"/><path class="cls-1" d="M224.37,234.16a33.44,33.44,0,0,0-30.91-11.66s-7.06-.37-9.91-1.93c0,0,10.22,1.13,15.85-.38,0,0,18.32-.45,26.81,13.57C226.21,233.75,225.91,235.94,224.37,234.16Z"/><path class="cls-1" d="M266,148s45-37.5,30.53-101.18c0,0-.55-22.53,3.86-32,0,0-1.14,32.78,5.23,50.28,0,0,3.4,69.58-34.51,101.11C271.11,166.22,260.57,153.34,266,148Z"/><path class="cls-1" d="M299.54,99.46a59.35,59.35,0,0,0,47.4-34.67s7.32-10.11,12.44-12.84c0,0-11.5,14.08-14.56,23.86,0,0-16.82,27.59-46.39,26.77C298.42,102.58,295.36,100,299.54,99.46Z"/><path class="cls-1" d="M304.25,75.72A51.33,51.33,0,0,1,272.06,36s-3.89-10.16-7.59-13.6c0,0,6.52,14.43,6.89,23.38,0,0,7.95,27,33.13,32.85C304.49,78.61,307.65,77.14,304.25,75.72Z"/><path class="cls-1" d="M283.83,67a26.13,26.13,0,0,1-24.77-6.82s-4.58-3-7.09-3.31c0,0,6.91,4,9.71,7.47,0,0,11.22,8.64,23.11,3.77C284.78,68.12,285.63,66.62,283.83,67Z"/><path class="cls-1" d="M299.82,39.63a26.11,26.11,0,0,0,24.38-8.07s4.42-3.22,6.91-3.67c0,0-6.69,4.3-9.3,7.95,0,0-10.75,9.2-22.89,4.93C298.93,40.78,298,39.32,299.82,39.63Z"/><path class="cls-1" d="M304.19,68.26A20.77,20.77,0,0,0,318,53.9s1.87-3.76,3.42-5c0,0-3,5.33-3.52,8.71,0,0-4.07,10.07-13.9,11.73C304,69.35,302.84,68.72,304.19,68.26Z"/><path class="cls-1" d="M314,99.34a21.12,21.12,0,0,0,19.47,4.87s4.25-.23,6.09.51c0,0-6.21,0-9.44,1.21,0,0-10.92,1.41-17.18-6.23C312.9,99.7,312.89,98.41,314,99.34Z"/><path class="cls-1" d="M292.9,128.1A21.12,21.12,0,0,0,312.37,133s4.25-.22,6.09.51c0,0-6.21,0-9.44,1.21,0,0-10.92,1.41-17.18-6.23C291.84,128.46,291.83,127.17,292.9,128.1Z"/><path class="cls-1" d="M273.9,44.78a20.77,20.77,0,0,0,13.8-14.36s1.87-3.76,3.42-5c0,0-3,5.33-3.53,8.71,0,0-4.07,10.07-13.9,11.73C273.7,45.87,272.55,45.25,273.9,44.78Z"/><path class="cls-1" d="M331.31,87.32a26.18,26.18,0,0,0,25.48-3.47s4.95-2.35,7.48-2.34c0,0-7.39,3-10.64,6.11,0,0-12.3,7.07-23.42.66C330.21,88.28,329.58,86.68,331.31,87.32Z"/><path class="cls-1" d="M299.41,27.55a11.29,11.29,0,0,0,7.35-8.5,10.84,10.84,0,0,1,1.76-2.93,18.66,18.66,0,0,0-1.68,5.08s-1.94,5.88-7.51,7C299.34,28.18,298.65,27.84,299.41,27.55Z"/><path class="cls-1" d="M269.77,34.53A11.11,11.11,0,0,0,273,23.84a10.74,10.74,0,0,1,.42-3.38,18.59,18.59,0,0,0,.54,5.32s.63,6.15-4,9.36C270,35.14,269.19,35.09,269.77,34.53Z"/><path class="cls-1" d="M315.78,39.94a11.5,11.5,0,0,0,11,2.52,11.25,11.25,0,0,1,3.46.2,19.46,19.46,0,0,0-5.36.87s-6.2,1-9.75-3.36C315.17,40.16,315.17,39.41,315.78,39.94Z"/><path class="cls-1" d="M281.38,41.86a11.5,11.5,0,0,0,11,2.52,11.25,11.25,0,0,1,3.46.2,19.45,19.45,0,0,0-5.36.87s-6.2,1-9.75-3.36C280.78,42.08,280.77,41.33,281.38,41.86Z"/><path class="cls-1" d="M284.6,115.84a11.53,11.53,0,0,0-11.06-2.6,11.28,11.28,0,0,1-3.47-.22,19.49,19.49,0,0,0,5.38-.84s6.22-1,9.76,3.43C285.21,115.62,285.21,116.38,284.6,115.84Z"/><path class="cls-1" d="M277.76,135.87a32.29,32.29,0,0,0,2.7-32.47s-1.62-6.77-.9-9.91c0,0,1.77,10,4.82,14.86,0,0,5.58,17.18-5.71,29.13C278.68,137.49,276.47,137.82,277.76,135.87Z"/><path class="cls-1" d="M310.69,200.17A50.71,50.71,0,0,1,292,152.79s-.63-10.83-3.13-15.21c0,0,1.86,15.69-.5,24.33,0,0-.6,28.13,21.68,41.07C310.05,203,313.51,202.52,310.69,200.17Z"/><path class="cls-1" d="M354.76,137.5a25.09,25.09,0,0,1-2.12-25.23s1.25-5.26.69-7.7c0,0-1.37,7.75-3.74,11.55,0,0-4.33,13.35,4.45,22.64C354,138.76,355.77,139,354.76,137.5Z"/><path class="cls-1" d="M366.64,108.93a26.18,26.18,0,0,0,25.72-.55s5.19-1.78,7.71-1.48c0,0-7.69,2.15-11.29,4.86,0,0-13,5.63-23.34-2C365.44,109.76,365,108.1,366.64,108.93Z"/><path class="cls-1" d="M292.66,174.32A25.66,25.66,0,0,0,310.37,156s2.38-4.88,4.37-6.42c0,0-3.87,6.88-4.44,11.31,0,0-5.13,13.08-17.89,14.89C292.41,175.74,290.91,174.88,292.66,174.32Z"/><path class="cls-1" d="M317.9,203.82a25.84,25.84,0,0,0,22.34,12.56s5.38,1.11,7.38,2.64c0,0-7.72-2.06-12.22-1.55,0,0-14.13-1.79-19-13.55C316.43,203.93,316.93,202.28,317.9,203.82Z"/><path class="cls-1" d="M380.18,114.09a12.9,12.9,0,0,0,11.15,6.27,12.67,12.67,0,0,1,3.68,1.32,22,22,0,0,0-6.1-.78s-7.05-.89-9.46-6.76C379.45,114.14,379.7,113.32,380.18,114.09Z"/><path class="cls-1" d="M308.76,164.47a11.39,11.39,0,0,0,9.78,5.65,11.19,11.19,0,0,1,3.24,1.2,19.44,19.44,0,0,0-5.38-.74s-6.22-.86-8.29-6.06C308.12,164.51,308.34,163.79,308.76,164.47Z"/><path class="cls-1" d="M335.57,178.1s39.8,15.07,75.87-16c0,0,14.35-8.17,22-8.69,0,0-21.55,10.66-30.63,20.72,0,0-35.39,24-70.3,7.14C332.5,181.23,330.24,176.56,335.57,178.1Z"/><path class="cls-1" d="M382.41,180a25.09,25.09,0,0,1-2.12-25.23s1.25-5.26.69-7.7c0,0-1.37,7.75-3.74,11.55,0,0-4.33,13.35,4.45,22.64C381.69,181.26,383.42,181.52,382.41,180Z"/><path class="cls-1" d="M397.52,174a25.84,25.84,0,0,0,22.33,12.56s5.38,1.11,7.38,2.64c0,0-7.72-2.06-12.22-1.55,0,0-14.13-1.79-19-13.55C396.06,174.11,396.55,172.46,397.52,174Z"/><path class="cls-1" d="M416.23,164.47a11.39,11.39,0,0,0,9.78,5.65,11.19,11.19,0,0,1,3.24,1.2,19.45,19.45,0,0,0-5.38-.74s-6.22-.86-8.29-6.06C415.59,164.51,415.81,163.79,416.23,164.47Z"/><path class="cls-1" d="M378.32,172.52a11.2,11.2,0,0,0,5.71-9.64,10.75,10.75,0,0,1,1.21-3.19,18.58,18.58,0,0,0-.74,5.29s-.85,6.12-6.14,8.18C378.36,173.15,377.63,172.93,378.32,172.52Z"/><path class="cls-1" d="M335,185.7s21.21,24,56.6,15.78c0,0,12.55-.45,17.86,1.86,0,0-18.28-.39-28,3.17,0,0-32.36,3.68-49.66-19.8C331.86,186.73,332,182.81,335,185.7Z"/><path class="cls-1" d="M365.73,203.35a19.1,19.1,0,0,1,7.69-17.64s2.74-3.09,3.24-4.91c0,0-3.71,4.71-6.67,6.43,0,0-7.72,7.43-5.19,16.72C364.8,203.95,365.86,204.72,365.73,203.35Z"/><path class="cls-1" d="M378,204.62a19.2,19.2,0,0,0,10.42,16.22s3.2,2.62,4,4.35c0,0-4.42-4.08-7.62-5.31,0,0-8.81-6.14-7.81-15.7C377,204.18,377.92,203.25,378,204.62Z"/><path class="cls-1" d="M394,204.78a8.46,8.46,0,0,0,4.51,7.2,8.3,8.3,0,0,1,1.74,1.94,14.53,14.53,0,0,0-3.33-2.38s-3.86-2.75-3.36-7C393.54,204.58,394,204.17,394,204.78Z"/><path class="cls-1" d="M365.69,196.91a8.67,8.67,0,0,0,7.31-4.46,8.34,8.34,0,0,1,2-1.71,14.31,14.31,0,0,0-2.41,3.29s-2.78,3.8-7.06,3.33C365.49,197.35,365.08,196.95,365.69,196.91Z"/><path class="cls-1" d="M290.1,167.56A11.5,11.5,0,0,0,279,165.11a11.25,11.25,0,0,1-3.46-.17,19.44,19.44,0,0,0,5.35-.9s6.19-1,9.77,3.3C290.71,167.33,290.71,168.09,290.1,167.56Z"/><path class="cls-1" d="M349,125.14a11.5,11.5,0,0,0-11.06-2.45,11.24,11.24,0,0,1-3.46-.17,19.43,19.43,0,0,0,5.35-.9s6.19-1,9.77,3.3C349.58,124.91,349.58,125.67,349,125.14Z"/><path class="cls-1" d="M341.1,154a8.77,8.77,0,0,0-8.43-1.87A8.55,8.55,0,0,1,330,152a14.8,14.8,0,0,0,4.08-.68s4.72-.79,7.45,2.51C341.56,153.86,341.57,154.43,341.1,154Z"/><path class="cls-1" d="M336.1,169.31a24.53,24.53,0,0,0,1.74-24.7s-1.3-5.13-.77-7.52c0,0,1.44,7.56,3.81,11.25,0,0,4.41,13-4.06,22.19C336.81,170.53,335.13,170.8,336.1,169.31Z"/><path class="cls-1" d="M265.37,218.18s73.86-18,94.26-99.87c0,0,12.48-26.39,23.1-34.85,0,0-20.41,37.29-23.23,61.14,0,0-25.31,74.52-93.86,85.06C265.64,229.66,256,221.29,265.37,218.18Z"/><path class="cls-1" d="M64.44,152S86,162.62,95.06,172.67c0,0,35.39,24,70.3,7.14,0,0,2.26-4.67-3.07-3.13,0,0-39.8,15.07-75.87-16,0,0-14.35-8.17-22-8.69"/><path class="cls-1" d="M128.17,134.47a57.55,57.55,0,0,0,0-58.12s-3.88-11.81-3.05-17.49c0,0,4.61,17.48,10.76,25.74,0,0,12.46,29.75-5.86,52.62C130,137.22,126.15,138.12,128.17,134.47Z"/><path class="cls-1" d="M184.25,188.41s-12.57,25-44.48,25.82c0,0-10.76,2.37-14.74,5.5,0,0,15.43-4.34,24.48-3.45,0,0,28.31-4,37.68-27.71C187.18,188.58,186.15,185.29,184.25,188.41Z"/><path class="cls-1" d="M127.11,74.39a13.47,13.47,0,0,1-9.25-9.68,13,13,0,0,0-2.27-3.38s2,3.62,2.3,5.95c0,0,2.65,6.88,9.34,7.87C127.23,75.13,128,74.68,127.11,74.39Z"/><path class="cls-1" d="M116.36,120.86a26.17,26.17,0,0,0-25.69-1.37s-5.31,1.38-7.8.9c0,0,7.83-1.56,11.63-4,0,0,13.44-4.64,23.12,3.74C117.62,120.12,117.93,121.81,116.36,120.86Z"/><path class="cls-1" d="M97.45,170.61a25.9,25.9,0,0,1-23.08,11.18s-5.44.78-7.53,2.19c0,0,7.83-1.58,12.29-.81,0,0,14.21-.92,19.78-12.36C98.91,170.8,98.52,169.13,97.45,170.61Z"/><path class="cls-1" d="M129.72,184.4a25.91,25.91,0,0,1-23.08,11.18s-5.44.78-7.53,2.19c0,0,7.83-1.58,12.29-.81,0,0,14.21-.92,19.78-12.36C131.17,184.59,130.78,182.92,129.72,184.4Z"/><path class="cls-1" d="M109,100.44a26.17,26.17,0,0,1-25.25-4.84S79,93,76.42,92.86c0,0,7.21,3.4,10.29,6.67,0,0,11.89,7.72,23.35,1.92C110.05,101.46,110.77,99.9,109,100.44Z"/><path class="cls-1" d="M138.39,109.77a25.67,25.67,0,0,0,17.72-18.35s2.37-4.87,4.36-6.42c0,0-3.87,6.88-4.44,11.31,0,0-5.13,13.08-17.89,14.89C138.15,111.19,136.64,110.33,138.39,109.77Z"/><path class="cls-1" d="M135.33,84.07a11.38,11.38,0,0,0,7.86-8.14,11,11,0,0,1,1.94-2.85,18.82,18.82,0,0,0-2,5s-2.28,5.8-7.93,6.61C135.22,84.7,134.55,84.32,135.33,84.07Z"/><path class="cls-1" d="M118.66,179.49a25.3,25.3,0,0,0-13.27-21.69s-4.14-3.55-5.13-5.85c0,0,5.71,5.5,9.89,7.22,0,0,11.44,8.35,9.83,20.93C120,180.1,118.74,181.3,118.66,179.49Z"/><path class="cls-1" d="M109.24,93A25.08,25.08,0,0,0,111,67.73s-1.32-5.25-.79-7.69c0,0,1.47,7.73,3.89,11.5,0,0,4.51,13.3-4.15,22.69C110,94.23,108.25,94.51,109.24,93Z"/><path class="cls-1" d="M161.54,141.41A11.5,11.5,0,0,0,150.48,139a11.24,11.24,0,0,1-3.46-.17,19.44,19.44,0,0,0,5.35-.9s6.19-1,9.77,3.3C162.14,141.18,162.15,141.94,161.54,141.41Z"/><path class="cls-1" d="M155,161.46a32.19,32.19,0,0,0,2.28-32.41s-1.7-6.73-1-9.87c0,0,1.89,9.92,5,14.76,0,0,5.79,17.06-5.32,29.12C155.91,163.07,153.71,163.43,155,161.46Z"/><path class="cls-1" d="M194.56,210.18a8.45,8.45,0,0,0,2.87,8,8.29,8.29,0,0,1,1.29,2.27,14.45,14.45,0,0,0-2.76-3s-3.19-3.51-1.79-7.54C194.17,209.89,194.66,209.58,194.56,210.18Z"/><path class="cls-1" d="M210.38,206.24a25.42,25.42,0,0,0-22.19,11.66s-3.73,3.81-6.06,4.64c0,0,5.75-5.22,7.66-9.15,0,0,8.85-10.58,21.26-8.4C211.05,205,212.18,206.25,210.38,206.24Z"/><path class="cls-1" d="M163.5,209.32a24.88,24.88,0,0,0-23-8.74s-5.25-.29-7.37-1.46c0,0,7.6.86,11.79-.25,0,0,13.63-.3,19.92,10.14C164.87,209,164.64,210.64,163.5,209.32Z"/><path class="cls-1" d="M223.76,197.76s-75-11.21-107.17-93.41c0,0-16.51-25.73-28.66-33.12,0,0,26.2,36,32.35,60.38,0,0,34.46,74.57,107,76.54C227.25,208.15,233.91,199.76,223.76,197.76Z"/><path class="cls-1" d="M192.76,486.21s39.65,31,86.84,0c0,0-31.51-157.14-6-326.68,0,0,12.33-45.93,24.77-57,0,0-41.23,77.63-63.64,41.79,0,0-20.19-37.51-19.61-105.68,0,0-7,83.63,2.8,133.25C218,171.94,240.38,251.89,192.76,486.21Z"/><path class="cls-2" d="M400.13,52.31a67.87,67.87,0,0,0,21.1-19.85S404.4,36.33,400.13,52.31Z"/><path class="cls-2" d="M410.89,40.59s-.51,10.34,10.62,10.93c0,0,11.55.2,16.66-7.77C438.18,43.76,422.21,31.46,410.89,40.59Z"/><path class="cls-2" d="M411.45,44.1s-10,3.24-6.56,13.68c0,0-1.36,8.47,8,10.3C412.92,68.08,431.45,56.68,411.45,44.1Z"/><path class="cls-2" d="M408.15,40.7s-3.74,9.67-14.18,5.83a9.22,9.22,0,0,1-10.1-8.36S396.27,20.47,408.15,40.7Z"/><path class="cls-2" d="M410.89,40.59s-10.52,0-10.62-10.93c0,0,.32-11.37,8.64-16C408.91,13.63,420.67,29.87,410.89,40.59Z"/><path class="cls-2" d="M174.16,118.22s-4.87-4.46.66-10.91a4.76,4.76,0,0,0,1.09-3.3,9.55,9.55,0,0,0,2.83,4s4.51,5.61.08,10.6C178.83,118.61,175.68,120.58,174.16,118.22Z"/><path class="cls-2" d="M180,117.92s2.12-6.2,10.37-3.91a5,5,0,0,0,3.51-.38,9.54,9.54,0,0,0-2.54,4.19s-3.33,6.36-9.77,4.44C181.54,122.26,178.41,120.26,180,117.92Z"/><path class="cls-2" d="M182.05,122.72s6.65,0,7,8.47a4.77,4.77,0,0,0,1.47,3.16,9.85,9.85,0,0,0-4.84-1.07s-7.18-1.12-7.34-7.75C178.35,125.53,179.31,122,182.05,122.72Z"/><path class="cls-2" d="M172.63,123.83s-6,2.86-10.1-4.54a4.86,4.86,0,0,0-2.73-2.19,9.85,9.85,0,0,0,4.82-1.15s6.94-2.12,10.07,3.75C174.69,119.69,175.42,123.29,172.63,123.83Z"/><path class="cls-2" d="M178.31,126.46s1.73,6.32-6.43,8.91a4.88,4.88,0,0,0-2.7,2.23,9.42,9.42,0,0,0-.25-4.87s-.81-7.11,5.63-9C174.57,123.7,178.29,123.66,178.31,126.46Z"/><path class="cls-2" d="M177.23,118.25a3.49,3.49,0,1,0,3.55,3.49A3.52,3.52,0,0,0,177.23,118.25Zm0,5.74a2.25,2.25,0,1,1,2.29-2.25A2.27,2.27,0,0,1,177.23,124Z"/><path class="cls-2" d="M139.12,93.19s-3.16-2.9.43-7.08a3.1,3.1,0,0,0,.71-2.14,6.2,6.2,0,0,0,1.84,2.6s2.93,3.64.05,6.88C142.15,93.44,140.11,94.73,139.12,93.19Z"/><path class="cls-2" d="M142.9,93s1.38-4,6.73-2.54a3.22,3.22,0,0,0,2.28-.25,6.2,6.2,0,0,0-1.65,2.72s-2.16,4.13-6.35,2.89C143.91,95.81,141.88,94.51,142.9,93Z"/><path class="cls-2" d="M144.25,96.11s4.32,0,4.55,5.5a3.1,3.1,0,0,0,1,2.05,6.39,6.39,0,0,0-3.14-.69s-4.66-.73-4.77-5C141.84,97.94,142.46,95.64,144.25,96.11Z"/><path class="cls-2" d="M138.13,96.84s-3.89,1.86-6.56-3a3.16,3.16,0,0,0-1.78-1.42,6.4,6.4,0,0,0,3.13-.75s4.51-1.38,6.54,2.44C139.46,94.15,139.94,96.48,138.13,96.84Z"/><path class="cls-2" d="M141.82,98.54s1.12,4.11-4.17,5.79a3.17,3.17,0,0,0-1.76,1.45,6.12,6.12,0,0,0-.16-3.16s-.53-4.62,3.66-5.87C139.38,96.75,141.8,96.72,141.82,98.54Z"/><path class="cls-2" d="M141.11,93.21a2.27,2.27,0,1,0,2.3,2.27A2.29,2.29,0,0,0,141.11,93.21Zm0,3.73a1.46,1.46,0,1,1,1.48-1.46A1.47,1.47,0,0,1,141.11,96.94Z"/><path class="cls-2" d="M173.54,74s-3.16-2.9.43-7.09a3.1,3.1,0,0,0,.71-2.14,6.2,6.2,0,0,0,1.84,2.6s2.93,3.64.05,6.88C176.57,74.24,174.53,75.52,173.54,74Z"/><path class="cls-2" d="M177.32,73.79s1.38-4,6.73-2.54a3.22,3.22,0,0,0,2.28-.25,6.21,6.21,0,0,0-1.65,2.72s-2.16,4.13-6.35,2.89C178.33,76.61,176.3,75.31,177.32,73.79Z"/><path class="cls-2" d="M178.67,76.9s4.32,0,4.55,5.5a3.1,3.1,0,0,0,1,2.05,6.39,6.39,0,0,0-3.14-.69s-4.66-.73-4.77-5C176.26,78.73,176.89,76.43,178.67,76.9Z"/><path class="cls-2" d="M172.55,77.63s-3.89,1.86-6.56-3a3.16,3.16,0,0,0-1.78-1.42,6.4,6.4,0,0,0,3.13-.75s4.51-1.38,6.54,2.44C173.89,74.94,174.36,77.28,172.55,77.63Z"/><path class="cls-2" d="M176.24,79.34s1.12,4.11-4.18,5.79a3.17,3.17,0,0,0-1.75,1.45,6.12,6.12,0,0,0-.16-3.17s-.53-4.62,3.66-5.87C173.81,77.54,176.23,77.52,176.24,79.34Z"/><path class="cls-2" d="M175.54,74a2.27,2.27,0,1,0,2.3,2.27A2.29,2.29,0,0,0,175.54,74Zm0,3.73A1.46,1.46,0,1,1,177,76.27,1.47,1.47,0,0,1,175.54,77.73Z"/><path class="cls-2" d="M142.23,46.23s-3.16-2.9.43-7.09a3.09,3.09,0,0,0,.71-2.14,6.2,6.2,0,0,0,1.84,2.6s2.93,3.64.05,6.88C145.26,46.48,143.21,47.77,142.23,46.23Z"/><path class="cls-2" d="M146,46s1.38-4,6.73-2.54a3.22,3.22,0,0,0,2.28-.25A6.2,6.2,0,0,0,153.37,46s-2.16,4.13-6.35,2.89C147,48.85,145,47.55,146,46Z"/><path class="cls-2" d="M147.35,49.15s4.32,0,4.55,5.5a3.09,3.09,0,0,0,1,2.05,6.4,6.4,0,0,0-3.14-.69s-4.66-.73-4.77-5C144.95,51,145.57,48.68,147.35,49.15Z"/><path class="cls-2" d="M141.23,49.88s-3.89,1.86-6.56-3a3.16,3.16,0,0,0-1.78-1.42,6.4,6.4,0,0,0,3.13-.75s4.51-1.38,6.54,2.44C142.57,47.19,143,49.52,141.23,49.88Z"/><path class="cls-2" d="M144.92,51.58s1.12,4.11-4.18,5.79A3.17,3.17,0,0,0,139,58.82a6.11,6.11,0,0,0-.16-3.16s-.53-4.62,3.66-5.87C142.49,49.79,144.91,49.76,144.92,51.58Z"/><path class="cls-2" d="M144.22,46.25a2.27,2.27,0,1,0,2.3,2.27A2.29,2.29,0,0,0,144.22,46.25Zm0,3.73a1.46,1.46,0,1,1,1.48-1.46A1.47,1.47,0,0,1,144.22,50Z"/><path class="cls-2" d="M290.72,163.76s-4.87-4.46.66-10.91a4.76,4.76,0,0,0,1.09-3.3,9.55,9.55,0,0,0,2.83,4s4.52,5.61.08,10.6C295.38,164.15,292.24,166.12,290.72,163.76Z"/><path class="cls-2" d="M296.53,163.46s2.12-6.2,10.37-3.91a5,5,0,0,0,3.51-.38,9.55,9.55,0,0,0-2.54,4.19s-3.33,6.36-9.77,4.44C298.09,167.8,295,165.8,296.53,163.46Z"/><path class="cls-2" d="M298.61,168.26s6.65,0,7,8.47a4.77,4.77,0,0,0,1.47,3.16,9.84,9.84,0,0,0-4.84-1.07s-7.18-1.12-7.34-7.75C294.91,171.07,295.86,167.53,298.61,168.26Z"/><path class="cls-2" d="M289.19,169.37s-6,2.86-10.1-4.54a4.86,4.86,0,0,0-2.73-2.19,9.86,9.86,0,0,0,4.82-1.15s6.94-2.12,10.07,3.75C291.24,165.23,292,168.83,289.19,169.37Z"/><path class="cls-2" d="M294.87,172s1.73,6.32-6.43,8.91a4.88,4.88,0,0,0-2.7,2.23,9.42,9.42,0,0,0-.25-4.87s-.82-7.11,5.63-9C291.12,169.24,294.85,169.2,294.87,172Z"/><path class="cls-2" d="M293.79,163.79a3.49,3.49,0,1,0,3.55,3.49A3.52,3.52,0,0,0,293.79,163.79Zm0,5.74a2.25,2.25,0,1,1,2.29-2.25A2.27,2.27,0,0,1,293.79,169.53Z"/><path class="cls-2" d="M255.68,138.73s-3.16-2.9.43-7.08a3.09,3.09,0,0,0,.71-2.14,6.21,6.21,0,0,0,1.84,2.6s2.93,3.64.05,6.88C258.71,139,256.67,140.27,255.68,138.73Z"/><path class="cls-2" d="M259.45,138.53s1.38-4,6.73-2.54a3.22,3.22,0,0,0,2.28-.25,6.21,6.21,0,0,0-1.65,2.72s-2.16,4.13-6.35,2.89C260.47,141.35,258.44,140.05,259.45,138.53Z"/><path class="cls-2" d="M260.8,141.65s4.32,0,4.55,5.5a3.09,3.09,0,0,0,1,2.05,6.39,6.39,0,0,0-3.14-.69s-4.66-.73-4.77-5C258.4,143.48,259,141.18,260.8,141.65Z"/><path class="cls-2" d="M254.68,142.38s-3.89,1.86-6.56-3a3.15,3.15,0,0,0-1.78-1.42,6.4,6.4,0,0,0,3.13-.75s4.51-1.38,6.54,2.44C256,139.69,256.5,142,254.68,142.38Z"/><path class="cls-2" d="M258.37,144.08s1.12,4.11-4.17,5.79a3.17,3.17,0,0,0-1.75,1.45,6.13,6.13,0,0,0-.16-3.17s-.53-4.62,3.66-5.87C255.94,142.29,258.36,142.27,258.37,144.08Z"/><path class="cls-2" d="M257.67,138.75A2.27,2.27,0,1,0,260,141,2.29,2.29,0,0,0,257.67,138.75Zm0,3.73a1.46,1.46,0,1,1,1.48-1.46A1.47,1.47,0,0,1,257.67,142.48Z"/><path class="cls-2" d="M290.1,119.52s-3.16-2.9.43-7.09a3.1,3.1,0,0,0,.71-2.14,6.2,6.2,0,0,0,1.84,2.6s2.93,3.64.05,6.88C293.13,119.78,291.09,121.06,290.1,119.52Z"/><path class="cls-2" d="M293.88,119.33s1.38-4,6.74-2.54a3.22,3.22,0,0,0,2.28-.25,6.2,6.2,0,0,0-1.65,2.72s-2.16,4.13-6.35,2.89C294.89,122.15,292.86,120.85,293.88,119.33Z"/><path class="cls-2" d="M295.23,122.44s4.32,0,4.55,5.5a3.1,3.1,0,0,0,1,2.05,6.39,6.39,0,0,0-3.14-.69s-4.66-.73-4.77-5C292.82,124.27,293.44,122,295.23,122.44Z"/><path class="cls-2" d="M289.11,123.17s-3.89,1.86-6.56-3a3.15,3.15,0,0,0-1.78-1.42,6.4,6.4,0,0,0,3.13-.75s4.51-1.38,6.54,2.44C290.44,120.48,290.92,122.82,289.11,123.17Z"/><path class="cls-2" d="M292.79,124.88s1.12,4.11-4.18,5.79a3.17,3.17,0,0,0-1.75,1.45,6.11,6.11,0,0,0-.16-3.16s-.53-4.62,3.66-5.87C290.36,123.08,292.78,123.06,292.79,124.88Z"/><path class="cls-2" d="M292.09,119.54a2.27,2.27,0,1,0,2.3,2.27A2.29,2.29,0,0,0,292.09,119.54Zm0,3.73a1.46,1.46,0,1,1,1.48-1.46A1.47,1.47,0,0,1,292.09,123.27Z"/><path class="cls-2" d="M258.78,91.77s-3.16-2.9.43-7.09a3.09,3.09,0,0,0,.71-2.14,6.2,6.2,0,0,0,1.84,2.6s2.93,3.64.05,6.88C261.81,92,259.77,93.31,258.78,91.77Z"/><path class="cls-2" d="M262.56,91.57s1.38-4,6.74-2.54a3.22,3.22,0,0,0,2.28-.25,6.2,6.2,0,0,0-1.65,2.72s-2.16,4.13-6.35,2.89C263.57,94.39,261.54,93.09,262.56,91.57Z"/><path class="cls-2" d="M263.91,94.69s4.32,0,4.55,5.5a3.09,3.09,0,0,0,1,2.05,6.4,6.4,0,0,0-3.14-.69s-4.66-.73-4.77-5C261.5,96.52,262.13,94.22,263.91,94.69Z"/><path class="cls-2" d="M257.79,95.42s-3.89,1.86-6.56-3A3.16,3.16,0,0,0,249.45,91a6.4,6.4,0,0,0,3.13-.75s4.51-1.38,6.54,2.44C259.12,92.73,259.6,95.06,257.79,95.42Z"/><path class="cls-2" d="M261.48,97.12s1.12,4.11-4.18,5.79a3.17,3.17,0,0,0-1.75,1.45,6.11,6.11,0,0,0-.16-3.16s-.53-4.62,3.66-5.87C259,95.33,261.47,95.31,261.48,97.12Z"/><path class="cls-2" d="M260.78,91.79a2.27,2.27,0,1,0,2.3,2.27A2.29,2.29,0,0,0,260.78,91.79Zm0,3.73a1.46,1.46,0,1,1,1.48-1.46A1.47,1.47,0,0,1,260.78,95.52Z"/><path class="cls-3" d="M165.77,290.66s-4.87-4.46.66-10.91a4.76,4.76,0,0,0,1.09-3.3,9.55,9.55,0,0,0,2.83,4s4.52,5.61.08,10.6C170.43,291.05,167.29,293,165.77,290.66Z"/><path class="cls-3" d="M171.58,290.36s2.12-6.2,10.37-3.91a5,5,0,0,0,3.5-.38,9.55,9.55,0,0,0-2.54,4.19s-3.33,6.36-9.77,4.44C173.14,294.7,170,292.7,171.58,290.36Z"/><path class="cls-3" d="M173.66,295.16s6.65,0,7,8.47a4.77,4.77,0,0,0,1.47,3.16,9.85,9.85,0,0,0-4.84-1.07S170.12,304.6,170,298C170,298,170.92,294.43,173.66,295.16Z"/><path class="cls-3" d="M164.24,296.27s-6,2.86-10.1-4.54a4.86,4.86,0,0,0-2.74-2.19,9.86,9.86,0,0,0,4.82-1.15s6.94-2.12,10.07,3.75C166.3,292.13,167,295.73,164.24,296.27Z"/><path class="cls-3" d="M169.92,298.9s1.73,6.32-6.43,8.91a4.88,4.88,0,0,0-2.7,2.23,9.43,9.43,0,0,0-.25-4.87s-.82-7.11,5.63-9C166.18,296.14,169.9,296.1,169.92,298.9Z"/><path class="cls-3" d="M168.84,290.69a3.49,3.49,0,1,0,3.55,3.49A3.52,3.52,0,0,0,168.84,290.69Zm0,5.74a2.25,2.25,0,1,1,2.29-2.25A2.27,2.27,0,0,1,168.84,296.43Z"/><path class="cls-3" d="M296.57,285.42s-4.87-4.46.66-10.91a4.76,4.76,0,0,0,1.09-3.3,9.55,9.55,0,0,0,2.83,4s4.52,5.61.08,10.6C301.23,285.81,298.09,287.79,296.57,285.42Z"/><path class="cls-3" d="M302.38,285.12s2.12-6.2,10.37-3.91a5,5,0,0,0,3.5-.38,9.54,9.54,0,0,0-2.54,4.19s-3.33,6.36-9.77,4.44C303.94,289.46,300.82,287.46,302.38,285.12Z"/><path class="cls-3" d="M304.46,289.92s6.65,0,7,8.47a4.77,4.77,0,0,0,1.47,3.16,9.84,9.84,0,0,0-4.84-1.07s-7.18-1.12-7.34-7.75C300.76,292.74,301.71,289.19,304.46,289.92Z"/><path class="cls-3" d="M295,291s-6,2.86-10.1-4.54a4.86,4.86,0,0,0-2.73-2.19,9.86,9.86,0,0,0,4.82-1.15S294,281,297.1,286.9C297.1,286.9,297.83,290.49,295,291Z"/><path class="cls-3" d="M300.72,293.66s1.73,6.32-6.43,8.91a4.88,4.88,0,0,0-2.7,2.23,9.42,9.42,0,0,0-.25-4.87s-.82-7.11,5.63-9C297,290.9,300.7,290.87,300.72,293.66Z"/><path class="cls-3" d="M299.64,285.45a3.49,3.49,0,1,0,3.55,3.49A3.52,3.52,0,0,0,299.64,285.45Zm0,5.74a2.25,2.25,0,1,1,2.29-2.25A2.27,2.27,0,0,1,299.64,291.19Z"/><path class="cls-3" d="M348.79,216.29s-3.16-2.9.43-7.08a3.1,3.1,0,0,0,.71-2.14,6.2,6.2,0,0,0,1.84,2.6s2.93,3.64.05,6.88C351.82,216.54,349.77,217.83,348.79,216.29Z"/><path class="cls-3" d="M352.56,216.09s1.38-4,6.73-2.54a3.22,3.22,0,0,0,2.28-.25,6.21,6.21,0,0,0-1.65,2.72s-2.16,4.13-6.35,2.89C353.58,218.91,351.55,217.61,352.56,216.09Z"/><path class="cls-3" d="M353.91,219.21s4.32,0,4.55,5.5a3.1,3.1,0,0,0,1,2.05,6.39,6.39,0,0,0-3.14-.69s-4.66-.73-4.77-5C351.51,221,352.13,218.74,353.91,219.21Z"/><path class="cls-3" d="M347.79,219.93s-3.89,1.86-6.56-3a3.16,3.16,0,0,0-1.78-1.42,6.4,6.4,0,0,0,3.13-.75s4.51-1.38,6.54,2.44C349.13,217.25,349.61,219.58,347.79,219.93Z"/><path class="cls-3" d="M351.48,221.64s1.12,4.11-4.17,5.79a3.17,3.17,0,0,0-1.76,1.45,6.12,6.12,0,0,0-.16-3.16s-.53-4.62,3.66-5.87C349,219.85,351.47,219.82,351.48,221.64Z"/><path class="cls-3" d="M350.78,216.31a2.27,2.27,0,1,0,2.3,2.27A2.29,2.29,0,0,0,350.78,216.31Zm0,3.73a1.46,1.46,0,1,1,1.48-1.46A1.47,1.47,0,0,1,350.78,220Z"/><path class="cls-3" d="M193.72,293.23s-3.16-2.9.43-7.09a3.1,3.1,0,0,0,.71-2.14,6.2,6.2,0,0,0,1.84,2.6s2.93,3.64.05,6.88C196.75,293.48,194.7,294.76,193.72,293.23Z"/><path class="cls-3" d="M197.49,293s1.38-4,6.73-2.54a3.22,3.22,0,0,0,2.28-.25,6.2,6.2,0,0,0-1.65,2.72s-2.16,4.13-6.35,2.89C198.51,295.85,196.48,294.55,197.49,293Z"/><path class="cls-3" d="M198.84,296.15s4.32,0,4.55,5.5a3.1,3.1,0,0,0,1,2.05,6.39,6.39,0,0,0-3.14-.69s-4.66-.73-4.77-5C196.44,298,197.06,295.67,198.84,296.15Z"/><path class="cls-3" d="M192.72,296.87s-3.89,1.86-6.56-3a3.16,3.16,0,0,0-1.78-1.42,6.4,6.4,0,0,0,3.13-.75s4.51-1.38,6.54,2.44C194.06,294.18,194.54,296.52,192.72,296.87Z"/><path class="cls-3" d="M196.41,298.58s1.12,4.11-4.17,5.79a3.17,3.17,0,0,0-1.76,1.45,6.12,6.12,0,0,0-.16-3.16s-.53-4.62,3.66-5.87C194,296.79,196.4,296.76,196.41,298.58Z"/><path class="cls-3" d="M195.71,293.25a2.27,2.27,0,1,0,2.3,2.27A2.29,2.29,0,0,0,195.71,293.25Zm0,3.73a1.46,1.46,0,1,1,1.48-1.46A1.47,1.47,0,0,1,195.71,297Z"/><path class="cls-3" d="M134,295.54s-3.16-2.9.43-7.08a3.1,3.1,0,0,0,.71-2.14,6.21,6.21,0,0,0,1.84,2.6s2.93,3.64.05,6.88C137,295.8,135,297.08,134,295.54Z"/><path class="cls-3" d="M137.75,295.35s1.38-4,6.74-2.54a3.22,3.22,0,0,0,2.28-.25,6.2,6.2,0,0,0-1.65,2.72s-2.16,4.13-6.35,2.89C138.76,298.17,136.74,296.87,137.75,295.35Z"/><path class="cls-3" d="M139.1,298.47s4.32,0,4.55,5.5a3.09,3.09,0,0,0,1,2.05,6.39,6.39,0,0,0-3.14-.69s-4.66-.73-4.77-5C136.69,300.29,137.32,298,139.1,298.47Z"/><path class="cls-3" d="M133,299.19s-3.89,1.86-6.56-3a3.15,3.15,0,0,0-1.78-1.42,6.39,6.39,0,0,0,3.13-.75s4.51-1.38,6.54,2.44C134.32,296.5,134.79,298.84,133,299.19Z"/><path class="cls-3" d="M136.67,300.9s1.12,4.11-4.17,5.79a3.17,3.17,0,0,0-1.75,1.45,6.11,6.11,0,0,0-.16-3.16s-.53-4.62,3.66-5.87C134.24,299.1,136.66,299.08,136.67,300.9Z"/><path class="cls-3" d="M136,295.56a2.27,2.27,0,1,0,2.3,2.27A2.29,2.29,0,0,0,136,295.56Zm0,3.73a1.46,1.46,0,1,1,1.48-1.46A1.47,1.47,0,0,1,136,299.29Z"/><path class="cls-3" d="M98.53,194.75s-3.16-2.9.43-7.08a3.1,3.1,0,0,0,.71-2.14,6.2,6.2,0,0,0,1.84,2.6s2.93,3.64.05,6.88C101.56,195,99.52,196.29,98.53,194.75Z"/><path class="cls-3" d="M102.31,194.56s1.38-4,6.73-2.54a3.22,3.22,0,0,0,2.28-.25,6.2,6.2,0,0,0-1.65,2.72s-2.16,4.13-6.35,2.89C103.32,197.38,101.29,196.08,102.31,194.56Z"/><path class="cls-3" d="M103.66,197.68s4.32,0,4.55,5.5a3.1,3.1,0,0,0,1,2.05,6.39,6.39,0,0,0-3.14-.69s-4.66-.73-4.77-5C101.25,199.51,101.87,197.2,103.66,197.68Z"/><path class="cls-3" d="M97.54,198.4s-3.89,1.86-6.56-3A3.16,3.16,0,0,0,89.2,194a6.4,6.4,0,0,0,3.13-.75s4.51-1.38,6.54,2.44C98.87,195.71,99.35,198,97.54,198.4Z"/><path class="cls-3" d="M101.22,200.11s1.12,4.11-4.17,5.79a3.17,3.17,0,0,0-1.76,1.45,6.11,6.11,0,0,0-.16-3.16s-.53-4.62,3.66-5.87C98.79,198.32,101.21,198.29,101.22,200.11Z"/><path class="cls-3" d="M100.52,194.78a2.27,2.27,0,1,0,2.3,2.27A2.29,2.29,0,0,0,100.52,194.78Zm0,3.73A1.46,1.46,0,1,1,102,197,1.47,1.47,0,0,1,100.52,198.5Z"/><path class="cls-3" d="M67.92,152.49s-3.16-2.9.43-7.08a3.1,3.1,0,0,0,.71-2.14,6.21,6.21,0,0,0,1.84,2.6s2.93,3.64.05,6.88C71,152.75,68.91,154,67.92,152.49Z"/><path class="cls-3" d="M71.7,152.29s1.38-4,6.74-2.54a3.22,3.22,0,0,0,2.28-.25,6.21,6.21,0,0,0-1.65,2.72s-2.16,4.13-6.35,2.89C72.71,155.12,70.69,153.82,71.7,152.29Z"/><path class="cls-3" d="M73.05,155.41s4.32,0,4.55,5.5a3.1,3.1,0,0,0,1,2.05,6.39,6.39,0,0,0-3.14-.69s-4.66-.73-4.77-5C70.65,157.24,71.27,154.94,73.05,155.41Z"/><path class="cls-3" d="M61.72,151s4.51-1.38,6.54,2.44c0,0,.48,2.34-1.34,2.69,0,0-3.89,1.86-6.56-3"/><path class="cls-3" d="M64.53,161.92s-.53-4.62,3.66-5.87c0,0,2.42,0,2.43,1.79,0,0,1.12,4.11-4.17,5.79a3.17,3.17,0,0,0-1.75,1.45"/><path class="cls-3" d="M69.92,152.51a2.27,2.27,0,1,0,2.3,2.27A2.29,2.29,0,0,0,69.92,152.51Zm0,3.73a1.46,1.46,0,1,1,1.48-1.46A1.47,1.47,0,0,1,69.92,156.24Z"/><path class="cls-3" d="M279.83,92.76s-3.16-2.9.43-7.09a3.1,3.1,0,0,0,.71-2.14,6.21,6.21,0,0,0,1.84,2.6s2.93,3.64.05,6.88C282.86,93,280.82,94.3,279.83,92.76Z"/><path class="cls-3" d="M283.61,92.56s1.38-4,6.74-2.54a3.22,3.22,0,0,0,2.28-.25A6.21,6.21,0,0,0,291,92.5s-2.16,4.13-6.35,2.89C284.62,95.38,282.6,94.08,283.61,92.56Z"/><path class="cls-3" d="M285,95.68s4.32,0,4.55,5.5a3.1,3.1,0,0,0,1,2.05,6.39,6.39,0,0,0-3.14-.69s-4.66-.73-4.77-5C282.55,97.51,283.18,95.21,285,95.68Z"/><path class="cls-3" d="M278.84,96.4s-3.89,1.86-6.56-3A3.15,3.15,0,0,0,270.5,92a6.39,6.39,0,0,0,3.13-.75s4.51-1.38,6.54,2.44C280.18,93.72,280.65,96.05,278.84,96.4Z"/><path class="cls-3" d="M282.53,98.11s1.12,4.11-4.18,5.79a3.17,3.17,0,0,0-1.75,1.45,6.11,6.11,0,0,0-.16-3.16s-.53-4.62,3.66-5.87C280.1,96.32,282.52,96.3,282.53,98.11Z"/><path class="cls-3" d="M281.83,92.78a2.27,2.27,0,1,0,2.3,2.27A2.29,2.29,0,0,0,281.83,92.78Zm0,3.73A1.46,1.46,0,1,1,283.31,95,1.47,1.47,0,0,1,281.83,96.51Z"/><path class="cls-3" d="M184.6,160.32s-3.16-2.9.43-7.09a3.09,3.09,0,0,0,.71-2.14,6.2,6.2,0,0,0,1.84,2.6s2.93,3.64.05,6.88C187.63,160.57,185.59,161.86,184.6,160.32Z"/><path class="cls-3" d="M188.38,160.12s1.38-4,6.73-2.54a3.22,3.22,0,0,0,2.28-.25,6.21,6.21,0,0,0-1.65,2.72s-2.16,4.13-6.35,2.89C189.39,162.94,187.36,161.64,188.38,160.12Z"/><path class="cls-3" d="M189.73,163.24s4.32,0,4.55,5.5a3.09,3.09,0,0,0,1,2.05,6.39,6.39,0,0,0-3.14-.69s-4.66-.73-4.77-5C187.32,165.07,187.94,162.77,189.73,163.24Z"/><path class="cls-3" d="M183.61,164s-3.89,1.86-6.56-3a3.16,3.16,0,0,0-1.78-1.42,6.4,6.4,0,0,0,3.13-.75s4.51-1.38,6.54,2.44C184.94,161.28,185.42,163.61,183.61,164Z"/><path class="cls-3" d="M187.3,165.67s1.12,4.11-4.18,5.79a3.17,3.17,0,0,0-1.75,1.45,6.11,6.11,0,0,0-.16-3.16s-.53-4.62,3.66-5.87C184.86,163.88,187.29,163.86,187.3,165.67Z"/><path class="cls-3" d="M186.6,160.34a2.27,2.27,0,1,0,2.3,2.27A2.29,2.29,0,0,0,186.6,160.34Zm0,3.73a1.46,1.46,0,1,1,1.48-1.46A1.47,1.47,0,0,1,186.6,164.07Z"/><path class="cls-2" d="M406.74,184.74s-4.87-4.46.66-10.91a4.76,4.76,0,0,0,1.09-3.3,9.54,9.54,0,0,0,2.83,4s4.52,5.61.08,10.59C411.4,185.13,408.26,187.11,406.74,184.74Z"/><path class="cls-2" d="M412.55,184.44s2.12-6.2,10.37-3.91a5,5,0,0,0,3.51-.38,9.54,9.54,0,0,0-2.54,4.19s-3.33,6.36-9.77,4.44C414.11,188.78,411,186.78,412.55,184.44Z"/><path class="cls-2" d="M414.63,189.24s6.65,0,7,8.47a4.77,4.77,0,0,0,1.47,3.16,9.84,9.84,0,0,0-4.84-1.07s-7.18-1.12-7.34-7.75C410.93,192.05,411.88,188.51,414.63,189.24Z"/><path class="cls-2" d="M405.21,190.35s-6,2.86-10.1-4.54a4.86,4.86,0,0,0-2.74-2.19,9.85,9.85,0,0,0,4.82-1.15s6.94-2.12,10.07,3.75C407.26,186.22,408,189.81,405.21,190.35Z"/><path class="cls-2" d="M410.89,193s1.73,6.32-6.43,8.91a4.88,4.88,0,0,0-2.7,2.23,9.41,9.41,0,0,0-.25-4.87s-.82-7.11,5.63-9C407.14,190.22,410.87,190.18,410.89,193Z"/><path class="cls-2" d="M409.81,184.77a3.49,3.49,0,1,0,3.55,3.49A3.52,3.52,0,0,0,409.81,184.77Zm0,5.74a2.25,2.25,0,1,1,2.29-2.25A2.27,2.27,0,0,1,409.81,190.51Z"/><path class="cls-2" d="M371.7,159.71s-3.16-2.9.43-7.08a3.1,3.1,0,0,0,.71-2.15,6.2,6.2,0,0,0,1.84,2.6s2.93,3.64.05,6.88C374.73,160,372.68,161.25,371.7,159.71Z"/><path class="cls-2" d="M375.47,159.52s1.38-4,6.74-2.54a3.22,3.22,0,0,0,2.28-.25,6.2,6.2,0,0,0-1.65,2.72s-2.16,4.13-6.35,2.89C376.49,162.34,374.46,161,375.47,159.52Z"/><path class="cls-2" d="M376.82,162.64s4.32,0,4.55,5.5a3.1,3.1,0,0,0,1,2.05,6.39,6.39,0,0,0-3.14-.69s-4.66-.73-4.77-5C374.42,164.46,375,162.16,376.82,162.64Z"/><path class="cls-2" d="M370.7,163.36s-3.89,1.86-6.56-3a3.16,3.16,0,0,0-1.78-1.42,6.4,6.4,0,0,0,3.13-.75s4.51-1.38,6.54,2.44C372,160.67,372.52,163,370.7,163.36Z"/><path class="cls-2" d="M374.39,165.07s1.12,4.11-4.18,5.79a3.17,3.17,0,0,0-1.75,1.45,6.11,6.11,0,0,0-.16-3.16s-.53-4.62,3.66-5.87C372,163.27,374.38,163.25,374.39,165.07Z"/><path class="cls-2" d="M373.69,159.73A2.27,2.27,0,1,0,376,162,2.29,2.29,0,0,0,373.69,159.73Zm0,3.73a1.46,1.46,0,1,1,1.48-1.46A1.47,1.47,0,0,1,373.69,163.46Z"/><path class="cls-2" d="M406.12,140.5s-3.16-2.9.43-7.09a3.1,3.1,0,0,0,.71-2.14,6.21,6.21,0,0,0,1.84,2.6s2.93,3.64.05,6.88C409.15,140.76,407.11,142,406.12,140.5Z"/><path class="cls-2" d="M409.9,140.31s1.38-4,6.73-2.54a3.22,3.22,0,0,0,2.28-.25,6.2,6.2,0,0,0-1.65,2.72s-2.16,4.13-6.35,2.89C410.91,143.13,408.88,141.83,409.9,140.31Z"/><path class="cls-2" d="M411.25,143.43s4.32,0,4.55,5.5a3.1,3.1,0,0,0,1,2.05,6.38,6.38,0,0,0-3.14-.69s-4.66-.73-4.77-5C408.84,145.26,409.46,143,411.25,143.43Z"/><path class="cls-2" d="M405.12,144.15s-3.89,1.86-6.56-3a3.16,3.16,0,0,0-1.78-1.42,6.4,6.4,0,0,0,3.13-.75s4.51-1.38,6.54,2.44C406.46,141.46,406.94,143.8,405.12,144.15Z"/><path class="cls-2" d="M408.81,145.86s1.12,4.11-4.18,5.79a3.17,3.17,0,0,0-1.75,1.45,6.12,6.12,0,0,0-.16-3.17s-.53-4.62,3.66-5.87C406.38,144.07,408.8,144,408.81,145.86Z"/><path class="cls-2" d="M408.11,140.53a2.27,2.27,0,1,0,2.3,2.27A2.29,2.29,0,0,0,408.11,140.53Zm0,3.73a1.46,1.46,0,1,1,1.48-1.46A1.47,1.47,0,0,1,408.11,144.25Z"/><path class="cls-2" d="M374.8,112.75s-3.16-2.9.43-7.08a3.1,3.1,0,0,0,.71-2.14,6.19,6.19,0,0,0,1.84,2.6s2.93,3.64.05,6.88C377.83,113,375.79,114.29,374.8,112.75Z"/><path class="cls-2" d="M378.58,112.56s1.38-4,6.73-2.54a3.22,3.22,0,0,0,2.28-.25,6.19,6.19,0,0,0-1.65,2.72s-2.16,4.13-6.35,2.89C379.59,115.38,377.56,114.08,378.58,112.56Z"/><path class="cls-2" d="M379.93,115.67s4.32,0,4.55,5.5a3.1,3.1,0,0,0,1,2.05,6.39,6.39,0,0,0-3.14-.69s-4.66-.73-4.77-5C377.52,117.5,378.14,115.2,379.93,115.67Z"/><path class="cls-2" d="M373.81,116.4s-3.89,1.86-6.56-3a3.15,3.15,0,0,0-1.78-1.42,6.4,6.4,0,0,0,3.13-.75s4.51-1.38,6.54,2.44C375.14,113.71,375.62,116,373.81,116.4Z"/><path class="cls-2" d="M377.5,118.11s1.12,4.11-4.18,5.79a3.17,3.17,0,0,0-1.75,1.45,6.11,6.11,0,0,0-.16-3.17s-.53-4.62,3.66-5.87C375.06,116.31,377.49,116.29,377.5,118.11Z"/><path class="cls-2" d="M376.8,112.77a2.27,2.27,0,1,0,2.3,2.27A2.29,2.29,0,0,0,376.8,112.77Zm0,3.73a1.46,1.46,0,1,1,1.48-1.46A1.47,1.47,0,0,1,376.8,116.5Z"/><path class="cls-2" d="M139.9,186.39s-4.87-4.46.66-10.91a4.76,4.76,0,0,0,1.09-3.3,9.54,9.54,0,0,0,2.83,4s4.51,5.61.08,10.6C144.56,186.79,141.42,188.76,139.9,186.39Z"/><path class="cls-2" d="M145.71,186.09s2.12-6.2,10.37-3.91a5,5,0,0,0,3.51-.38A9.54,9.54,0,0,0,157,186s-3.33,6.36-9.77,4.44C147.27,190.43,144.15,188.43,145.71,186.09Z"/><path class="cls-2" d="M147.79,190.89s6.65,0,7,8.47a4.77,4.77,0,0,0,1.47,3.16,9.83,9.83,0,0,0-4.84-1.07s-7.18-1.12-7.34-7.75C144.08,193.71,145,190.16,147.79,190.89Z"/><path class="cls-2" d="M138.36,192s-6,2.86-10.1-4.54a4.86,4.86,0,0,0-2.73-2.19,9.85,9.85,0,0,0,4.82-1.15s6.94-2.12,10.07,3.75C140.42,187.87,141.16,191.46,138.36,192Z"/><path class="cls-2" d="M144,194.64s1.73,6.32-6.43,8.91a4.88,4.88,0,0,0-2.7,2.23,9.42,9.42,0,0,0-.25-4.87s-.82-7.11,5.63-9C140.3,191.87,144,191.84,144,194.64Z"/><path class="cls-2" d="M143,186.43a3.49,3.49,0,1,0,3.55,3.49A3.52,3.52,0,0,0,143,186.43Zm0,5.74a2.25,2.25,0,1,1,2.29-2.25A2.27,2.27,0,0,1,143,192.17Z"/><path class="cls-2" d="M104.85,161.36s-3.16-2.9.43-7.08a3.1,3.1,0,0,0,.71-2.14,6.2,6.2,0,0,0,1.84,2.6s2.93,3.64.05,6.88C107.88,161.62,105.84,162.9,104.85,161.36Z"/><path class="cls-2" d="M108.63,161.17s1.38-4,6.73-2.54a3.22,3.22,0,0,0,2.28-.25A6.2,6.2,0,0,0,116,161.1s-2.16,4.13-6.35,2.89C109.64,164,107.61,162.69,108.63,161.17Z"/><path class="cls-2" d="M110,164.29s4.32,0,4.55,5.5a3.1,3.1,0,0,0,1,2.05,6.39,6.39,0,0,0-3.14-.69s-4.66-.73-4.77-5C107.57,166.12,108.2,163.81,110,164.29Z"/><path class="cls-2" d="M103.86,165s-3.89,1.86-6.56-3a3.16,3.16,0,0,0-1.78-1.42,6.39,6.39,0,0,0,3.13-.75s4.51-1.38,6.54,2.44C105.2,162.32,105.67,164.66,103.86,165Z"/><path class="cls-2" d="M107.55,166.72s1.12,4.11-4.17,5.79a3.17,3.17,0,0,0-1.76,1.45,6.12,6.12,0,0,0-.16-3.16s-.53-4.62,3.66-5.87C105.12,164.92,107.54,164.9,107.55,166.72Z"/><path class="cls-2" d="M106.85,161.38a2.27,2.27,0,1,0,2.3,2.27A2.29,2.29,0,0,0,106.85,161.38Zm0,3.73a1.46,1.46,0,1,1,1.48-1.46A1.47,1.47,0,0,1,106.85,165.11Z"/><path class="cls-2" d="M139.28,142.16s-3.16-2.9.43-7.09a3.1,3.1,0,0,0,.71-2.14,6.2,6.2,0,0,0,1.84,2.6s2.93,3.64.05,6.88C142.31,142.41,140.26,143.69,139.28,142.16Z"/><path class="cls-2" d="M143.05,142s1.38-4,6.73-2.54a3.22,3.22,0,0,0,2.28-.25,6.2,6.2,0,0,0-1.65,2.72s-2.16,4.13-6.35,2.89C144.07,144.78,142,143.48,143.05,142Z"/><path class="cls-2" d="M144.4,145.08s4.32,0,4.55,5.5a3.1,3.1,0,0,0,1,2.05,6.39,6.39,0,0,0-3.14-.69s-4.66-.73-4.77-5C142,146.91,142.62,144.6,144.4,145.08Z"/><path class="cls-2" d="M138.28,145.8s-3.89,1.86-6.56-3a3.15,3.15,0,0,0-1.78-1.42,6.41,6.41,0,0,0,3.13-.75s4.51-1.38,6.54,2.44C139.62,143.11,140.1,145.45,138.28,145.8Z"/><path class="cls-2" d="M142,147.51s1.12,4.11-4.18,5.79a3.17,3.17,0,0,0-1.75,1.45,6.12,6.12,0,0,0-.16-3.17s-.53-4.62,3.66-5.87C139.54,145.72,142,145.69,142,147.51Z"/><path class="cls-2" d="M141.27,142.18a2.27,2.27,0,1,0,2.3,2.27A2.29,2.29,0,0,0,141.27,142.18Zm0,3.73a1.46,1.46,0,1,1,1.48-1.46A1.47,1.47,0,0,1,141.27,145.91Z"/><path class="cls-2" d="M108,114.4s-3.16-2.9.43-7.09a3.09,3.09,0,0,0,.71-2.14,6.2,6.2,0,0,0,1.84,2.6s2.93,3.64.05,6.88C111,114.66,108.95,115.94,108,114.4Z"/><path class="cls-2" d="M111.74,114.21s1.38-4,6.73-2.54a3.22,3.22,0,0,0,2.28-.25,6.2,6.2,0,0,0-1.65,2.72s-2.16,4.13-6.35,2.89C112.75,117,110.72,115.73,111.74,114.21Z"/><path class="cls-2" d="M113.09,117.33s4.32,0,4.55,5.5a3.09,3.09,0,0,0,1,2.05,6.4,6.4,0,0,0-3.14-.69s-4.66-.73-4.77-5C110.68,119.16,111.3,116.85,113.09,117.33Z"/><path class="cls-2" d="M107,118.05s-3.89,1.86-6.56-3a3.16,3.16,0,0,0-1.78-1.42,6.4,6.4,0,0,0,3.13-.75s4.51-1.38,6.54,2.44C108.3,115.36,108.78,117.7,107,118.05Z"/><path class="cls-2" d="M110.65,119.76s1.12,4.11-4.18,5.79a3.17,3.17,0,0,0-1.75,1.45,6.1,6.1,0,0,0-.16-3.16s-.53-4.62,3.66-5.87C108.22,118,110.64,117.94,110.65,119.76Z"/><path class="cls-2" d="M110,114.43a2.27,2.27,0,1,0,2.3,2.27A2.29,2.29,0,0,0,110,114.43Zm0,3.73a1.46,1.46,0,1,1,1.48-1.46A1.47,1.47,0,0,1,110,118.15Z"/><path class="cls-2" d="M101.89,254.86S97,250.4,102.56,244a4.76,4.76,0,0,0,1.09-3.3,9.55,9.55,0,0,0,2.83,4s4.52,5.61.08,10.6C106.56,255.26,103.41,257.23,101.89,254.86Z"/><path class="cls-2" d="M107.71,254.56s2.12-6.2,10.37-3.91a5,5,0,0,0,3.51-.38,9.54,9.54,0,0,0-2.54,4.19s-3.33,6.36-9.77,4.44C109.27,258.9,106.14,256.9,107.71,254.56Z"/><path class="cls-2" d="M109.78,259.36s6.65,0,7,8.47a4.77,4.77,0,0,0,1.47,3.16,9.84,9.84,0,0,0-4.84-1.07s-7.18-1.12-7.34-7.75C106.08,262.18,107,258.63,109.78,259.36Z"/><path class="cls-2" d="M100.36,260.48s-6,2.86-10.1-4.54a4.86,4.86,0,0,0-2.74-2.19,9.86,9.86,0,0,0,4.82-1.15s6.94-2.12,10.07,3.75C102.42,256.34,103.15,259.93,100.36,260.48Z"/><path class="cls-2" d="M106,263.11s1.73,6.32-6.43,8.91a4.88,4.88,0,0,0-2.7,2.23,9.42,9.42,0,0,0-.25-4.87s-.82-7.11,5.63-9C102.3,260.35,106,260.31,106,263.11Z"/><path class="cls-2" d="M105,254.9a3.49,3.49,0,1,0,3.55,3.49A3.52,3.52,0,0,0,105,254.9Zm0,5.74a2.25,2.25,0,1,1,2.29-2.25A2.27,2.27,0,0,1,105,260.64Z"/><path class="cls-2" d="M66.85,229.83s-3.16-2.9.43-7.08a3.1,3.1,0,0,0,.71-2.14,6.2,6.2,0,0,0,1.84,2.6s2.93,3.64.05,6.88C69.88,230.09,67.84,231.37,66.85,229.83Z"/><path class="cls-2" d="M70.63,229.64s1.38-4,6.73-2.54a3.22,3.22,0,0,0,2.28-.25A6.21,6.21,0,0,0,78,229.57s-2.16,4.13-6.35,2.89C71.64,232.46,69.61,231.16,70.63,229.64Z"/><path class="cls-2" d="M72,232.76s4.32,0,4.55,5.5a3.09,3.09,0,0,0,1,2.05,6.39,6.39,0,0,0-3.14-.69s-4.66-.73-4.77-5C69.57,234.59,70.19,232.28,72,232.76Z"/><path class="cls-2" d="M60.65,228.36s4.51-1.38,6.54,2.44c0,0,.48,2.34-1.34,2.69"/><path class="cls-2" d="M63.46,239.26s-.53-4.62,3.66-5.87c0,0,2.42,0,2.43,1.79,0,0,1.12,4.11-4.17,5.79"/><path class="cls-2" d="M68.84,229.86a2.27,2.27,0,1,0,2.3,2.27A2.29,2.29,0,0,0,68.84,229.86Zm0,3.73a1.46,1.46,0,1,1,1.48-1.46A1.47,1.47,0,0,1,68.84,233.58Z"/><path class="cls-2" d="M101.27,210.63s-3.16-2.9.43-7.09a3.1,3.1,0,0,0,.71-2.14,6.2,6.2,0,0,0,1.84,2.6s2.93,3.64.05,6.88C104.3,210.88,102.26,212.16,101.27,210.63Z"/><path class="cls-2" d="M105.05,210.43s1.38-4,6.73-2.54a3.22,3.22,0,0,0,2.28-.25,6.21,6.21,0,0,0-1.65,2.72s-2.16,4.13-6.35,2.89C106.06,213.25,104,212,105.05,210.43Z"/><path class="cls-2" d="M106.4,213.55s4.32,0,4.55,5.5a3.1,3.1,0,0,0,1,2.05,6.4,6.4,0,0,0-3.14-.69s-4.66-.73-4.77-5C104,215.38,104.62,213.08,106.4,213.55Z"/><path class="cls-2" d="M100.28,214.27s-3.89,1.86-6.56-3a3.15,3.15,0,0,0-1.78-1.42,6.4,6.4,0,0,0,3.13-.75s4.51-1.38,6.54,2.44C101.61,211.59,102.09,213.92,100.28,214.27Z"/><path class="cls-2" d="M104,216s1.12,4.11-4.18,5.79A3.17,3.17,0,0,0,98,223.22a6.11,6.11,0,0,0-.16-3.16s-.53-4.62,3.66-5.87C101.54,214.19,104,214.16,104,216Z"/><path class="cls-2" d="M103.27,210.65a2.27,2.27,0,1,0,2.3,2.27A2.29,2.29,0,0,0,103.27,210.65Zm0,3.73a1.46,1.46,0,1,1,1.48-1.46A1.47,1.47,0,0,1,103.27,214.38Z"/><path class="cls-2" d="M70,182.88s-3.16-2.9.43-7.09a3.09,3.09,0,0,0,.71-2.14,6.21,6.21,0,0,0,1.84,2.6s2.93,3.64.05,6.88C73,183.13,70.95,184.41,70,182.88Z"/><path class="cls-2" d="M73.73,182.68s1.38-4,6.74-2.54a3.22,3.22,0,0,0,2.28-.25,6.19,6.19,0,0,0-1.65,2.72s-2.16,4.13-6.35,2.89C74.75,185.5,72.72,184.2,73.73,182.68Z"/><path class="cls-2" d="M75.08,185.8s4.32,0,4.55,5.5a3.09,3.09,0,0,0,1,2.05,6.39,6.39,0,0,0-3.14-.69s-4.66-.73-4.77-5C72.68,187.63,73.3,185.32,75.08,185.8Z"/><path class="cls-2" d="M63.76,181.4s4.51-1.38,6.54,2.44c0,0,.48,2.34-1.34,2.69,0,0-3.89,1.86-6.56-3"/><path class="cls-2" d="M72.65,188.23s1.12,4.11-4.18,5.79a3.17,3.17,0,0,0-1.75,1.45,6.1,6.1,0,0,0-.16-3.16s-.53-4.62,3.66-5.87C70.22,186.44,72.64,186.41,72.65,188.23Z"/><path class="cls-2" d="M72,182.9a2.27,2.27,0,1,0,2.3,2.27A2.29,2.29,0,0,0,72,182.9Zm0,3.73a1.46,1.46,0,1,1,1.48-1.46A1.47,1.47,0,0,1,72,186.62Z"/><path class="cls-2" d="M193.93,15.11s-4.87-4.46.66-10.9A4.76,4.76,0,0,0,195.68.9a9.55,9.55,0,0,0,2.83,4s4.52,5.61.08,10.6C198.59,15.5,195.45,17.48,193.93,15.11Z"/><path class="cls-2" d="M199.74,14.81s2.12-6.21,10.37-3.91a5,5,0,0,0,3.5-.38,9.54,9.54,0,0,0-2.54,4.19s-3.33,6.36-9.77,4.44C201.3,19.15,198.18,17.15,199.74,14.81Z"/><path class="cls-2" d="M201.82,19.61s6.65,0,7,8.47a4.77,4.77,0,0,0,1.47,3.16,9.84,9.84,0,0,0-4.84-1.07s-7.18-1.12-7.34-7.75C198.12,22.42,199.07,18.88,201.82,19.61Z"/><path class="cls-2" d="M192.4,20.72s-6,2.86-10.1-4.54A4.86,4.86,0,0,0,179.57,14a9.85,9.85,0,0,0,4.82-1.15s6.94-2.12,10.07,3.75C194.45,16.59,195.19,20.18,192.4,20.72Z"/><path class="cls-2" d="M198.08,23.35s1.73,6.32-6.43,8.91a4.88,4.88,0,0,0-2.7,2.23,9.42,9.42,0,0,0-.25-4.87s-.82-7.11,5.63-9C194.33,20.59,198.06,20.55,198.08,23.35Z"/><path class="cls-2" d="M197,15.14a3.49,3.49,0,1,0,3.55,3.49A3.52,3.52,0,0,0,197,15.14Zm0,5.74a2.25,2.25,0,1,1,2.29-2.25A2.27,2.27,0,0,1,197,20.88Z"/><path class="cls-2" d="M401,103s-3.16-2.9.43-7.09a3.1,3.1,0,0,0,.71-2.14,6.2,6.2,0,0,0,1.84,2.6s2.93,3.64.05,6.88C404,103.29,402,104.57,401,103Z"/><path class="cls-2" d="M404.75,102.84s1.38-4,6.74-2.54a3.23,3.23,0,0,0,2.28-.25,6.2,6.2,0,0,0-1.65,2.72s-2.16,4.13-6.35,2.89C405.76,105.66,403.73,104.36,404.75,102.84Z"/><path class="cls-2" d="M406.1,106s4.32,0,4.55,5.5a3.09,3.09,0,0,0,1,2.05,6.38,6.38,0,0,0-3.14-.69s-4.66-.73-4.77-5C403.69,107.78,404.31,105.48,406.1,106Z"/><path class="cls-2" d="M400,106.68s-3.89,1.86-6.56-3a3.15,3.15,0,0,0-1.78-1.42,6.39,6.39,0,0,0,3.13-.75s4.51-1.38,6.54,2.44C401.31,104,401.79,106.33,400,106.68Z"/><path class="cls-2" d="M403.67,108.39s1.12,4.11-4.17,5.79a3.17,3.17,0,0,0-1.75,1.45,6.11,6.11,0,0,0-.16-3.16s-.53-4.62,3.66-5.87C401.23,106.59,403.66,106.57,403.67,108.39Z"/><path class="cls-2" d="M403,103.05a2.27,2.27,0,1,0,2.3,2.27A2.29,2.29,0,0,0,403,103.05Zm0,3.73a1.46,1.46,0,1,1,1.48-1.46A1.47,1.47,0,0,1,403,106.78Z"/><path class="cls-2" d="M337.73,101.84s-3.16-2.9.43-7.08a3.1,3.1,0,0,0,.71-2.14,6.21,6.21,0,0,0,1.84,2.6s2.93,3.64.05,6.88C340.76,102.1,338.72,103.38,337.73,101.84Z"/><path class="cls-2" d="M341.5,101.65s1.38-4,6.73-2.54a3.22,3.22,0,0,0,2.28-.25,6.2,6.2,0,0,0-1.65,2.72s-2.16,4.13-6.35,2.89C342.52,104.47,340.49,103.17,341.5,101.65Z"/><path class="cls-2" d="M342.85,104.76s4.32,0,4.55,5.5a3.1,3.1,0,0,0,1,2.05,6.38,6.38,0,0,0-3.14-.69s-4.66-.73-4.77-5C340.45,106.59,341.07,104.29,342.85,104.76Z"/><path class="cls-2" d="M336.73,105.49s-3.89,1.86-6.56-3a3.16,3.16,0,0,0-1.78-1.42,6.39,6.39,0,0,0,3.13-.75S336,99,338.07,102.8C338.07,102.8,338.55,105.14,336.73,105.49Z"/><path class="cls-2" d="M340.42,107.2s1.13,4.11-4.17,5.79a3.17,3.17,0,0,0-1.75,1.45,6.11,6.11,0,0,0-.16-3.16s-.53-4.62,3.66-5.87C338,105.4,340.41,105.38,340.42,107.2Z"/><path class="cls-2" d="M339.72,101.86a2.27,2.27,0,1,0,2.3,2.27A2.29,2.29,0,0,0,339.72,101.86Zm0,3.73a1.46,1.46,0,1,1,1.48-1.46A1.47,1.47,0,0,1,339.72,105.59Z"/><path class="cls-2" d="M329.53,24.05s-3.16-2.9.43-7.08a3.1,3.1,0,0,0,.71-2.14,6.19,6.19,0,0,0,1.84,2.6s2.93,3.64.05,6.88C332.56,24.31,330.52,25.59,329.53,24.05Z"/><path class="cls-2" d="M333.31,23.86s1.38-4,6.73-2.54a3.22,3.22,0,0,0,2.28-.25,6.2,6.2,0,0,0-1.65,2.72s-2.16,4.13-6.35,2.89C334.32,26.68,332.29,25.38,333.31,23.86Z"/><path class="cls-2" d="M334.66,27s4.32,0,4.55,5.5a3.1,3.1,0,0,0,1,2.05,6.39,6.39,0,0,0-3.14-.69s-4.66-.73-4.77-5C332.25,28.8,332.87,26.5,334.66,27Z"/><path class="cls-2" d="M328.54,27.7s-3.89,1.86-6.56-3a3.15,3.15,0,0,0-1.78-1.42,6.4,6.4,0,0,0,3.13-.75s4.51-1.38,6.54,2.44C329.87,25,330.35,27.35,328.54,27.7Z"/><path class="cls-2" d="M332.23,29.41s1.12,4.11-4.17,5.79a3.17,3.17,0,0,0-1.76,1.45,6.12,6.12,0,0,0-.16-3.17s-.53-4.62,3.66-5.87C329.79,27.61,332.21,27.59,332.23,29.41Z"/><path class="cls-2" d="M331.52,24.07a2.27,2.27,0,1,0,2.3,2.27A2.29,2.29,0,0,0,331.52,24.07Zm0,3.73A1.46,1.46,0,1,1,333,26.34,1.47,1.47,0,0,1,331.52,27.8Z"/><path class="cls-2" d="M256,51.22s-3.16-2.9.43-7.08a3.1,3.1,0,0,0,.71-2.14,6.21,6.21,0,0,0,1.84,2.6s2.93,3.64.05,6.88C259,51.47,257,52.75,256,51.22Z"/><path class="cls-2" d="M259.77,51s1.38-4,6.74-2.54a3.22,3.22,0,0,0,2.28-.25A6.21,6.21,0,0,0,267.14,51s-2.16,4.13-6.35,2.89C260.79,53.84,258.76,52.54,259.77,51Z"/><path class="cls-2" d="M261.12,54.14s4.32,0,4.55,5.5a3.09,3.09,0,0,0,1,2.05,6.39,6.39,0,0,0-3.14-.69s-4.66-.73-4.77-5C258.72,56,259.34,53.66,261.12,54.14Z"/><path class="cls-2" d="M255,54.86s-3.89,1.86-6.56-3a3.15,3.15,0,0,0-1.78-1.42,6.39,6.39,0,0,0,3.13-.75s4.51-1.38,6.54,2.44C256.34,52.17,256.82,54.51,255,54.86Z"/><path class="cls-2" d="M258.69,56.57s1.12,4.11-4.17,5.79a3.17,3.17,0,0,0-1.75,1.45,6.11,6.11,0,0,0-.16-3.16s-.53-4.62,3.66-5.87C256.26,54.78,258.68,54.75,258.69,56.57Z"/><path class="cls-2" d="M258,51.24a2.27,2.27,0,1,0,2.3,2.27A2.29,2.29,0,0,0,258,51.24ZM258,55a1.46,1.46,0,1,1,1.48-1.46A1.47,1.47,0,0,1,258,55Z"/><path class="cls-2" d="M328.56,302.5s-3.16-2.9.43-7.08a3.09,3.09,0,0,0,.71-2.14,6.2,6.2,0,0,0,1.84,2.6s2.93,3.64.05,6.88C331.58,302.75,329.54,304,328.56,302.5Z"/><path class="cls-2" d="M332.33,302.3s1.38-4,6.73-2.54a3.22,3.22,0,0,0,2.28-.25,6.21,6.21,0,0,0-1.65,2.72s-2.16,4.13-6.35,2.89C333.34,305.12,331.32,303.82,332.33,302.3Z"/><path class="cls-2" d="M333.68,305.42s4.32,0,4.55,5.5a3.1,3.1,0,0,0,1,2.05,6.4,6.4,0,0,0-3.14-.69s-4.66-.73-4.77-5C331.28,307.25,331.9,304.94,333.68,305.42Z"/><path class="cls-2" d="M327.56,306.14s-3.89,1.86-6.56-3a3.15,3.15,0,0,0-1.78-1.42,6.4,6.4,0,0,0,3.13-.75s4.51-1.38,6.54,2.44C328.9,303.45,329.37,305.79,327.56,306.14Z"/><path class="cls-2" d="M331.25,307.85s1.12,4.11-4.17,5.79a3.17,3.17,0,0,0-1.75,1.45,6.12,6.12,0,0,0-.16-3.16s-.53-4.62,3.66-5.87C328.82,306.06,331.24,306,331.25,307.85Z"/><path class="cls-2" d="M330.55,302.52a2.27,2.27,0,1,0,2.3,2.27A2.29,2.29,0,0,0,330.55,302.52Zm0,3.73a1.46,1.46,0,1,1,1.48-1.46A1.47,1.47,0,0,1,330.55,306.24Z"/><path class="cls-2" d="M293.18,245.87s-3.16-2.9.43-7.08a3.1,3.1,0,0,0,.71-2.15,6.2,6.2,0,0,0,1.84,2.6s2.93,3.64.05,6.88C296.21,246.13,294.16,247.41,293.18,245.87Z"/><path class="cls-2" d="M297,245.68s1.38-4,6.74-2.54a3.22,3.22,0,0,0,2.28-.25,6.2,6.2,0,0,0-1.65,2.72s-2.16,4.13-6.35,2.89C298,248.5,295.94,247.2,297,245.68Z"/><path class="cls-2" d="M298.3,248.79s4.32,0,4.55,5.5a3.09,3.09,0,0,0,1,2.05,6.39,6.39,0,0,0-3.14-.69s-4.66-.73-4.77-5C295.9,250.62,296.52,248.32,298.3,248.79Z"/><path class="cls-2" d="M292.18,249.52s-3.89,1.86-6.56-3a3.16,3.16,0,0,0-1.78-1.42,6.39,6.39,0,0,0,3.13-.75s4.51-1.38,6.54,2.44C293.52,246.83,294,249.17,292.18,249.52Z"/><path class="cls-2" d="M295.87,251.23s1.12,4.11-4.17,5.79a3.17,3.17,0,0,0-1.76,1.45,6.11,6.11,0,0,0-.16-3.16s-.53-4.62,3.66-5.87C293.44,249.43,295.86,249.41,295.87,251.23Z"/><path class="cls-2" d="M295.17,245.89a2.27,2.27,0,1,0,2.3,2.27A2.29,2.29,0,0,0,295.17,245.89Zm0,3.73a1.46,1.46,0,1,1,1.48-1.46A1.47,1.47,0,0,1,295.17,249.62Z"/><path class="cls-2" d="M199.91,235s-3.16-2.9.43-7.08a3.1,3.1,0,0,0,.71-2.14,6.21,6.21,0,0,0,1.84,2.6s2.93,3.64.05,6.88C202.94,235.22,200.9,236.5,199.91,235Z"/><path class="cls-2" d="M203.68,234.77s1.38-4,6.74-2.54a3.22,3.22,0,0,0,2.28-.25A6.2,6.2,0,0,0,211,234.7s-2.16,4.13-6.35,2.89C204.7,237.59,202.67,236.29,203.68,234.77Z"/><path class="cls-2" d="M205,237.88s4.32,0,4.55,5.5a3.09,3.09,0,0,0,1,2.05,6.39,6.39,0,0,0-3.14-.69s-4.66-.73-4.77-5C202.63,239.71,203.25,237.41,205,237.88Z"/><path class="cls-2" d="M198.91,238.61s-3.89,1.86-6.56-3a3.15,3.15,0,0,0-1.78-1.42,6.39,6.39,0,0,0,3.13-.75s4.51-1.38,6.54,2.44C200.25,235.92,200.73,238.25,198.91,238.61Z"/><path class="cls-2" d="M202.6,240.32s1.12,4.11-4.17,5.79a3.17,3.17,0,0,0-1.75,1.45,6.11,6.11,0,0,0-.16-3.16s-.53-4.62,3.66-5.87C200.17,238.52,202.59,238.5,202.6,240.32Z"/><path class="cls-2" d="M201.9,235a2.27,2.27,0,1,0,2.3,2.27A2.29,2.29,0,0,0,201.9,235Zm0,3.73a1.46,1.46,0,1,1,1.48-1.46A1.47,1.47,0,0,1,201.9,238.71Z"/><path class="cls-2" d="M387.62,224s-3.16-2.9.43-7.08a3.09,3.09,0,0,0,.71-2.14,6.21,6.21,0,0,0,1.84,2.6s2.93,3.64.05,6.88C390.65,224.31,388.61,225.59,387.62,224Z"/><path class="cls-2" d="M391.4,223.85s1.38-4,6.73-2.54a3.23,3.23,0,0,0,2.28-.25,6.2,6.2,0,0,0-1.65,2.72s-2.16,4.13-6.35,2.89C392.41,226.67,390.39,225.37,391.4,223.85Z"/><path class="cls-2" d="M392.75,227s4.32,0,4.55,5.5a3.1,3.1,0,0,0,1,2.05,6.39,6.39,0,0,0-3.14-.69s-4.66-.73-4.77-5C390.34,228.8,391,226.5,392.75,227Z"/><path class="cls-2" d="M386.63,227.7s-3.89,1.86-6.56-3a3.15,3.15,0,0,0-1.78-1.42,6.4,6.4,0,0,0,3.13-.75s4.51-1.38,6.54,2.44C388,225,388.44,227.34,386.63,227.7Z"/><path class="cls-2" d="M390.32,229.4s1.12,4.11-4.17,5.79a3.17,3.17,0,0,0-1.75,1.45,6.12,6.12,0,0,0-.16-3.16s-.53-4.62,3.66-5.87C387.89,227.61,390.31,227.59,390.32,229.4Z"/><path class="cls-2" d="M389.62,224.07a2.27,2.27,0,1,0,2.3,2.27A2.29,2.29,0,0,0,389.62,224.07Zm0,3.73a1.46,1.46,0,1,1,1.48-1.46A1.47,1.47,0,0,1,389.62,227.8Z"/><path class="cls-2" d="M227,23.76s-3.16-2.9.43-7.08a3.1,3.1,0,0,0,.71-2.15,6.21,6.21,0,0,0,1.84,2.6s2.93,3.64.05,6.88C230.07,24,228,25.3,227,23.76Z"/><path class="cls-2" d="M230.82,23.56s1.38-4,6.73-2.54a3.22,3.22,0,0,0,2.28-.25,6.2,6.2,0,0,0-1.65,2.72s-2.16,4.13-6.35,2.89C231.83,26.38,229.81,25.08,230.82,23.56Z"/><path class="cls-2" d="M232.17,26.68s4.32,0,4.55,5.5a3.1,3.1,0,0,0,1,2.05,6.39,6.39,0,0,0-3.14-.69s-4.66-.73-4.77-5C229.77,28.51,230.39,26.21,232.17,26.68Z"/><path class="cls-2" d="M226.05,27.4s-3.89,1.86-6.56-3A3.16,3.16,0,0,0,217.72,23a6.39,6.39,0,0,0,3.13-.75s4.51-1.38,6.54,2.44C227.39,24.72,227.86,27.05,226.05,27.4Z"/><path class="cls-2" d="M229.74,29.11s1.12,4.11-4.17,5.79a3.17,3.17,0,0,0-1.75,1.45,6.12,6.12,0,0,0-.16-3.16s-.53-4.62,3.66-5.87C227.31,27.32,229.73,27.29,229.74,29.11Z"/><path class="cls-2" d="M229,23.78a2.27,2.27,0,1,0,2.3,2.27A2.29,2.29,0,0,0,229,23.78Zm0,3.73A1.46,1.46,0,1,1,230.52,26,1.47,1.47,0,0,1,229,27.51Z"/><path class="cls-2" d="M174.75,38.72s-3.16-2.9.43-7.08a3.09,3.09,0,0,0,.71-2.14,6.2,6.2,0,0,0,1.84,2.6s2.93,3.64.05,6.88C177.78,39,175.74,40.26,174.75,38.72Z"/><path class="cls-2" d="M178.53,38.52s1.38-4,6.73-2.54a3.22,3.22,0,0,0,2.28-.25,6.21,6.21,0,0,0-1.65,2.72s-2.16,4.13-6.35,2.89C179.54,41.34,177.51,40,178.53,38.52Z"/><path class="cls-2" d="M179.88,41.64s4.32,0,4.55,5.5a3.09,3.09,0,0,0,1,2.05,6.39,6.39,0,0,0-3.14-.69s-4.66-.73-4.77-5C177.47,43.47,178.09,41.17,179.88,41.64Z"/><path class="cls-2" d="M173.76,42.36s-3.89,1.86-6.56-3A3.15,3.15,0,0,0,165.42,38a6.4,6.4,0,0,0,3.13-.75s4.51-1.38,6.54,2.44C175.09,39.68,175.57,42,173.76,42.36Z"/><path class="cls-2" d="M177.44,44.07s1.13,4.11-4.17,5.79a3.17,3.17,0,0,0-1.75,1.45,6.11,6.11,0,0,0-.16-3.17s-.53-4.62,3.66-5.87C175,42.28,177.43,42.25,177.44,44.07Z"/><path class="cls-2" d="M176.74,38.74A2.27,2.27,0,1,0,179,41,2.29,2.29,0,0,0,176.74,38.74Zm0,3.73A1.46,1.46,0,1,1,178.23,41,1.47,1.47,0,0,1,176.74,42.47Z"/><path class="cls-2" d="M121.59,57s-3.16-2.9.43-7.08a3.09,3.09,0,0,0,.71-2.14,6.21,6.21,0,0,0,1.84,2.6s2.93,3.64.05,6.88C124.62,57.29,122.58,58.57,121.59,57Z"/><path class="cls-2" d="M125.37,56.84s1.38-4,6.73-2.54a3.22,3.22,0,0,0,2.28-.25,6.2,6.2,0,0,0-1.65,2.72s-2.16,4.13-6.35,2.89C126.38,59.66,124.36,58.36,125.37,56.84Z"/><path class="cls-2" d="M126.72,60s4.32,0,4.55,5.5a3.09,3.09,0,0,0,1,2.05,6.39,6.39,0,0,0-3.14-.69s-4.66-.73-4.77-5C124.31,61.79,124.94,59.48,126.72,60Z"/><path class="cls-2" d="M120.6,60.68s-3.89,1.86-6.56-3a3.15,3.15,0,0,0-1.78-1.42,6.39,6.39,0,0,0,3.13-.75s4.51-1.38,6.54,2.44C121.93,58,122.41,60.33,120.6,60.68Z"/><path class="cls-2" d="M124.29,62.39s1.12,4.11-4.17,5.79a3.17,3.17,0,0,0-1.75,1.45,6.12,6.12,0,0,0-.16-3.16s-.53-4.62,3.66-5.87C121.86,60.6,124.28,60.57,124.29,62.39Z"/><path class="cls-2" d="M123.59,57.06a2.27,2.27,0,1,0,2.3,2.27A2.29,2.29,0,0,0,123.59,57.06Zm0,3.73a1.46,1.46,0,1,1,1.48-1.46A1.47,1.47,0,0,1,123.59,60.79Z"/><path class="cls-2" d="M90.57,67.66s-3.16-2.9.43-7.08a3.1,3.1,0,0,0,.71-2.14A6.2,6.2,0,0,0,93.55,61s2.93,3.64.05,6.88C93.6,67.92,91.56,69.2,90.57,67.66Z"/><path class="cls-2" d="M94.35,67.47s1.38-4,6.74-2.54a3.22,3.22,0,0,0,2.28-.25,6.21,6.21,0,0,0-1.65,2.72s-2.16,4.13-6.35,2.89C95.36,70.29,93.33,69,94.35,67.47Z"/><path class="cls-2" d="M95.7,70.59s4.32,0,4.55,5.5a3.1,3.1,0,0,0,1,2.05,6.39,6.39,0,0,0-3.14-.69s-4.66-.73-4.77-5C93.29,72.42,93.91,70.11,95.7,70.59Z"/><path class="cls-2" d="M89.58,71.31s-3.89,1.86-6.56-3a3.16,3.16,0,0,0-1.78-1.42,6.4,6.4,0,0,0,3.13-.75s4.51-1.38,6.54,2.44C90.91,68.62,91.39,71,89.58,71.31Z"/><path class="cls-2" d="M93.27,73s1.12,4.11-4.17,5.79a3.17,3.17,0,0,0-1.76,1.45,6.11,6.11,0,0,0-.16-3.16s-.53-4.62,3.66-5.87C90.83,71.22,93.26,71.2,93.27,73Z"/><path class="cls-2" d="M92.56,67.69A2.27,2.27,0,1,0,94.87,70,2.29,2.29,0,0,0,92.56,67.69Zm0,3.73A1.46,1.46,0,1,1,94,70,1.47,1.47,0,0,1,92.56,71.41Z"/><path class="cls-2" d="M76.12,87.76s-3.16-2.9.43-7.08a3.1,3.1,0,0,0,.71-2.14,6.2,6.2,0,0,0,1.84,2.6S82,84.78,79.15,88C79.15,88,77.11,89.3,76.12,87.76Z"/><path class="cls-2" d="M79.89,87.57s1.38-4,6.73-2.54a3.23,3.23,0,0,0,2.28-.25,6.21,6.21,0,0,0-1.65,2.72s-2.16,4.13-6.35,2.89C80.91,90.39,78.88,89.09,79.89,87.57Z"/><path class="cls-2" d="M81.25,90.69s4.32,0,4.55,5.5a3.1,3.1,0,0,0,1,2.05,6.39,6.39,0,0,0-3.14-.69s-4.66-.73-4.77-5C78.84,92.52,79.46,90.21,81.25,90.69Z"/><path class="cls-2" d="M75.12,91.41s-3.89,1.86-6.56-3A3.16,3.16,0,0,0,66.79,87a6.4,6.4,0,0,0,3.13-.75s4.51-1.38,6.54,2.44C76.46,88.72,76.94,91.06,75.12,91.41Z"/><path class="cls-2" d="M78.81,93.12s1.12,4.11-4.17,5.79a3.17,3.17,0,0,0-1.76,1.45,6.11,6.11,0,0,0-.16-3.16s-.53-4.62,3.66-5.87C76.38,91.33,78.8,91.3,78.81,93.12Z"/><path class="cls-2" d="M78.11,87.79a2.27,2.27,0,1,0,2.3,2.27A2.29,2.29,0,0,0,78.11,87.79Zm0,3.73a1.46,1.46,0,1,1,1.48-1.46A1.47,1.47,0,0,1,78.11,91.51Z"/><path class="cls-2" d="M381.21,79s-3.16-2.9.43-7.09a3.1,3.1,0,0,0,.71-2.14,6.2,6.2,0,0,0,1.84,2.6s2.93,3.64.05,6.88C384.24,79.22,382.2,80.51,381.21,79Z"/><path class="cls-2" d="M385,78.77s1.38-4,6.73-2.54A3.22,3.22,0,0,0,394,76a6.2,6.2,0,0,0-1.65,2.72s-2.16,4.13-6.35,2.89C386,81.59,384,80.29,385,78.77Z"/><path class="cls-2" d="M386.34,81.89s4.32,0,4.55,5.5a3.1,3.1,0,0,0,1,2.05,6.4,6.4,0,0,0-3.14-.69s-4.66-.73-4.77-5C383.93,83.72,384.56,81.42,386.34,81.89Z"/><path class="cls-2" d="M380.22,82.61s-3.89,1.86-6.56-3a3.16,3.16,0,0,0-1.78-1.42,6.41,6.41,0,0,0,3.13-.75s4.51-1.38,6.54,2.44C381.55,79.93,382,82.26,380.22,82.61Z"/><path class="cls-2" d="M383.91,84.32s1.12,4.11-4.18,5.79A3.17,3.17,0,0,0,378,91.56a6.12,6.12,0,0,0-.16-3.16s-.53-4.62,3.66-5.87C381.47,82.53,383.9,82.5,383.91,84.32Z"/><path class="cls-2" d="M383.21,79a2.27,2.27,0,1,0,2.3,2.27A2.29,2.29,0,0,0,383.21,79Zm0,3.73a1.46,1.46,0,1,1,1.48-1.46A1.47,1.47,0,0,1,383.21,82.72Z"/><path class="cls-2" d="M299.17,13.14s-3.16-2.9.43-7.09a3.1,3.1,0,0,0,.71-2.14,6.2,6.2,0,0,0,1.84,2.6s2.93,3.64.05,6.88C302.2,13.4,300.15,14.68,299.17,13.14Z"/><path class="cls-2" d="M302.94,12.95s1.38-4,6.73-2.54a3.22,3.22,0,0,0,2.28-.25,6.19,6.19,0,0,0-1.65,2.72S308.15,17,304,15.77C304,15.77,301.93,14.47,302.94,12.95Z"/><path class="cls-2" d="M304.29,16.07s4.32,0,4.55,5.5a3.1,3.1,0,0,0,1,2.05,6.39,6.39,0,0,0-3.14-.69s-4.66-.73-4.77-5C301.89,17.89,302.51,15.59,304.29,16.07Z"/><path class="cls-2" d="M298.17,16.79s-3.89,1.86-6.56-3a3.16,3.16,0,0,0-1.78-1.42,6.4,6.4,0,0,0,3.13-.75s4.51-1.38,6.54,2.44C299.51,14.1,300,16.44,298.17,16.79Z"/><path class="cls-2" d="M301.86,18.5s1.13,4.11-4.18,5.79a3.17,3.17,0,0,0-1.75,1.45,6.1,6.1,0,0,0-.16-3.16s-.53-4.62,3.66-5.87C299.43,16.7,301.85,16.68,301.86,18.5Z"/><path class="cls-2" d="M301.16,13.16a2.27,2.27,0,1,0,2.3,2.27A2.29,2.29,0,0,0,301.16,13.16Zm0,3.73a1.46,1.46,0,1,1,1.48-1.46A1.47,1.47,0,0,1,301.16,16.89Z"/><path class="cls-3" d="M144.2,216.53s-5.72-14.92,13.43-23.1c0,0,3.63-1.24,6-6a23,23,0,0,0,1.78,11.75s3.69,17-11.47,23.21C153.95,222.36,144.92,223.32,144.2,216.53Z"/><path class="cls-3" d="M157.22,222.06s11.45-11.29,26.93,2.5c0,0,2.64,2.75,8.08,2.89a23.75,23.75,0,0,0-10.15,6.44s-14.25,10.35-26.22-.7C155.85,233.2,151.24,225.51,157.22,222.06Z"/><path class="cls-3" d="M156.48,234.76s14.47,7.18,6,26c0,0-1.83,3.33-.27,8.45a23.57,23.57,0,0,0-9.39-7.47S138.37,251.6,145.3,237C145.3,237,151.29,230.24,156.48,234.76Z"/><path class="cls-3" d="M134.69,227.16s-16.2-.13-17-20.66c0,0,.14-3.78-3.56-7.7a24,24,0,0,0,11.78,2.61s17.49,2.76,17.86,18.91C143.72,220.32,141.38,228.95,134.69,227.16Z"/><path class="cls-3" d="M144.2,238.94s-3.17,15.64-23.82,12.61c0,0-3.75-.84-8.35,2a23.13,23.13,0,0,0,4.81-10.9s6-16.39,22.22-13.72C139.06,228.93,147.23,232.81,144.2,238.94Z"/><path class="cls-3" d="M150.86,219.87a8.7,8.7,0,0,0-11.58,3.84,8.44,8.44,0,0,0,3.91,11.39,8.7,8.7,0,0,0,11.58-3.84A8.44,8.44,0,0,0,150.86,219.87Zm-6.31,12.53a5.44,5.44,0,0,1-2.52-7.34,5.61,5.61,0,0,1,7.46-2.48,5.44,5.44,0,0,1,2.52,7.34A5.61,5.61,0,0,1,144.55,232.4Z"/><path class="cls-2" d="M337,50.84S331.85,37.38,349.13,30a10.68,10.68,0,0,0,5.42-5.46,20.71,20.71,0,0,0,1.6,10.61s3.33,15.38-10.35,20.95C345.81,56.09,337.66,57,337,50.84Z"/><path class="cls-2" d="M348.76,55.83s10.33-10.18,24.29,2.26c0,0,2.39,2.48,7.29,2.61a21.43,21.43,0,0,0-9.15,5.81s-12.86,9.34-23.66-.63C347.53,65.88,343.36,58.94,348.76,55.83Z"/><path class="cls-2" d="M348.1,67.28s13.06,6.48,5.4,23.42c0,0-1.65,3-.24,7.63a21.27,21.27,0,0,0-8.47-6.74s-13-9.11-6.78-22.32C338,69.27,343.41,63.21,348.1,67.28Z"/><path class="cls-2" d="M328.43,60.43s-14.62-.12-15.38-18.65c0,0,.13-3.41-3.21-6.95a21.64,21.64,0,0,0,10.63,2.36s15.78,2.49,16.11,17.06C336.58,54.26,334.47,62,328.43,60.43Z"/><path class="cls-2" d="M337,71.06s-2.86,14.11-21.49,11.38a10.88,10.88,0,0,0-7.53,1.8,20.88,20.88,0,0,0,4.34-9.83s5.44-14.79,20-12.38C332.37,62,339.75,65.53,337,71.06Z"/><path class="cls-2" d="M343,53.85a7.85,7.85,0,0,0-10.45,3.47A7.62,7.62,0,0,0,336.1,67.6a7.85,7.85,0,0,0,10.45-3.47A7.62,7.62,0,0,0,343,53.85Zm-5.69,11.31a4.91,4.91,0,0,1-2.27-6.63,5.06,5.06,0,0,1,6.73-2.24,4.91,4.91,0,0,1,2.27,6.63A5.06,5.06,0,0,1,337.33,65.16Z"/><path class="cls-2" d="M346.7,261.36c-36.15,61.61-67.61,8,4.69,8-72.29,0-40.83-53.63-4.69,8-36.15-61.61,26.78-61.61-9.37,0,36.15-61.61,67.61-8-4.69-8,72.29,0,40.83,53.63,4.69-8C373.48,323,310.55,323,346.7,261.36Z"/><path class="cls-2" d="M432.52,153.48c-25.14,42.86-47,5.56,3.26,5.56-50.29,0-28.4-37.3-3.26,5.56-25.14-42.86,18.63-42.86-6.52,0,25.14-42.86,47-5.56-3.26-5.56,50.29,0,28.4,37.3,3.26-5.56C451.14,196.34,407.37,196.34,432.52,153.48Z"/><path class="cls-2" d="M213.8,134.85c-25.14,42.86-47,5.56,3.26,5.56-50.29,0-28.4-37.3-3.26,5.56-25.14-42.86,18.63-42.86-6.52,0,25.14-42.86,47-5.56-3.26-5.56,50.29,0,28.4,37.3,3.26-5.56C232.42,177.7,188.65,177.7,213.8,134.85Z"/><path class="cls-2" d="M273.76,201.62c-25.14,42.86-47,5.56,3.26,5.56-50.29,0-28.4-37.3-3.26,5.56-25.14-42.86,18.63-42.86-6.52,0,25.14-42.86,47-5.56-3.26-5.56,50.29,0,28.4,37.3,3.26-5.56C292.39,244.48,248.62,244.48,273.76,201.62Z"/><path class="cls-2" d="M287.11,62.13c-25.14,42.86-47,5.56,3.26,5.56-50.29,0-28.4-37.3-3.26,5.56-25.14-42.86,18.63-42.86-6.52,0,25.14-42.86,47-5.56-3.26-5.56,50.29,0,28.4,37.3,3.26-5.56C305.73,105,262,105,287.11,62.13Z"/><path class="cls-2" d="M106.62,136c-25.14,42.86-47,5.56,3.26,5.56-50.29,0-28.4-37.3-3.26,5.56-25.14-42.86,18.63-42.86-6.52,0,25.14-42.86,47-5.56-3.26-5.56,50.29,0,28.4,37.3,3.26-5.56C125.25,178.9,81.48,178.9,106.62,136Z"/><path class="cls-2" d="M221,236.07c-25.14,42.86-47,5.56,3.26,5.56-50.29,0-28.4-37.3-3.26,5.56-25.14-42.86,18.63-42.86-6.52,0,25.14-42.86,47-5.56-3.26-5.56,50.29,0,28.4,37.3,3.26-5.56C239.6,278.93,195.83,278.93,221,236.07Z"/><path class="cls-2" d="M169.64,91.76c-25.14,42.86-47,5.56,3.26,5.56-50.29,0-28.4-37.3-3.26,5.56-25.14-42.86,18.63-42.86-6.52,0,25.14-42.86,47-5.56-3.26-5.56,50.29,0,28.4,37.3,3.26-5.56C188.27,134.62,144.5,134.62,169.64,91.76Z"/><path class="cls-2" d="M259.7,12.75c-15.25,26-28.52,3.37,2,3.37-30.49,0-17.22-22.62-2,3.37-15.25-26,11.29-26-4,0,15.25-26,28.52-3.37-2-3.37,30.49,0,17.22,22.62,2-3.37C271,38.74,244.46,38.74,259.7,12.75Z"/><path class="cls-2" d="M260.38,14.74c-20.48,10.65-19.72-9.18-.11,3-19.61-12.13-1.79-21.4-2.65,1.38.87-22.78,17.94-12.22-2.54-1.57,20.48-10.65,19.72,9.18.11-3,19.61,12.13,1.79,21.4,2.65-1.38C257,35.95,239.9,25.39,260.38,14.74Z"/><path class="cls-2" d="M360.83,146.69c-44.38,75.65-83,9.8,5.75,9.8-88.76,0-50.13-65.84-5.75,9.81-44.38-75.65,32.87-75.65-11.51,0,44.38-75.65,83-9.81-5.75-9.81,88.76,0,50.13,65.84,5.75-9.8C393.71,222.33,316.45,222.33,360.83,146.69Z"/></svg>