# Blender v2.78 (sub 0) OBJ File: ''
# www.blender.org
mtllib Brown_Cliff_End_Green_Top_01.mtl
o Mesh1_Brown_Cliff_End_Green_Top_Model
v 0.500000 0.000000 -3.000000
v -0.640000 0.000000 -3.000000
v -0.280000 2.200001 -3.000000
v 0.500000 2.200001 -3.000000
v -0.277341 0.000000 -1.274920
v -0.640000 0.000000 -1.924320
v -0.493829 0.000000 -2.387190
v 0.500000 0.000000 -0.000000
v -0.640000 -0.000000 -0.000000
v -0.521050 0.000000 -0.371864
v -0.640000 0.000000 -0.701031
v 0.002085 1.707600 -1.274920
v -0.360574 1.707600 -1.924320
v -0.055886 1.353340 -1.274920
v 0.500000 1.707600 -1.924320
v 0.500000 1.707600 -1.274920
v 0.500000 2.036580 -1.924320
v -0.306742 2.036580 -1.924320
v 0.500000 2.036581 -2.387190
v -0.160571 2.036581 -2.387190
v 0.500000 2.200001 -2.387190
v -0.133829 2.200001 -2.387190
v 0.500000 1.353340 -1.274920
v 0.500000 1.353340 -0.701031
v 0.500000 0.833814 -0.701031
v 0.500000 0.833814 -0.371864
v 0.500000 0.270999 -0.371864
v 0.500000 0.270999 0.000000
v -0.418545 1.353340 -0.701031
v -0.503558 0.833814 -0.701031
v -0.476705 0.270999 -0.371864
v -0.384608 0.833814 -0.371864
v -0.595655 0.270999 0.000000
vt 0.0009 0.5795
vt 0.2273 0.5795
vt 0.2273 0.8747
vt -0.1639 0.8747
vt 0.2273 0.3187
vt 0.2273 0.5795
vt -0.0254 0.5795
vt -0.1902 0.3187
vt 0.2273 0.0000
vt 0.2273 0.1690
vt -0.2167 0.1690
vt -0.2708 -0.0000
vt 0.2273 0.8747
vt 0.2273 1.0851
vt -0.0730 1.0851
vt -0.1394 0.8747
vt 0.2273 1.3636
vt -0.1273 1.3636
vt -0.0608 1.0851
vt 0.2273 1.0851
vt -0.1748 0.1690
vt 0.2273 0.1690
vt 0.2273 0.3187
vt -0.2289 0.3187
vt 0.1261 0.5795
vt -0.2273 0.0000
vt 0.2368 0.1690
vt 0.3187 0.3790
vt 0.1690 0.1232
vt 1.3636 0.0000
vt -0.4225 -0.0570
vt -0.1140 -0.0570
vt -0.1471 0.3256
vt -0.2326 0.0995
vt -0.3986 -0.0251
vt -0.2395 -0.0251
vt 0.2273 0.1232
vt 0.2273 0.3790
vt -0.1748 0.3790
vt -0.2167 0.1232
vt 0.2909 0.8747
vt 0.2245 1.0851
vt 0.2909 1.3636
vt -0.2273 1.3636
vt 0.2909 0.3187
vt 0.2909 0.0000
vt -0.5183 0.6458
vt -0.5055 0.8085
vt -0.8436 0.8085
vt 0.2273 0.0000
vt 0.2273 0.1232
vt -0.2708 0.1232
vt -0.2909 -0.0000
vt 0.2273 0.6152
vt 0.2273 0.7762
vt 0.0009 0.7762
vt -0.0254 0.6152
vt -1.3939 0.0053
vt -1.1076 0.0053
vt -1.0724 0.9426
vt -1.3559 1.0178
vt -1.0696 1.0178
vt -0.7847 0.7022
vt -0.7921 0.8535
vt -1.0127 0.8535
vt 1.0851 0.9257
vt 0.8747 0.9257
vt 0.8747 0.7762
vt 0.5795 0.7762
vt 0.5795 0.6152
vt 0.3187 0.6152
vt 0.1690 0.3790
vt 0.0000 0.1232
vt 0.0000 0.0000
vt 1.3636 1.0000
vt 1.0851 1.0000
vt -0.9671 -0.0834
vt -0.7465 -0.0834
vt -0.1677 0.5640
vt -0.4763 0.5640
vt -0.2184 0.3583
vt -0.3775 0.3583
vt 0.2273 0.9257
vt 0.2273 1.0000
vt -0.0608 1.0000
vt -0.0730 0.9257
vt 0.2273 0.7762
vt 0.2273 0.9257
vt -0.1394 0.9257
vt -0.1639 0.7762
vt 0.2273 0.3790
vt 0.2273 0.6152
vt -0.1902 0.6152
vt -0.2289 0.3790
vt -0.9055 0.0244
vt -0.5674 0.0244
vt 0.1273 1.0000
vt -0.2273 1.0000
vt -0.2273 -0.0000
vt 0.2909 -0.0000
vt -0.0888 -0.0427
vt 0.0886 -0.0427
vt 0.0825 0.0820
vt -0.0950 0.0820
vn 0.0000 1.0000 0.0000
vn -0.0000 -1.0000 -0.0000
vn 1.0000 0.0000 0.0000
vn -0.8374 0.1370 -0.5292
vn -0.9295 0.1521 0.3359
vn 0.0000 -0.0000 1.0000
vn -0.8643 0.1414 0.4827
vn -0.9606 0.1572 0.2291
vn -0.9422 0.1542 -0.2975
vn 0.0000 0.0000 -1.0000
vn -0.9411 0.1540 -0.3010
usemtl Leafs.003
s 1
f 12/1/1 16/2/1 15/3/1 13/4/1
f 24/5/1 23/6/1 14/7/1 29/8/1
f 28/9/1 27/10/1 31/11/1 33/12/1
f 17/13/1 19/14/1 20/15/1 18/16/1
f 4/17/1 3/18/1 22/19/1 21/20/1
f 32/21/1 26/22/1 25/23/1 30/24/1
usemtl Wood.008
f 5/25/2 8/26/2 10/27/2
f 25/28/3 27/29/3 1/30/3
f 5/31/4 11/32/4 30/33/4
f 31/34/5 11/35/5 10/36/5
f 27/37/6 26/38/6 32/39/6 31/40/6
f 5/25/2 6/41/2 7/42/2
f 7/42/2 2/43/2 1/44/2
f 1/44/2 8/26/2 5/25/2
f 10/27/2 11/45/2 5/25/2
f 8/26/2 9/46/2 10/27/2
f 5/25/2 7/42/2 1/44/2
f 14/47/7 12/48/7 13/49/7
f 8/50/6 28/51/6 33/52/6 9/53/6
f 23/54/6 16/55/6 12/56/6 14/57/6
f 2/58/8 7/59/8 20/60/8 3/61/8
f 20/60/8 22/62/8 3/61/8
f 13/63/9 18/64/9 20/65/9
f 19/66/3 17/67/3 15/68/3
f 15/68/3 16/69/3 23/70/3
f 23/70/3 24/71/3 25/28/3
f 25/28/3 26/72/3 27/29/3
f 27/29/3 28/73/3 8/74/3
f 1/30/3 4/75/3 19/66/3
f 4/75/3 21/76/3 19/66/3
f 27/29/3 8/74/3 1/30/3
f 23/70/3 25/28/3 1/30/3
f 1/30/3 19/66/3 15/68/3
f 15/68/3 23/70/3 1/30/3
f 7/77/9 6/78/9 13/63/9 20/65/9
f 30/33/4 29/79/4 14/80/4
f 14/80/4 5/31/4 30/33/4
f 31/34/5 32/81/5 30/82/5
f 30/82/5 11/35/5 31/34/5
f 19/83/6 21/84/6 22/85/6 20/86/6
f 15/87/6 17/88/6 18/89/6 13/90/6
f 25/91/6 24/92/6 29/93/6 30/94/6
f 6/95/7 5/96/7 14/47/7 13/49/7
f 3/97/10 4/98/10 1/99/10 2/100/10
f 10/101/11 9/102/11 33/103/11 31/104/11
