# Blender v2.78 (sub 0) OBJ File: ''
# www.blender.org
mtllib Brown_Cliff_Corner_01.mtl
o Mesh1_Brown_Cliff_Corner_Model
v 0.780000 0.000000 0.000000
v 0.000000 0.000000 0.000000
v 0.780000 0.000000 -0.780000
v 0.780000 2.200000 0.000000
v 0.000000 2.200000 0.000000
v 0.780000 2.200000 -0.780000
vt -0.3545 0.0000
vt 0.0000 0.0000
vt -0.3545 0.3545
vt 0.0000 0.0000
vt 0.3545 0.0000
vt 0.3545 0.3545
vt 0.0000 1.0000
vt 0.0000 0.0000
vt 0.3545 0.0000
vt 0.3545 1.0000
vt -0.5014 1.0000
vt -0.5014 0.0000
vt 0.0000 1.0000
vt 0.3545 0.0000
vt 0.3545 1.0000
vn 0.0000 -1.0000 -0.0000
vn 0.0000 1.0000 0.0000
vn 1.0000 0.0000 0.0000
vn -0.7071 0.0000 -0.7071
vn 0.0000 -0.0000 1.0000
usemtl Wood.005
s 1
f 1/1/1 2/2/1 3/3/1
f 5/4/2 4/5/2 6/6/2
f 4/7/3 1/8/3 3/9/3 6/10/3
f 6/11/4 3/12/4 2/2/4 5/13/4
f 5/13/5 2/2/5 1/14/5 4/15/5
