# Blender v2.78 (sub 0) OBJ File: ''
# www.blender.org
mtllib Brown_Cliff_Bottom_01.mtl
o Mesh1_Brown_Cliff_Bottom_Model
v 0.500000 0.000000 -3.000000
v -0.640000 0.000000 -3.000000
v -0.280000 2.200001 -3.000000
v 0.500000 2.200001 -3.000000
v -0.277341 0.000000 -1.274920
v -0.640000 0.000000 -1.924320
v -0.493829 0.000000 -2.387190
v 0.500000 -0.000000 0.000000
v -0.640000 -0.000000 0.000000
v -0.521050 0.000000 -0.371864
v -0.640000 0.000000 -0.701031
v 0.082659 2.200000 -1.274920
v -0.280000 2.200000 -1.924320
v -0.280000 2.200000 -0.701031
v -0.161050 2.200000 -0.371864
v -0.280000 2.200000 0.000000
v 0.500000 2.200000 0.000000
v -0.133829 2.200001 -2.387190
vt 0.1261 0.5795
vt -0.2273 -0.0000
vt 0.2368 0.1690
vt 0.0376 0.5795
vt 0.2273 1.3636
vt -0.0608 1.0851
vt -0.1273 1.0000
vt -0.2909 -0.0000
vt 0.2273 0.0000
vt 0.2273 1.0000
vt 0.2909 0.8747
vt 0.2245 1.0851
vt 0.2909 1.3636
vt -0.2273 1.3636
vt 0.2909 0.3187
vt 0.2909 -0.0000
vt 0.1273 1.0000
vt -0.2273 1.0000
vt -0.2273 -0.0000
vt 0.2909 -0.0000
vt -0.1273 0.3187
vt -0.0732 0.1690
vt -0.1273 -0.0000
vt 0.2273 -0.0000
vt -0.1273 0.8747
vt -0.1273 1.3636
vt -0.5674 0.0244
vt -0.4876 1.0345
vt -0.8257 1.0345
vt -0.9055 0.0244
vt -0.2395 -0.0251
vt -0.1838 0.9866
vt -0.3429 0.9866
vt -0.3986 -0.0251
vt -0.4225 -0.0570
vt -0.1140 -0.0570
vt -0.2014 0.9525
vt -0.5100 0.9525
vt -1.1076 0.0053
vt -1.0696 1.0178
vt -1.3559 1.0178
vt -1.3939 0.0053
vt -0.9671 -0.0834
vt -0.7465 -0.0834
vt -0.7958 0.9287
vt -1.0164 0.9287
vt -0.0888 -0.0427
vt 0.0886 -0.0427
vt 0.0388 0.9694
vt -0.1387 0.9694
vt 1.3636 -0.0000
vt 1.3636 1.0000
vt -0.0000 1.0000
vt -0.0000 -0.0000
vn -0.0000 -1.0000 -0.0000
vn -0.0000 1.0000 0.0000
vn 0.0000 -0.0000 1.0000
vn 0.0000 0.0000 -1.0000
vn -0.8643 0.1414 0.4827
vn -0.9295 0.1521 0.3359
vn -0.8374 0.1370 -0.5292
vn -0.9606 0.1572 0.2291
vn -0.9422 0.1542 -0.2975
vn -0.9411 0.1540 -0.3010
vn 1.0000 -0.0000 0.0000
usemtl Wood.001
s 1
f 5/1/1 8/2/1 10/3/1
f 12/4/2 4/5/2 18/6/2
f 16/7/3 9/8/3 8/9/3 17/10/3
f 5/1/1 6/11/1 7/12/1
f 7/12/1 2/13/1 1/14/1
f 1/14/1 8/2/1 5/1/1
f 10/3/1 11/15/1 5/1/1
f 8/2/1 9/16/1 10/3/1
f 5/1/1 7/12/1 1/14/1
f 3/17/4 4/18/4 1/19/4 2/20/4
f 12/4/2 14/21/2 15/22/2
f 15/22/2 16/23/2 17/24/2
f 17/24/2 4/5/2 12/4/2
f 18/6/2 13/25/2 12/4/2
f 4/5/2 3/26/2 18/6/2
f 12/4/2 15/22/2 17/24/2
f 5/27/5 12/28/5 13/29/5 6/30/5
f 10/31/6 15/32/6 14/33/6 11/34/6
f 5/35/7 11/36/7 14/37/7 12/38/7
f 7/39/8 18/40/8 3/41/8 2/42/8
f 7/43/9 6/44/9 13/45/9 18/46/9
f 10/47/10 9/48/10 16/49/10 15/50/10
f 1/51/11 4/52/11 17/53/11 8/54/11
