# Blender v2.78 (sub 0) OBJ File: ''
# www.blender.org
mtllib Brown_Cliff_Bottom_Green_Top_01.mtl
o Mesh1_Brown_Cliff_Bottom_Green_Top_Model
v 0.500000 0.000000 -3.000000
v -0.640000 0.000000 -3.000000
v -0.280000 2.200001 -3.000000
v 0.500000 2.200001 -3.000000
v -0.277341 0.000000 -1.274920
v -0.640000 0.000000 -1.924320
v -0.493829 0.000000 -2.387190
v 0.500000 -0.000000 0.000000
v -0.640000 -0.000000 -0.000000
v -0.521050 0.000000 -0.371864
v -0.640000 0.000000 -0.701031
v 0.082659 2.200000 -1.274920
v -0.280000 2.200000 -1.924320
v -0.280000 2.200000 -0.701031
v -0.161050 2.200000 -0.371864
v -0.280000 2.200000 0.000000
v 0.500000 2.200000 0.000000
v -0.133829 2.200001 -2.387190
vt 0.0376 0.5795
vt 0.2273 1.3636
vt -0.0608 1.0851
vt -0.1273 0.3187
vt -0.0732 0.1690
vt -0.1273 0.0000
vt 0.2273 -0.0000
vt -0.1273 0.8747
vt -0.1273 1.3636
vt 0.1261 0.5795
vt -0.2273 -0.0000
vt 0.2368 0.1690
vt -0.1273 1.0000
vt -0.2909 -0.0000
vt 0.2273 0.0000
vt 0.2273 1.0000
vt 0.2909 0.8747
vt 0.2245 1.0851
vt 0.2909 1.3636
vt -0.2273 1.3636
vt 0.2909 0.3187
vt 0.2909 -0.0000
vt 0.1273 1.0000
vt -0.2273 1.0000
vt -0.2273 -0.0000
vt 0.2909 -0.0000
vt -0.5674 0.0244
vt -0.4876 1.0345
vt -0.8257 1.0345
vt -0.9055 0.0244
vt -0.2395 -0.0251
vt -0.1838 0.9866
vt -0.3429 0.9866
vt -0.3986 -0.0251
vt -0.4225 -0.0570
vt -0.1140 -0.0570
vt -0.2014 0.9525
vt -0.5100 0.9525
vt -1.1076 0.0053
vt -1.0696 1.0178
vt -1.3559 1.0178
vt -1.3939 0.0053
vt -0.9671 -0.0834
vt -0.7465 -0.0834
vt -0.7958 0.9287
vt -1.0164 0.9287
vt -0.0888 -0.0427
vt 0.0886 -0.0427
vt 0.0388 0.9694
vt -0.1387 0.9694
vt 1.3636 -0.0000
vt 1.3636 1.0000
vt -0.0000 1.0000
vt -0.0000 -0.0000
vn -0.0000 1.0000 0.0000
vn -0.0000 -1.0000 -0.0000
vn 0.0000 -0.0000 1.0000
vn 0.0000 0.0000 -1.0000
vn -0.8643 0.1414 0.4827
vn -0.9295 0.1521 0.3359
vn -0.8374 0.1370 -0.5292
vn -0.9606 0.1572 0.2291
vn -0.9422 0.1542 -0.2975
vn -0.9411 0.1540 -0.3010
vn 1.0000 -0.0000 0.0000
usemtl Leafs.001
s 1
f 12/1/1 4/2/1 18/3/1
f 12/1/1 14/4/1 15/5/1
f 15/5/1 16/6/1 17/7/1
f 17/7/1 4/2/1 12/1/1
f 18/3/1 13/8/1 12/1/1
f 4/2/1 3/9/1 18/3/1
f 12/1/1 15/5/1 17/7/1
usemtl Wood.004
f 5/10/2 8/11/2 10/12/2
f 16/13/3 9/14/3 8/15/3 17/16/3
f 5/10/2 6/17/2 7/18/2
f 7/18/2 2/19/2 1/20/2
f 1/20/2 8/11/2 5/10/2
f 10/12/2 11/21/2 5/10/2
f 8/11/2 9/22/2 10/12/2
f 5/10/2 7/18/2 1/20/2
f 3/23/4 4/24/4 1/25/4 2/26/4
f 5/27/5 12/28/5 13/29/5 6/30/5
f 10/31/6 15/32/6 14/33/6 11/34/6
f 5/35/7 11/36/7 14/37/7 12/38/7
f 7/39/8 18/40/8 3/41/8 2/42/8
f 7/43/9 6/44/9 13/45/9 18/46/9
f 10/47/10 9/48/10 16/49/10 15/50/10
f 1/51/11 4/52/11 17/53/11 8/54/11
