# Blender v2.78 (sub 0) OBJ File: ''
# www.blender.org
mtllib Brown_Cliff_Top_Corner_01.mtl
o Mesh1_Brown_Cliff_Top_Corner_Model
v 0.920000 0.290000 0.000000
v 0.920000 0.290000 -0.710938
v 0.204709 0.290000 0.000000
v 0.920000 0.000000 0.000000
v 0.920000 0.000000 -0.780000
v 0.920000 0.290000 -0.920000
v 0.140000 0.000000 0.000000
v 0.000000 0.290000 0.000000
vt -0.4182 0.0000
vt -0.0636 0.0000
vt -0.4182 0.3545
vt 0.0930 -0.0000
vt 0.4182 0.4182
vt 0.0000 0.0000
vt -0.0000 0.1248
vt -0.5914 0.1248
vt -0.5464 -0.0145
vt -0.0450 -0.0145
vt 0.3545 -0.0000
vt 0.4182 0.1318
vt 0.3232 0.1318
vt -0.0000 0.1318
vt 0.0636 0.0000
vt 0.0930 0.1318
vt -0.0000 0.1318
vt -0.0000 -0.0000
vt 0.4182 0.3232
vt 0.4182 0.0000
vt 0.4182 0.1318
vt 0.4182 0.0000
vn 0.0000 -1.0000 -0.0000
vn -0.0000 1.0000 0.0000
vn -0.6692 -0.3231 -0.6692
vn 1.0000 -0.0000 0.0000
vn -0.0000 -0.0000 1.0000
usemtl Wood.011
s 1
f 4/1/1 7/2/1 5/3/1
f 3/4/2 6/5/2 8/6/2
f 8/7/3 6/8/3 5/9/3 7/10/3
f 5/11/4 6/12/4 2/13/4
f 8/14/5 7/15/5 3/16/5
f 5/11/4 2/13/4 1/17/4 4/18/4
f 3/4/2 2/19/2 6/5/2
f 3/16/5 7/15/5 4/20/5 1/21/5
usemtl Leafs.006
f 1/22/2 2/19/2 3/4/2
