# Blender v2.78 (sub 0) OBJ File: ''
# www.blender.org
mtllib Brown_Waterfall_Top_01.mtl
o Mesh1_Brown_Waterfall_Top_Model
v 0.500000 0.000000 -3.000000
v -0.280000 0.000000 -3.000000
v -0.420000 0.290000 -3.000000
v -0.215291 0.290000 -3.000000
v 0.500000 0.290000 -3.000000
v -0.280000 0.000000 -0.701031
v -0.243558 0.000000 -0.758698
v -0.383558 0.000000 -0.758698
v -0.057341 0.000000 -1.274920
v -0.420000 0.000000 -1.924320
v -0.319899 0.000000 -2.241300
v -0.179899 0.000000 -2.241300
v -0.133829 0.000000 -2.387190
v 0.500000 0.000000 0.000000
v -0.280000 0.000000 0.000000
v -0.161050 0.000000 -0.371864
v -0.311144 0.140000 -0.758698
v -0.420000 0.290000 -0.701031
v -0.383558 0.290000 -0.758698
v -0.383558 0.140000 -0.758698
v -0.243558 0.140000 -0.758698
v -0.148008 0.290000 -0.758698
v 0.500000 0.290000 -0.758698
v 0.500000 0.140000 -0.758698
v -0.199607 0.290000 -0.677046
v -0.301050 0.290000 -0.371864
v -0.420000 0.290000 0.000000
v -0.210938 0.290000 0.000000
v -0.090737 0.290000 -0.375774
v 0.500000 0.290000 0.000000
v 0.500000 0.290000 -2.241300
v 0.500000 0.140000 -2.241300
v -0.067353 0.290000 -2.379780
v -0.111084 0.290000 -2.241300
v -0.319899 0.290000 -2.241300
v -0.273829 0.290000 -2.387190
v -0.247486 0.140000 -2.241300
v -0.319899 0.140000 -2.241300
v -0.420000 0.140000 -1.924320
v -0.057341 0.140000 -1.274920
vt 0.1454 0.0000
vt 0.1454 0.0636
vt 0.1125 0.0636
vt 0.0818 0.0000
vt -0.1909 0.8747
vt -0.0261 0.5795
vt 0.2273 1.0188
vt -0.1125 1.0188
vt -0.1414 0.0636
vt -0.1743 0.0636
vt -0.1743 0.0000
vt -0.1107 0.0000
vt -0.9277 0.0636
vt -0.9277 0.0000
vt -0.7766 0.0000
vt -0.7766 0.0636
vt -0.8568 0.0636
vt -0.8568 -0.0000
vt -0.5187 -0.0000
vt -0.5187 0.0636
vt -0.1107 0.3449
vt 0.2273 0.3449
vt -0.1454 1.0188
vt -0.1414 0.3449
vt -0.1743 0.3449
vt -0.4760 0.0636
vt -0.4760 0.0000
vt -0.1984 0.0000
vt -0.1984 0.0636
vt -0.0673 0.3449
vt -0.0907 0.3077
vt -0.0412 0.1708
vt -0.0959 -0.0000
vt 0.2273 -0.0000
vt 0.2273 0.3449
vt -0.0306 1.0817
vt -0.0505 1.0188
vt 0.2273 1.0188
vt 0.2273 1.3636
vt -0.0979 1.3636
vt -0.1107 0.0636
vt 0.0261 0.5795
vt -0.2273 1.3636
vt -0.2273 -0.0000
vt -0.2014 0.1050
vt -0.1674 0.2473
vt -0.2160 0.1737
vt -0.0000 -0.0000
vt 1.0188 0.0636
vt 0.3449 0.0636
vt -0.1125 0.0636
vt 0.2273 0.0636
vt -0.0505 0.1318
vt -0.9972 0.3060
vt -1.0164 0.1609
vt -0.9376 0.2309
vt -0.0959 0.1318
vt -0.1273 -0.0000
vt 0.2273 0.0000
vt 0.2273 0.1318
vt 0.1273 -0.0000
vt 0.1909 0.1318
vt 0.0979 0.1318
vt 0.0732 0.1690
vt 0.1273 0.3187
vt 0.1107 0.3449
vt 0.1743 0.3449
vt 0.1909 0.8747
vt 0.0818 1.0188
vt 0.1454 1.0188
vt 0.1273 0.0000
vt 0.1273 1.3636
vt 0.0608 1.0851
vt -0.1984 0.2473
vt -0.2324 0.1050
vt -0.1743 0.3449
vt -0.1909 0.3187
vt -0.1245 1.0851
vt -0.1454 1.0188
vt -0.1368 0.1690
vt 0.1743 0.1318
vt 0.0673 0.1318
vt 0.1107 0.0636
vt 0.1414 0.0636
vt -1.3559 -0.0819
vt -1.0696 -0.0819
vt -1.0844 0.0638
vt -1.3707 0.0638
vt -0.0000 0.1318
vt 0.3449 0.1318
vt 1.3636 -0.0000
vt -0.1909 0.1318
vt 0.0388 0.0506
vt 0.0582 0.1957
vt -0.1193 0.1957
vt -0.1387 0.0506
vt -0.3429 0.0047
vt -0.1838 0.0047
vt -0.2055 0.1495
vt -0.3646 0.1495
vt -0.1909 1.3636
vt -0.1909 -0.0000
vt -0.2273 0.0636
vt -0.2273 0.1318
vt 0.2273 0.1318
vt -0.1454 0.1318
vt -0.9469 0.1609
vt -0.9277 0.3060
vt -0.2273 0.1318
vt -0.2273 -0.0000
vt 1.3636 0.1318
vt 1.0188 0.1318
vn 0.0000 0.0000 -1.0000
vn -0.0000 1.0000 0.0000
vn 0.0000 0.0000 1.0000
vn -0.9536 0.0000 -0.3011
vn -0.8731 0.0000 0.4876
vn -0.8454 0.0000 -0.5342
vn -0.0000 -1.0000 -0.0000
vn -0.7827 -0.3778 -0.4946
vn 1.0000 0.0000 0.0000
vn -0.8662 -0.4182 -0.2735
vn -0.8805 -0.4251 0.2100
vn -0.8654 -0.4178 -0.2768
vn -0.8563 -0.4134 0.3095
usemtl Water.001
s 1
f 11/1/1 38/2/1 37/3/1 12/4/1
f 39/5/2 40/6/2 32/7/2 37/8/2
f 17/9/3 20/10/3 8/11/3 7/12/3
f 38/13/4 11/14/4 10/15/4 39/16/4
f 39/17/5 10/18/5 9/19/5 40/20/5
f 21/21/2 24/22/2 40/6/2
f 37/8/2 38/23/2 39/5/2
f 17/24/2 21/21/2 40/6/2
f 40/6/2 20/25/2 17/24/2
f 40/6/2 24/22/2 32/7/2
f 40/26/6 9/27/6 8/28/6 20/29/6
usemtl Leafs.007
f 22/30/2 25/31/2 29/32/2
f 28/33/2 30/34/2 29/32/2
f 23/35/2 22/30/2 29/32/2
f 29/32/2 30/34/2 23/35/2
f 33/36/2 34/37/2 31/38/2
f 5/39/2 4/40/2 33/36/2 31/38/2
usemtl Stone
f 21/41/3 17/9/3 7/12/3
usemtl Wood.013
f 9/42/7 1/43/7 14/44/7
f 6/45/8 18/46/8 17/47/8
f 14/48/9 32/49/9 24/50/9
f 37/51/3 32/52/3 34/53/3
f 36/54/10 13/55/10 37/56/10
f 28/57/3 15/58/3 14/59/3 30/60/3
f 2/61/1 3/62/1 4/63/1
f 16/64/7 6/65/7 7/66/7
f 7/66/7 8/67/7 9/42/7
f 9/42/7 10/68/7 12/69/7
f 10/68/7 11/70/7 12/69/7
f 16/64/7 7/66/7 14/44/7
f 14/44/7 15/71/7 16/64/7
f 2/72/7 1/43/7 13/73/7
f 9/42/7 12/69/7 1/43/7
f 13/73/7 1/43/7 12/69/7
f 14/44/7 7/66/7 9/42/7
f 19/74/8 17/47/8 18/46/8
f 7/75/8 6/45/8 17/47/8
f 19/76/2 18/77/2 25/31/2 22/30/2
f 34/37/2 33/36/2 36/78/2 35/79/2
f 26/80/2 29/32/2 25/31/2 18/77/2
f 19/81/1 22/82/1 21/83/1 17/84/1
f 2/85/11 13/86/11 36/87/11 3/88/11
f 30/89/9 14/48/9 24/50/9 23/90/9
f 1/91/9 32/49/9 14/48/9
f 27/92/3 15/58/3 28/57/3
f 15/93/12 27/94/12 26/95/12 16/96/12
f 6/97/13 16/98/13 26/99/13 18/100/13
f 33/36/2 4/40/2 3/101/2 36/78/2
f 28/33/2 29/32/2 26/80/2 27/102/2
f 24/103/1 21/83/1 22/82/1 23/104/1
f 31/105/3 34/53/3 32/52/3
f 35/106/3 37/51/3 34/53/3
f 12/107/10 37/56/10 13/55/10
f 35/108/10 36/54/10 37/56/10
f 2/61/1 4/63/1 5/109/1 1/110/1
f 5/111/9 31/112/9 32/49/9 1/91/9
