# Blender v2.78 (sub 0) OBJ File: ''
# www.blender.org
mtllib Flower_Red_01.mtl
o Mesh2_Flower_Red_Model
v 0.242963 0.000000 -0.038001
v 0.242963 0.000000 -0.217556
v 0.242963 0.107776 -0.217556
v 0.242963 0.210877 0.000000
vt 0.0173 0.0000
vt 0.0989 0.0000
vt 0.0989 0.0490
vt 0.0000 0.0959
vn 1.0000 0.0000 0.0000
usemtl Green_leafs
s 1
f 1/1/1 2/2/1 3/3/1 4/4/1
o Mesh1_Flower_Red_Model
v 0.447925 0.000000 -0.242963
v 0.268370 0.000000 -0.242963
v 0.268370 0.107776 -0.242963
v 0.485926 0.210877 -0.242963
vt -0.2036 0.0000
vt -0.1220 0.0000
vt -0.1220 0.0490
vt -0.2209 0.0959
vn 0.0000 0.0000 -1.0000
usemtl Green_leafs
s 1
f 5/5/2 6/6/2 7/7/2 8/8/2
o Mesh3_Flower_Red_Model
v 0.268370 0.000000 -0.217556
v 0.242963 0.000000 -0.217556
v 0.217556 0.000000 -0.217556
v 0.217556 0.000000 -0.242963
v 0.217556 0.000000 -0.268370
v 0.242963 0.000000 -0.268370
v 0.268370 0.000000 -0.268370
v 0.268370 0.000000 -0.242963
v 0.268370 0.282100 -0.268370
v 0.268370 0.282100 -0.217556
v 0.217556 0.282100 -0.217556
v 0.217556 0.282100 -0.268370
v 0.346125 0.282100 -0.346125
v 0.139800 0.282100 -0.346125
v 0.139800 0.282100 -0.139800
v 0.346125 0.282100 -0.139800
v 0.097504 0.400000 -0.388422
v 0.388422 0.400000 -0.388422
v 0.388422 0.400000 -0.097504
v 0.097504 0.400000 -0.097504
vt -0.0989 0.1220
vt -0.1573 0.1573
vt -0.1220 0.1220
vt -0.0635 0.1573
vt -0.0635 0.0635
vt -0.0443 0.1562
vt -0.1766 0.1562
vt -0.1573 0.0992
vt -0.0635 0.0992
vt 0.1573 0.0992
vt 0.1766 0.1562
vt 0.0443 0.1562
vt 0.0635 0.0992
vt -0.1220 0.1104
vt -0.1220 0.1220
vt -0.1104 0.1220
vt -0.0989 0.1220
vt -0.0989 0.1104
vt -0.0989 0.0989
vt -0.1104 0.0989
vt -0.1220 0.0989
vt 0.1220 0.1282
vt 0.0989 0.1282
vt 0.0989 0.0000
vt 0.1104 0.0000
vt 0.1220 0.0000
vt 0.1220 0.1282
vt 0.0989 0.1282
vt 0.0989 0.0000
vt 0.1104 0.0000
vt 0.1220 0.0000
vt -0.0989 0.0000
vt -0.1104 0.0000
vt -0.1220 0.0000
vt -0.1220 0.1282
vt -0.0989 0.1282
vt -0.0989 0.1282
vt -0.1220 0.1282
vt -0.1220 0.0000
vt -0.1104 0.0000
vt -0.0989 0.0000
vt -0.1573 0.0635
vt -0.0989 0.0989
vt -0.1220 0.0989
vt -0.1573 0.1738
vt -0.1766 0.2308
vt -0.0443 0.2308
vt -0.0635 0.1738
vt 0.0443 0.2308
vt 0.1766 0.2308
vt 0.1573 0.1738
vt 0.0635 0.1738
vt 0.0443 0.0443
vt 0.0443 0.1766
vt 0.1766 0.1766
vt 0.1766 0.0443
vn 0.0000 -1.0000 0.0000
vn -0.9413 -0.3377 -0.0000
vn 0.0000 -0.3377 0.9413
vn -0.0000 1.0000 0.0000
vn 1.0000 0.0000 0.0000
vn 0.0000 -0.0000 1.0000
vn 0.0000 0.0000 -1.0000
vn 0.0000 0.3377 0.9413
vn -0.9413 0.3377 0.0000
usemtl Mushroom_Red
s 1
f 20/9/3 21/10/3 17/11/3
f 22/12/3 20/9/3 23/13/3
f 28/14/4 25/15/4 22/16/4 23/17/4
f 24/18/5 27/19/5 28/20/5 23/21/5
usemtl Green_leafs
f 16/22/6 15/23/6 14/24/6 13/25/6 12/26/6 11/27/6 10/28/6 9/29/6
f 17/30/7 18/31/7 9/32/7 16/33/7 15/34/7
f 18/35/8 19/36/8 11/37/8 10/38/8 9/39/8
f 11/40/7 12/41/7 13/42/7 20/43/7 19/44/7
f 20/45/9 17/46/9 15/47/9 14/48/9 13/49/9
f 24/50/6 19/51/6 23/13/6
f 18/52/6 19/51/6 24/50/6
f 21/10/6 18/52/6 24/50/6
f 18/52/6 21/10/6 17/11/6
f 21/10/6 22/12/6 20/9/6
f 21/53/10 26/54/10 25/55/10 22/56/10
f 27/57/11 26/58/11 21/59/11 24/60/11
f 28/61/3 25/62/3 26/63/3 27/64/3
f 20/9/6 23/13/6 19/51/6
o Mesh5_Flower_Red_Model
v 0.242963 0.210877 -0.485926
v 0.242963 0.107776 -0.268370
v 0.242963 0.000000 -0.268370
v 0.242963 0.000000 -0.447925
vt 0.2036 -0.0000
vt 0.2209 0.0959
vt 0.1220 0.0490
vt 0.1220 -0.0000
vn 1.0000 -0.0000 0.0000
usemtl Green_leafs
s 1
f 32/65/12 29/66/12 30/67/12 31/68/12
o Mesh4_Flower_Red_Model
v 0.000000 0.210877 -0.242963
v 0.217556 0.107776 -0.242963
v 0.217556 0.000000 -0.242963
v 0.038001 0.000000 -0.242963
vt 0.0000 0.0959
vt -0.0989 0.0490
vt -0.0989 0.0000
vt -0.0173 0.0000
vn -0.0000 0.0000 -1.0000
usemtl Green_leafs
s 1
f 33/69/13 34/70/13 35/71/13 36/72/13
