# Blender v2.78 (sub 0) OBJ File: ''
# www.blender.org
mtllib Grey_Cliff_Bottom_Corner_Green_Top_01.mtl
o Mesh1_Grey_Cliff_Bottom_Corner_Green_Top_Model
v 1.140000 0.000000 0.000000
v 0.000000 0.000000 0.000000
v 1.140000 0.000000 -1.140000
v 1.140000 2.200000 0.000000
v 0.360000 2.200000 0.000000
v 1.140000 2.200000 -0.780000
vt -0.5182 -0.0000
vt 0.0000 -0.0000
vt -0.5182 0.5182
vt 0.5182 0.0000
vt 0.5182 1.0000
vt 0.1636 1.0000
vt -0.0000 -0.0000
vt 0.5182 -0.0000
vt 0.3545 1.0000
vt -0.0000 1.0000
vt -0.6171 1.0067
vt -0.7328 -0.0000
vt -0.1157 1.0067
vt 0.1636 0.0000
vt 0.5182 0.0000
vt 0.5182 0.3545
vn 0.0000 -1.0000 -0.0000
vn -0.0000 -0.0000 1.0000
vn 1.0000 0.0000 0.0000
vn -0.7024 0.1149 -0.7024
vn 0.0000 1.0000 0.0000
usemtl Stone.004
s 1
f 1/1/1 2/2/1 3/3/1
f 2/2/2 1/4/2 4/5/2 5/6/2
f 1/7/3 3/8/3 6/9/3 4/10/3
f 6/11/4 3/12/4 2/2/4 5/13/4
usemtl Leafs.008
f 5/14/5 4/15/5 6/16/5
