# Blender v2.78 (sub 0) OBJ File: ''
# www.blender.org
mtllib Grey_Cliff_Bottom_Green_Top_01.mtl
o Mesh1_Grey_Cliff_Bottom_Green_Top_Model
v 0.500000 0.000000 -3.000000
v -0.640000 0.000000 -3.000000
v -0.280000 2.200001 -3.000000
v 0.500000 2.200001 -3.000000
v -0.277341 0.000000 -1.274920
v -0.640000 0.000000 -1.924320
v -0.493829 0.000000 -2.387190
v 0.500000 0.000000 0.000000
v -0.640000 -0.000000 -0.000000
v -0.521050 0.000000 -0.371864
v -0.640000 0.000000 -0.701031
v 0.082659 2.200000 -1.274920
v -0.280000 2.200000 -1.924320
v -0.280000 2.200000 -0.701031
v -0.161050 2.200000 -0.371864
v -0.280000 2.200000 0.000000
v 0.500000 2.200000 0.000000
v -0.133829 2.200001 -2.387190
vt -0.2273 -0.0000
vt 0.2909 -0.0000
vt 0.1273 1.0000
vt -0.2273 1.0000
vt 0.1261 0.5795
vt 0.2909 0.8747
vt 0.2245 1.0851
vt 0.2909 1.3636
vt -0.2273 1.3636
vt -0.2273 0.0000
vt 0.2909 -0.0000
vt 0.2368 0.1690
vt 0.2909 0.3187
vt -0.4876 1.0345
vt -0.8257 1.0345
vt -0.9055 0.0244
vt -0.5674 0.0244
vt -0.2014 0.9525
vt -0.5100 0.9525
vt -0.4225 -0.0570
vt -0.1140 -0.0570
vt -0.1838 0.9866
vt -0.3429 0.9866
vt -0.3986 -0.0251
vt -0.2395 -0.0251
vt 0.0388 0.9694
vt -0.1387 0.9694
vt -0.0888 -0.0427
vt 0.0886 -0.0427
vt -0.2909 -0.0000
vt 0.2273 -0.0000
vt 0.2273 1.0000
vt -0.1273 1.0000
vt 1.3636 1.0000
vt -0.0000 1.0000
vt -0.0000 -0.0000
vt 1.3636 -0.0000
vt -1.0696 1.0178
vt -1.3559 1.0178
vt -1.3939 0.0053
vt -1.1076 0.0053
vt -0.7958 0.9287
vt -1.0164 0.9287
vt -0.9671 -0.0834
vt -0.7465 -0.0834
vt 0.0376 0.5795
vt -0.1273 0.3187
vt -0.0732 0.1690
vt -0.1273 0.0000
vt 0.2273 0.0000
vt 0.2273 1.3636
vt -0.1273 1.3636
vt -0.0608 1.0851
vt -0.1273 0.8747
vn 0.0000 0.0000 -1.0000
vn -0.0000 -1.0000 -0.0000
vn -0.8643 0.1414 0.4827
vn -0.8374 0.1370 -0.5292
vn -0.9295 0.1521 0.3359
vn -0.9411 0.1540 -0.3010
vn 0.0000 -0.0000 1.0000
vn 1.0000 0.0000 0.0000
vn -0.9606 0.1572 0.2291
vn -0.9422 0.1542 -0.2975
vn -0.0000 1.0000 0.0000
usemtl Stone.005
s 1
f 1/1/1 2/2/1 3/3/1 4/4/1
f 5/5/2 6/6/2 7/7/2 2/8/2 1/9/2 8/10/2 9/11/2 10/12/2 11/13/2
f 12/14/3 13/15/3 6/16/3 5/17/3
f 14/18/4 12/19/4 5/20/4 11/21/4
f 15/22/5 14/23/5 11/24/5 10/25/5
f 16/26/6 15/27/6 10/28/6 9/29/6
f 9/30/7 8/31/7 17/32/7 16/33/7
f 4/34/8 17/35/8 8/36/8 1/37/8
f 18/38/9 3/39/9 2/40/9 7/41/9
f 13/42/10 18/43/10 7/44/10 6/45/10
usemtl Leafs.009
f 12/46/11 14/47/11 15/48/11 16/49/11 17/50/11 4/51/11 3/52/11 18/53/11 13/54/11
