# Blender v2.78 (sub 0) OBJ File: ''
# www.blender.org
mtllib Mushroom_Red_01.mtl
o Mesh1_Mushroom_Red_Model
v 0.337190 0.000000 -0.121072
v 0.298431 0.315900 -0.159830
v 0.141048 0.315900 -0.159830
v 0.102290 0.000000 -0.121072
v 0.337190 0.000000 -0.355972
v 0.298431 0.315900 -0.317213
v 0.102290 0.000000 -0.355972
v 0.141048 0.315900 -0.317213
v 0.434918 0.315900 -0.376650
v 0.217459 0.315900 -0.502200
v 0.000000 0.315900 -0.125550
v 0.000000 0.315900 -0.376650
v 0.217459 0.567000 -0.251100
v 0.217459 0.315900 0.000000
v 0.434918 0.315900 -0.125550
vt -0.1357 0.1442
vt -0.1357 0.0727
vt -0.0641 0.0727
vt -0.0641 0.1442
vt -0.1977 0.1712
vt -0.0988 0.2283
vt 0.0000 0.0571
vt 0.0000 0.1712
vt -0.0571 0.1085
vt -0.1141 0.2595
vt -0.1712 0.1085
vt 0.0856 0.1409
vt 0.0285 0.2919
vt -0.0285 0.1409
vt 0.1997 0.0762
vt 0.1427 0.2272
vt 0.0856 0.0762
vt 0.1141 0.1301
vt 0.0571 -0.0209
vt 0.1712 -0.0209
vt -0.1977 0.0571
vt -0.0988 0.0000
vt 0.0285 -0.0532
vt -0.0285 0.0978
vt -0.0856 -0.0532
vt -0.0856 0.0115
vt -0.1427 0.1625
vt -0.1997 0.0115
vt 13.2752 0.5805
vt 11.7493 13.1107
vt 5.5531 13.1107
vt 4.0272 0.5805
vt 4.7666 -1.6166
vt 14.0146 -1.6166
vt 12.4887 10.9136
vt 6.2925 10.9136
vt -13.2752 14.0146
vt -13.2752 4.7666
vt -4.0272 4.7666
vt -4.0272 14.0146
vt -6.2925 13.0207
vt -12.4887 13.0207
vt -14.0146 0.4904
vt -4.7666 0.4904
vt -4.0272 -1.7067
vt -5.5531 10.8236
vt -11.7493 10.8236
vt -13.2752 -1.7067
vn 0.0000 -1.0000 -0.0000
vn -0.7559 0.6547 0.0000
vn -0.3780 0.6547 0.6547
vn 0.3780 0.6547 0.6547
vn 0.7559 0.6547 0.0000
vn 0.3780 0.6547 -0.6547
vn -0.3780 0.6547 -0.6547
vn 0.0000 0.1218 0.9926
vn 0.9926 0.1218 0.0000
vn -0.9926 0.1218 0.0000
vn 0.0000 0.1218 -0.9926
usemtl Mushroom_Red.002
s 1
f 6/1/1 2/2/1 3/3/1 8/4/1
f 6/1/1 9/5/1 2/2/1
f 6/1/1 10/6/1 9/5/1
f 8/4/1 10/6/1 6/1/1
f 11/7/1 10/6/1 8/4/1
f 10/6/1 11/7/1 12/8/1
f 11/9/2 13/10/2 12/11/2
f 14/12/3 13/13/3 11/14/3
f 15/15/4 13/16/4 14/17/4
f 13/18/5 15/19/5 9/20/5
f 15/21/1 2/2/1 9/5/1
f 14/22/1 2/2/1 15/21/1
f 14/22/1 3/3/1 2/2/1
f 11/7/1 3/3/1 14/22/1
f 3/3/1 11/7/1 8/4/1
f 10/23/6 13/24/6 9/25/6
f 12/26/7 13/27/7 10/28/7
usemtl FrontColor.001
f 1/29/8 2/30/8 3/31/8 4/32/8
f 1/33/9 5/34/9 6/35/9 2/36/9
f 5/37/1 1/38/1 4/39/1 7/40/1
f 3/41/10 8/42/10 7/43/10 4/44/10
f 7/45/11 8/46/11 6/47/11 5/48/11
