# Blender v2.78 (sub 0) OBJ File: ''
# www.blender.org
mtllib Oak_Green_01.mtl
o Mesh1_Oak_Green_Model
v 1.576170 1.533500 -1.365000
v 0.788083 1.533500 -1.820000
v 0.788083 2.817000 -1.820000
v 1.576170 2.817000 -1.365000
v 0.788083 1.270000 -1.419600
v 1.229410 1.270000 -1.164800
v 0.346757 1.270000 -1.164800
v 0.000000 1.533500 -1.365000
v 0.000000 1.533500 -0.455000
v 0.346757 1.270000 -0.655200
v 0.000000 2.817000 -0.455000
v 0.000000 2.817000 -1.365000
v 0.788083 1.533500 0.000000
v 0.788083 2.817000 0.000000
v 0.788083 1.270000 -0.400400
v 1.229410 1.270000 -0.655200
v 1.576170 1.533500 -0.455000
v 0.902339 1.270000 -0.795744
v 0.673827 1.270000 -0.795744
v 0.673827 1.270000 -1.024260
v 0.902339 1.270000 -1.024260
v 0.968014 0.000000 -0.730070
v 0.968014 0.000000 -1.089930
v 0.608153 0.000000 -0.730070
v 0.608153 0.000000 -1.089930
v 1.576170 2.817000 -0.455000
v 1.245170 4.508500 -1.173899
v 1.245170 4.508500 -0.646099
v 0.788083 4.508500 -1.437799
v 0.330995 4.508500 -1.173899
v 0.330995 4.508500 -0.646099
v 0.788083 4.933500 -0.909999
v 0.788083 4.508500 -0.382199
vt -0.3102 0.6970
vt 0.1034 0.6970
vt 0.1034 1.2804
vt -0.3102 1.2804
vt 0.0124 0.9368
vt 0.1034 1.1348
vt -0.3102 1.1348
vt -0.2192 0.9368
vt -0.4012 0.6516
vt -0.3102 0.8496
vt -0.7239 0.8496
vt -0.6329 0.6516
vt -0.2068 0.4217
vt -0.6205 0.4217
vt -0.5295 0.2238
vt -0.2978 0.2238
vt -0.6205 0.6970
vt -0.2068 0.6970
vt -0.2068 1.2804
vt -0.6205 1.2804
vt -0.1034 0.6970
vt 0.3102 0.6970
vt 0.3102 1.2804
vt -0.1034 1.2804
vt 0.2192 0.0812
vt 0.3102 0.2791
vt -0.1034 0.2791
vt -0.0124 0.0812
vt 0.6329 0.3664
vt 0.7239 0.5643
vt 0.3102 0.5643
vt 0.4012 0.3664
vt 0.2978 0.7942
vt 0.5295 0.7942
vt 0.6205 0.9922
vt 0.2068 0.9922
vt -0.5588 0.2978
vt -0.4102 0.3617
vt -0.5588 0.5295
vt -0.3582 0.1820
vt -0.3063 0.3617
vt -0.1576 0.2978
vt -0.3063 0.4656
vt -0.3582 0.6453
vt -0.1576 0.5295
vt -0.4102 0.4656
vt 0.2068 0.6970
vt 0.6205 0.6970
vt 0.6205 1.2804
vt 0.2068 1.2804
vt 0.2068 1.1190
vt 0.6205 1.1190
vt 0.5336 1.9025
vt 0.2937 1.9025
vt 0.1034 1.0846
vt 0.0165 1.8681
vt -0.2234 1.8681
vt -0.3102 1.0846
vt -0.3102 1.1534
vt -0.3971 1.9369
vt -0.6370 1.9369
vt -0.7239 1.1534
vt -0.2937 2.0401
vt -0.5336 2.0401
vt -0.6205 1.2566
vt -0.2068 1.2566
vt -0.2937 1.5056
vt -0.4136 1.7893
vt -0.5336 1.5056
vt 0.2234 1.6368
vt 0.1034 1.9205
vt -0.0165 1.6368
vt 0.5170 1.6582
vt 0.3971 1.3745
vt 0.6370 1.3745
vt 0.7239 1.2222
vt 0.6370 2.0057
vt 0.3971 2.0057
vt 0.3102 1.2222
vt 0.3102 1.2910
vt 0.2234 2.0745
vt -0.0165 2.0745
vt -0.1034 1.2910
vt 0.7239 0.6970
vt 0.7239 1.2804
vt 0.5336 0.9810
vt 0.4136 1.2646
vt 0.2937 0.9810
vt 0.0165 0.8498
vt -0.1034 1.1335
vt -0.2234 0.8498
vt -0.3971 1.1121
vt -0.5170 1.3958
vt -0.6370 1.1121
vt -0.7239 0.6970
vt -0.3102 0.6970
vt -0.3102 1.2804
vt -0.7239 1.2804
vt 0.3318 -0.0227
vt 0.4954 -0.0227
vt 0.4656 0.5553
vt 0.3617 0.5553
vt -0.2764 0.3318
vt -0.2764 0.4954
vt -0.4400 0.4954
vt -0.4400 0.3318
vt -0.3318 0.0143
vt -0.3617 0.5923
vt -0.4656 0.5923
vt -0.4954 0.0143
vt 0.4400 0.0171
vt 0.4102 0.5952
vt 0.3063 0.5952
vt 0.2764 0.0171
vt -0.2764 -0.0256
vt -0.3063 0.5525
vt -0.4102 0.5525
vt -0.4400 -0.0256
vn 0.5000 0.0000 -0.8660
vn 0.4977 0.0965 -0.8620
vn 0.3025 -0.7962 -0.5240
vn -0.3025 -0.7962 -0.5240
vn -0.6050 -0.7962 -0.0000
vn -1.0000 0.0000 -0.0000
vn -0.9953 0.0965 0.0000
vn -0.5000 -0.0000 0.8660
vn -0.4977 0.0965 0.8620
vn -0.3025 -0.7962 0.5240
vn 0.3025 -0.7962 0.5240
vn 0.6050 -0.7962 -0.0000
vn 0.0000 -1.0000 -0.0000
vn 1.0000 0.0000 0.0000
vn 0.9953 0.0964 0.0000
vn 0.9814 0.1920 0.0000
vn 0.4907 0.1920 -0.8499
vn -0.4977 0.0965 -0.8620
vn -0.4907 0.1920 -0.8499
vn -0.9814 0.1920 0.0000
vn -0.6809 0.7323 0.0000
vn -0.3405 0.7323 0.5897
vn 0.3405 0.7323 0.5897
vn 0.4977 0.0965 0.8620
vn 0.4907 0.1920 0.8499
vn -0.4907 0.1920 0.8499
vn 0.5000 -0.0000 0.8660
vn 0.6809 0.7323 0.0000
vn 0.3405 0.7323 -0.5897
vn -0.3405 0.7323 -0.5897
vn -0.5000 0.0000 -0.8660
vn 0.9987 0.0516 0.0000
vn -0.9987 0.0516 0.0000
vn 0.0000 0.0516 0.9987
vn 0.0000 0.0516 -0.9987
usemtl Green_leafs.009
s 1
f 1/1/1 2/2/1 3/3/2 4/4/2
f 5/5/3 2/6/3 1/7/3 6/8/3
f 7/9/4 8/10/4 2/11/4 5/12/4
f 9/13/5 8/14/5 7/15/5 10/16/5
f 8/17/6 9/18/6 11/19/7 12/20/7
f 9/21/8 13/22/8 14/23/9 11/24/9
f 15/25/10 13/26/10 9/27/10 10/28/10
f 16/29/11 17/30/11 13/31/11 15/32/11
f 16/33/12 6/34/12 1/35/12 17/36/12
f 16/37/13 18/38/13 6/39/13
f 15/40/13 18/38/13 16/37/13
f 15/40/13 19/41/13 18/38/13
f 10/42/13 19/41/13 15/40/13
f 19/41/13 10/42/13 20/43/13
f 10/42/13 5/44/13 20/43/13
f 5/44/13 10/42/13 7/45/13
f 20/43/13 5/44/13 21/46/13
f 21/46/13 5/44/13 6/39/13
f 21/46/13 6/39/13 18/38/13
f 17/47/14 1/48/14 4/49/15 26/50/15
f 26/51/15 4/52/15 27/53/16 28/54/16
f 3/55/2 29/56/17 27/57/17 4/58/2
f 12/59/18 30/60/19 29/61/19 3/62/18
f 31/63/20 30/64/20 12/65/7 11/66/7
f 31/67/21 32/68/21 30/69/21
f 33/70/22 32/71/22 31/72/22
f 32/73/23 33/74/23 28/75/23
f 26/76/24 28/77/25 33/78/25 14/79/24
f 14/80/9 33/81/26 31/82/26 11/83/9
f 13/22/27 17/84/27 26/85/24 14/23/24
f 27/86/28 32/87/28 28/88/28
f 29/89/29 32/90/29 27/91/29
f 30/92/30 32/93/30 29/94/30
f 2/95/31 8/96/31 12/97/18 3/98/18
usemtl Wood.023
f 22/99/32 23/100/32 21/101/32 18/102/32
f 24/103/13 25/104/13 23/105/13 22/106/13
f 24/107/33 19/108/33 20/109/33 25/110/33
f 22/111/34 18/112/34 19/113/34 24/114/34
f 25/115/35 20/116/35 21/117/35 23/118/35
