# Blender v2.78 (sub 0) OBJ File: ''
# www.blender.org
mtllib Plant_2_01.mtl
o Mesh1_Plant_2_Model
v 0.375162 0.000000 -0.124348
v 0.375162 0.000000 -0.375162
v 0.375162 0.635350 -0.375162
v 0.375162 0.349284 -0.268606
v 0.375162 0.420713 -0.116868
v 0.375162 0.190814 -0.153913
v 0.375162 0.135586 0.000000
v 0.375162 0.349284 -0.481718
v 0.375162 0.000000 -0.625976
v 0.375162 0.135586 -0.750324
v 0.375162 0.190814 -0.596411
v 0.375162 0.420713 -0.633457
v 0.481718 0.349284 -0.375162
v 0.625976 0.000000 -0.375162
v 0.750324 0.135586 -0.375162
v 0.596411 0.190814 -0.375162
v 0.633457 0.420713 -0.375162
v 0.124348 0.000000 -0.375162
v 0.268606 0.349284 -0.375162
v 0.116868 0.420713 -0.375162
v 0.153913 0.190814 -0.375162
v 0.000000 0.135586 -0.375162
vt 0.0565 -0.0000
vt 0.1705 -0.0000
vt 0.1705 0.2888
vt 0.1221 0.1588
vt 0.0531 0.1912
vt 0.0700 0.0867
vt -0.0000 0.0616
vt 0.2190 0.1588
vt 0.2845 -0.0000
vt 0.3411 0.0616
vt 0.2711 0.0867
vt 0.2879 0.1912
vt 0.2190 0.1588
vt 0.2845 0.0000
vt 0.3411 0.0616
vt 0.2711 0.0867
vt 0.2879 0.1912
vt 0.0565 0.0000
vt 0.1221 0.1588
vt 0.0531 0.1912
vt 0.0700 0.0867
vt 0.0000 0.0616
vn 1.0000 0.0000 0.0000
vn 0.0000 -0.0000 1.0000
usemtl Green_leafs.011
s 1
f 1/1/1 2/2/1 3/3/1 4/4/1 5/5/1 6/6/1 7/7/1
f 8/8/1 3/3/1 2/2/1 9/9/1 10/10/1 11/11/1 12/12/1
f 13/13/2 3/3/2 2/2/2 14/14/2 15/15/2 16/16/2 17/17/2
f 18/18/2 2/2/2 3/3/2 19/19/2 20/20/2 21/21/2 22/22/2
