# Blender v2.78 (sub 0) OBJ File: ''
# www.blender.org
mtllib Plate_Grass_Dirt_01.mtl
o Mesh1_Plate_Grass_Dirt_Model
v 0.000000 0.000000 0.000000
v 3.000000 0.000000 0.000000
v 3.000000 0.300000 0.000000
v 0.000000 0.300000 0.000000
v 3.000000 0.000000 -3.000000
v 0.000000 0.000000 -3.000000
v 3.000000 0.300000 -3.000000
v 0.000000 0.300000 -3.000000
vt 1.3636 0.0000
vt 1.3636 1.3636
vt 0.0000 1.3636
vt 0.0000 0.0000
vt 0.0000 0.0000
vt 1.3636 0.0000
vt 1.3636 0.1364
vt 0.0000 0.1364
vt -1.3636 1.3636
vt -1.3636 0.0000
vt 0.0000 1.3636
vt 0.0000 0.0000
vt 1.3636 0.0000
vt 1.3636 0.1364
vt 0.0000 0.1364
vt -1.3636 0.0000
vt 0.0000 0.0000
vt 0.0000 0.1364
vt -1.3636 0.1364
vt -1.3636 0.0000
vt -1.3636 0.1364
vn 0.0000 1.0000 0.0000
vn 0.0000 -0.0000 1.0000
vn 0.0000 -1.0000 -0.0000
vn 1.0000 0.0000 0.0000
vn 0.0000 0.0000 -1.0000
vn -1.0000 0.0000 0.0000
usemtl Leafs.019
s 1
f 3/1/1 7/2/1 8/3/1 4/4/1
usemtl Wood.024
f 1/5/2 2/6/2 3/7/2 4/8/2
f 5/9/3 2/10/3 1/5/3 6/11/3
f 2/12/4 5/13/4 7/14/4 3/15/4
f 5/16/5 6/17/5 8/18/5 7/19/5
f 6/20/6 1/5/6 4/8/6 8/21/6
