# Blender v2.78 (sub 0) OBJ File: ''
# www.blender.org
mtllib Rock_3_01.mtl
o Mesh1_Rock_3_Model
v 0.263472 0.680000 -0.424352
v 0.376736 0.680000 -0.620532
v 0.350168 0.320000 -0.666549
v 0.210336 0.320000 -0.424352
v 0.603264 0.680000 -0.620532
v 0.376736 0.680000 -0.228173
v 0.603264 0.680000 -0.228173
v 0.716528 0.680000 -0.424352
v 0.629832 0.320000 -0.666549
v 0.769664 0.320000 -0.424352
v 0.686000 0.320000 -0.763834
v 0.294000 0.320000 -0.763834
v 0.098000 0.320000 -0.424352
v 0.245000 0.000000 -0.848705
v 0.000000 0.000000 -0.424352
v 0.735000 0.000000 -0.848705
v 0.980000 0.000000 -0.424352
v 0.882000 0.320000 -0.424352
v 0.245000 0.000000 -0.000000
v 0.735000 0.000000 0.000000
v 0.294000 0.320000 -0.084870
v 0.350168 0.320000 -0.182156
v 0.686000 0.320000 -0.084870
v 0.629832 0.320000 -0.182156
vt -0.2269 0.3075
vt -0.3299 0.3075
vt -0.3420 0.1426
vt -0.2148 0.1426
vt 0.2742 0.2821
vt 0.1712 0.2821
vt 0.1198 0.1929
vt 0.1712 0.1037
vt 0.2742 0.1037
vt 0.3257 0.1929
vt -0.1592 0.1059
vt -0.1712 0.2708
vt -0.2742 0.2708
vt -0.2863 0.1059
vt -0.0079 0.0936
vt 0.1192 0.0936
vt 0.1072 0.2586
vt 0.0042 0.2586
vt 0.3118 0.3472
vt 0.2863 0.3030
vt 0.3498 0.1929
vt 0.1592 0.3030
vt 0.1336 0.3472
vt 0.0956 0.1929
vt 0.0445 0.1929
vt -0.1893 0.1258
vt -0.3675 0.1258
vt -0.3898 -0.0247
vt -0.1670 -0.0247
vt -0.1114 -0.0989
vt -0.1336 0.0516
vt -0.3118 0.0516
vt -0.3341 -0.0989
vt -0.0557 -0.1236
vt 0.1670 -0.1236
vt 0.1448 0.0269
vt -0.0334 0.0269
vt -0.1114 0.0000
vt 0.0000 0.1929
vt -0.1114 0.3858
vt -0.3341 0.3858
vt -0.4455 0.1929
vt -0.3341 0.0000
vt 0.0334 0.1752
vt -0.1448 0.1752
vt -0.1670 0.0247
vt 0.0557 0.0247
vt 0.1336 0.0386
vt 0.1592 0.0828
vt 0.3118 0.0386
vt 0.3341 0.0000
vt 0.3118 0.1505
vt 0.1336 0.1505
vt 0.1114 0.0000
vt 0.1670 -0.0742
vt 0.3898 -0.0742
vt 0.3675 0.0763
vt 0.1893 0.0763
vt 0.4009 0.1929
vt 0.2863 0.0828
vt 0.2863 0.1548
vt 0.2742 0.3197
vt 0.1712 0.3197
vt 0.1592 0.1548
vt 0.2148 0.1181
vt 0.3420 0.1181
vt 0.3299 0.2831
vt 0.2269 0.2831
vt -0.0042 0.3320
vt -0.1072 0.3320
vt -0.1192 0.1670
vt 0.0079 0.1670
vn -0.8590 0.1268 -0.4960
vn 0.0000 1.0000 0.0000
vn 0.0000 0.1268 -0.9919
vn 0.8590 0.1268 -0.4960
vn -0.8371 0.2564 -0.4833
vn 0.0000 0.2564 -0.9666
vn 0.8371 0.2564 -0.4833
vn -0.0000 -1.0000 -0.0000
vn -0.8371 0.2564 0.4833
vn 0.0000 0.2564 0.9666
vn 0.8371 0.2564 0.4833
vn 0.0000 0.1268 0.9919
vn 0.8590 0.1268 0.4960
vn -0.8590 0.1268 0.4960
usemtl Stone.020
s 1
f 1/1/1 2/2/1 3/3/1 4/4/1
f 5/5/2 2/6/2 1/7/2 6/8/2 7/9/2 8/10/2
f 3/11/3 2/12/3 5/13/3 9/14/3
f 10/15/4 9/16/4 5/17/4 8/18/4
f 11/19/2 9/20/2 10/21/2
f 11/19/2 3/22/2 9/20/2
f 12/23/2 3/22/2 11/19/2
f 12/23/2 4/24/2 3/22/2
f 4/24/2 12/23/2 13/25/2
f 13/26/5 12/27/5 14/28/5 15/29/5
f 14/30/6 12/31/6 11/32/6 16/33/6
f 17/34/7 16/35/7 11/36/7 18/37/7
f 19/38/8 15/39/8 14/40/8 16/41/8 17/42/8 20/43/8
f 21/44/9 13/45/9 15/46/9 19/47/9
f 21/48/2 4/24/2 13/25/2
f 4/24/2 21/48/2 22/49/2
f 22/49/2 21/48/2 23/50/2
f 20/51/10 23/52/10 21/53/10 19/54/10
f 20/55/11 17/56/11 18/57/11 23/58/11
f 10/21/2 23/50/2 18/59/2
f 24/60/2 23/50/2 10/21/2
f 22/49/2 23/50/2 24/60/2
f 24/61/12 7/62/12 6/63/12 22/64/12
f 24/65/13 10/66/13 8/67/13 7/68/13
f 6/69/14 1/70/14 4/71/14 22/72/14
f 11/19/2 10/21/2 18/59/2
