# Blender v2.78 (sub 0) OBJ File: ''
# www.blender.org
mtllib Rock_6_01.mtl
o Mesh1_Rock_6_Model
v 0.000000 0.000000 -0.601275
v 0.500000 0.000000 0.000000
v 0.516773 0.340000 -0.365546
v 0.311522 0.340000 -0.612370
v 0.286158 0.000000 -1.000000
v 0.832586 0.000000 -0.805538
v 1.000000 0.000000 -0.500000
v 0.378312 0.340000 -0.705433
v 0.661429 0.340000 -0.604677
v 0.694871 0.340000 -0.543644
vt -0.2101 0.1026
vt 0.1453 0.1026
vt 0.0224 0.2935
vt -0.1235 0.2935
vt -0.1301 0.4545
vt -0.3784 0.3662
vt -0.4545 0.2273
vt -0.2273 0.0000
vt 0.0000 0.2733
vt -0.2338 -0.2770
vt 0.0299 -0.2770
vt -0.0545 -0.0861
vt -0.1911 -0.0861
vt -0.4451 -0.0936
vt -0.2220 -0.0936
vt -0.3087 0.0974
vt -0.3608 0.0974
vt 0.1720 0.3207
vt 0.1416 0.2783
vt 0.2349 0.1662
vt 0.3158 0.2471
vt 0.3007 0.2749
vt 0.1607 -0.0944
vt 0.4821 -0.0944
vt 0.3981 0.0966
vt 0.2836 0.0966
vt -0.0191 -0.2982
vt 0.1393 -0.2982
vt 0.0966 -0.1073
vt 0.0649 -0.1073
vn -0.6224 0.5872 0.5176
vn 0.0000 -1.0000 -0.0000
vn 0.2714 0.5872 -0.7626
vn -0.6576 0.5872 -0.4720
vn -0.0000 1.0000 0.0000
vn 0.5724 0.5872 0.5724
vn 0.7099 0.5872 -0.3890
usemtl Stone.023
s 1
f 1/1/1 2/2/1 3/3/1 4/4/1
f 5/5/2 6/6/2 7/7/2 2/8/2 1/9/2
f 6/10/3 5/11/3 8/12/3 9/13/3
f 5/14/4 1/15/4 4/16/4 8/17/4
f 8/18/5 4/19/5 3/20/5 10/21/5 9/22/5
f 2/23/6 7/24/6 10/25/6 3/26/6
f 7/27/7 6/28/7 9/29/7 10/30/7
