# Blender v2.78 (sub 0) OBJ File: ''
# www.blender.org
mtllib Rock_1_01.mtl
o Mesh1_Rock_1_Model
v 0.212400 0.640000 -0.510955
v 0.401200 0.640000 -0.183944
v 0.778800 0.640000 -0.183944
v 0.967600 0.640000 -0.510955
v 0.778800 0.640000 -0.837966
v 0.401200 0.640000 -0.837966
v 0.000000 0.000000 -0.510955
v 0.295000 0.000000 -0.000000
v 0.295000 0.000000 -1.021910
v 0.885000 0.000000 -1.021910
v 1.180000 0.000000 -0.510955
v 0.885000 0.000000 0.000000
vt 0.0965 0.2323
vt 0.1824 0.0836
vt 0.3540 0.0836
vt 0.4398 0.2323
vt 0.3540 0.3809
vt 0.1824 0.3809
vt 0.0188 0.3348
vt -0.1529 0.3348
vt -0.2011 0.0321
vt 0.0670 0.0321
vt -0.2494 0.2706
vt -0.4210 0.2706
vt -0.4693 -0.0321
vt -0.2011 -0.0321
vt -0.1341 -0.1283
vt -0.1824 0.1744
vt -0.3540 0.1744
vt -0.4023 -0.1283
vt -0.0670 -0.1604
vt 0.2011 -0.1604
vt 0.1529 0.1423
vt -0.0188 0.1423
vt -0.1341 0.0000
vt 0.0000 0.2323
vt -0.1341 0.4645
vt -0.4023 0.4645
vt -0.5364 0.2323
vt -0.4023 0.0000
vt 0.2011 -0.0962
vt 0.4693 -0.0962
vt 0.4210 0.2065
vt 0.2494 0.2065
vt 0.4023 0.0000
vt 0.3540 0.3027
vt 0.1824 0.3027
vt 0.1341 0.0000
vn 0.0000 1.0000 0.0000
vn -0.8323 0.2762 0.4805
vn -0.8323 0.2762 -0.4805
vn 0.0000 0.2762 -0.9611
vn 0.8323 0.2762 -0.4805
vn 0.0000 -1.0000 -0.0000
vn 0.8323 0.2762 0.4805
vn 0.0000 0.2762 0.9611
usemtl Stone.018
s 1
f 1/1/1 2/2/1 3/3/1 4/4/1 5/5/1 6/6/1
f 2/7/2 1/8/2 7/9/2 8/10/2
f 1/11/3 6/12/3 9/13/3 7/14/3
f 9/15/4 6/16/4 5/17/4 10/18/4
f 11/19/5 10/20/5 5/21/5 4/22/5
f 8/23/6 7/24/6 9/25/6 10/26/6 11/27/6 12/28/6
f 12/29/7 11/30/7 4/31/7 3/32/7
f 12/33/8 3/34/8 2/35/8 8/36/8
