# Blender v2.78 (sub 0) OBJ File: ''
# www.blender.org
mtllib Tall_Rock_3_01.mtl
o Mesh1_Tall_Rock_3_Model
v 1.593490 0.000000 -0.460000
v 1.434140 0.560000 -0.552000
v 0.796743 0.560000 -0.184000
v 0.796743 0.000000 0.000000
v 1.593490 0.000000 -1.380000
v 1.434140 0.560000 -1.288000
v 0.796743 0.000000 -1.840000
v 0.000000 0.000000 -1.380000
v 0.000000 0.000000 -0.460000
v 0.159349 0.560000 -1.288000
v 0.796743 0.560000 -1.656000
v 0.159349 0.560000 -0.761934
v 0.159349 0.560000 -0.552000
v 0.747635 0.560000 -0.761934
v 0.659291 0.560000 -1.243900
v 1.115440 0.560000 -1.472000
v 0.261332 0.920000 -0.772504
v 0.755492 0.920000 -0.772504
v 0.261332 0.920000 -0.596160
v 0.421955 1.970000 -0.628896
v 0.421955 1.970000 -0.752337
v 1.171530 1.970000 -0.628896
v 1.171530 1.970000 -0.839075
v 0.967061 1.970000 -0.998049
v 0.741895 1.970000 -0.894036
v 0.767868 1.970000 -0.752337
v 0.796743 1.970000 -0.412512
v 1.332150 0.920000 -0.596160
v 1.332150 0.920000 -0.896416
v 1.332150 0.920000 -1.214400
v 1.064450 0.920000 -1.368960
v 0.681284 0.920000 -1.177360
v 0.718388 0.920000 -0.974932
v 1.040050 0.920000 -1.123520
v 0.796743 0.920000 -0.287040
vt 0.7318 -0.0496
vt 0.6900 0.2151
vt 0.3555 0.2151
vt 0.3136 -0.0496
vt 0.2091 -0.1982
vt 0.6273 -0.1982
vt 0.5855 0.0664
vt 0.2509 0.0664
vt 0.3622 0.8364
vt 0.0000 0.6273
vt 0.0000 0.2091
vt 0.3622 0.0000
vt 0.7243 0.2091
vt 0.7243 0.6273
vt -0.3136 -0.1487
vt -0.3555 0.1160
vt -0.6900 0.1160
vt -0.7318 -0.1487
vt -0.3463 0.2646
vt -0.5855 0.2646
vt -0.6273 0.0000
vt -0.2091 0.0000
vt -0.2509 0.2646
vt 0.0724 0.5855
vt 0.0724 0.3463
vt 0.3398 0.3463
vt 0.2997 0.5654
vt 0.5070 0.6691
vt 0.3622 0.7527
vt -0.0724 0.2646
vt -0.1188 0.4283
vt -0.3434 0.4283
vt -0.3398 0.2646
vt -0.2710 0.4347
vt -0.3511 0.4347
vt -0.2859 0.9142
vt -0.3420 0.9142
vt -0.3511 0.4313
vt -0.2710 0.4313
vt 0.5325 0.2859
vt 0.5325 0.3814
vt 0.4396 0.4537
vt 0.3372 0.4064
vt 0.3490 0.3420
vt 0.1918 0.3420
vt 0.1918 0.2859
vt 0.3622 0.1875
vt 0.2710 0.3218
vt 0.4075 0.3218
vt 0.3814 0.8046
vt 0.2859 0.8046
vt 0.2509 0.0672
vt 0.5855 0.0672
vt 0.5520 0.2373
vt 0.4075 0.2373
vt 0.2710 0.2373
vt -0.1045 -0.0104
vt -0.1079 0.1613
vt -0.2484 0.1613
vt -0.2718 -0.0104
vt -0.5209 0.1796
vt -0.5163 0.3463
vt -0.7111 0.3463
vt -0.7527 0.1796
vt -0.3770 0.4288
vt -0.4706 0.4288
vt -0.5021 0.2651
vt -0.2794 0.2651
vt -0.2835 0.4288
vt 0.3097 0.5352
vt 0.3265 0.4432
vt 0.4728 0.5107
vt 0.6055 0.4075
vt 0.6055 0.5520
vt 0.4838 0.6223
vt -0.4823 0.3959
vt -0.4766 0.8747
vt -0.5893 0.8747
vt -0.6433 0.3959
vt -0.2734 0.8987
vt -0.3389 0.8987
vt -0.3770 0.4214
vt -0.2835 0.4214
vt -0.1188 0.4114
vt -0.1918 0.8887
vt -0.3490 0.8887
vt -0.3434 0.4114
vt -0.0598 0.3202
vt -0.0686 0.8019
vt -0.1863 0.8019
vt -0.2279 0.3202
vt 0.1045 -0.2478
vt 0.0627 0.0169
vt -0.1045 0.0169
vt -0.2718 0.0169
vt -0.3136 -0.2478
vt 0.6900 0.2209
vt 0.6599 0.3895
vt 0.3789 0.3895
vt 0.3555 0.2209
vt 0.6599 0.4090
vt 0.6041 0.8888
vt 0.4074 0.8888
vt 0.3789 0.4090
vt 0.2484 0.4462
vt 0.2199 0.9261
vt 0.0232 0.9261
vt -0.0326 0.4462
vt 0.2718 0.3081
vt 0.2484 0.4766
vt -0.0326 0.4766
vt -0.0627 0.3081
vt 0.3136 0.0496
vt 0.2718 0.3142
vt -0.0627 0.3142
vt -0.1045 0.0496
vn 0.4809 0.2737 0.8330
vn 0.4832 0.2572 0.8369
vn 0.4832 0.2573 0.8369
vn 0.9618 0.2737 0.0000
vn 0.9620 0.2732 0.0000
vn 0.0000 1.0000 0.0000
vn -0.4809 0.2737 -0.8330
vn -0.9619 0.2733 0.0000
vn -0.9618 0.2737 0.0000
vn -0.9620 0.2732 0.0000
vn 0.0000 -0.0293 -0.9996
vn -0.0000 -0.0051 -1.0000
vn 0.0000 -0.0048 -1.0000
vn -0.9772 0.2123 0.0000
vn -0.9772 0.2121 0.0000
vn -0.9885 0.1512 0.0000
vn 0.9772 0.2123 0.0000
vn 0.9885 0.1512 0.0000
vn 0.9621 0.2726 0.0000
vn 0.4787 0.2887 -0.8292
vn 0.4764 0.3037 -0.8251
vn 0.4787 0.2887 -0.8291
vn -0.4392 0.1892 -0.8783
vn -0.9835 0.0175 0.1803
vn -0.9833 0.0268 0.1802
vn -0.4180 0.0791 -0.9050
vn -0.9836 0.0081 0.1803
vn 0.0000 0.0192 -0.9998
vn 0.6081 0.1357 -0.7822
vn 0.4809 0.2737 -0.8330
vn 0.4925 0.1722 0.8531
vn 0.4973 0.1029 0.8614
vn -0.4925 0.1722 0.8531
vn -0.4973 0.1029 0.8614
vn -0.4832 0.2572 0.8369
vn -0.4809 0.2737 0.8330
usemtl Stone.026
s 1
f 1/1/1 2/2/2 3/3/3 4/4/1
f 1/5/4 5/6/4 6/7/5 2/8/5
f 7/9/6 8/10/6 9/11/6 4/12/6 1/13/6 5/14/6
f 8/15/7 10/16/7 11/17/7 7/18/7
f 12/19/8 10/20/9 8/21/9 9/22/9 13/23/10
f 10/24/6 12/25/6 14/26/6 15/27/6 16/28/6 11/29/6
f 12/30/11 17/31/12 18/32/13 14/33/11
f 19/34/14 17/35/15 12/19/8 13/23/10
f 20/36/16 21/37/16 17/38/15 19/39/14
f 22/40/6 23/41/6 24/42/6 25/43/6 26/44/6 21/45/6 20/46/6 27/47/6
f 28/48/17 29/49/17 23/50/18 22/51/18
f 2/52/5 6/53/5 30/54/19 29/55/17 28/56/17
f 16/57/20 31/58/21 30/59/21 6/60/22
f 15/61/23 32/62/23 31/63/23 16/64/23
f 33/65/24 32/66/25 15/67/25 14/68/25 18/69/24
f 32/70/6 33/71/6 34/72/6 29/73/6 30/74/6 31/75/6
f 33/76/26 25/77/26 24/78/26 34/79/26
f 26/80/27 25/81/27 33/82/24 18/83/24
f 17/84/12 21/85/28 26/86/28 18/87/13
f 34/88/29 24/89/29 23/90/29 29/91/29
f 7/92/30 11/93/30 16/94/20 6/95/22 5/96/30
f 2/97/2 28/98/31 35/99/31 3/100/3
f 28/101/31 22/102/32 27/103/32 35/104/31
f 35/105/33 27/106/34 20/107/34 19/108/33
f 3/109/35 35/110/33 19/111/33 13/112/35
f 4/113/36 3/114/35 13/115/35 9/116/36
