# Blender v2.78 (sub 0) OBJ File: ''
# www.blender.org
mtllib Tree_01.mtl
o Mesh1_Tree_Model
v 0.000000 0.000000 -1.295700
v 0.177000 0.600000 -1.003000
v 1.003000 0.600000 -1.003000
v 1.180000 0.000000 -1.295700
v 0.177000 0.600000 -0.177000
v 0.000000 0.000000 0.000000
v -0.096935 0.600000 -0.082600
v 1.097400 0.600000 -0.082600
v 1.003000 0.600000 -0.177000
v 1.180000 0.000000 0.000000
v 0.786697 0.000000 -0.393303
v 0.393303 0.000000 -0.393303
v 0.393303 0.000000 -0.786697
v 0.786697 0.000000 -0.786697
v 0.837838 -0.495868 -0.342162
v 0.837838 -0.495868 -0.837838
v 0.342162 -0.495868 -0.342162
v 0.342162 -0.495868 -0.837838
v 1.097400 0.600000 -1.097400
v -0.096935 0.600000 -1.097400
v 0.234820 1.343040 -0.234820
v 0.234820 1.343040 -0.945180
v 0.153636 1.343040 -0.153636
v 1.142070 1.343040 -0.153636
v 0.945180 1.343040 -0.234820
v 0.945180 1.343040 -0.945180
v 1.142070 1.343040 -1.026360
v 0.153636 1.343040 -1.026360
v 0.383388 3.216760 -0.589999
vt 0.1555 -0.2633
vt 0.3808 -0.2633
vt 0.3576 -0.0367
vt 0.1788 -0.0367
vt -0.1555 0.1555
vt -0.1555 0.3808
vt -0.3808 0.3808
vt -0.3808 0.1555
vt -0.1788 0.0183
vt -0.3576 0.0183
vt -0.3808 -0.2082
vt -0.1555 -0.2082
vt -0.1555 -0.2633
vt -0.1788 -0.0367
vt -0.3576 -0.0367
vt -0.3808 -0.2633
vt 0.3808 -0.2082
vt 0.3576 0.0183
vt 0.1788 0.0183
vt 0.1555 -0.2082
vt -0.0000 -0.2582
vt -0.0805 0.0452
vt -0.4559 0.0452
vt -0.5364 -0.2582
vt -0.0805 0.2843
vt -0.4559 0.2843
vt -0.5890 0.0000
vt 0.0000 0.0000
vt -0.0805 0.0805
vt 0.0441 0.0375
vt -0.0805 0.4559
vt -0.4988 0.0375
vt -0.4559 0.0805
vt 0.5364 -0.0000
vt 0.4559 0.2843
vt 0.0805 0.2843
vt 0.0000 -0.1518
vt 0.5890 -0.1518
vt 0.4559 0.1326
vt 0.0805 0.1326
vt -0.5364 0.0000
vt -0.3576 0.1788
vt -0.5364 0.5890
vt -0.1788 0.1788
vt -0.1788 0.3576
vt 0.0000 0.5890
vt -0.3576 0.3576
vt -0.4559 0.4559
vt -0.4988 0.4988
vt 0.0441 0.4988
vt -0.1067 0.6010
vt -0.4296 0.6010
vt -0.4988 0.2311
vt -0.0375 0.2311
vt -0.1067 0.1067
vt -0.0698 0.0698
vt -0.1067 0.4296
vt -0.5191 0.0698
vt -0.4296 0.1067
vt 0.4988 0.2747
vt 0.4296 0.6195
vt 0.1067 0.6195
vt -0.0441 0.2747
vt 0.0375 0.1671
vt 0.4988 0.1671
vt 0.4296 0.5118
vt 0.1067 0.5118
vt 0.0441 0.1671
vt -0.1067 0.5118
vt -0.4296 0.5118
vt -0.4988 0.1671
vt -0.5191 0.4665
vt -0.4296 0.4296
vt -0.0698 0.4665
vt -0.2682 1.4725
vt -0.4665 0.6144
vt -0.0698 0.6144
vt -0.1743 1.3632
vt -0.5191 0.4887
vt -0.0698 0.4887
vt 0.4665 0.3710
vt 0.2682 1.2899
vt 0.0698 0.3710
vt 0.5191 0.6104
vt 0.1743 1.4849
vt 0.0698 0.6104
vn 0.9947 0.1026 0.0000
vn 0.0000 -1.0000 -0.0000
vn -0.9947 0.1026 0.0000
vn 0.0000 0.1026 -0.9947
vn 0.0000 0.1026 0.9947
vn 0.0000 0.4384 -0.8988
vn -0.9591 0.2829 0.0000
vn 0.0000 0.2829 0.9591
vn 0.9591 0.2829 0.0000
vn -0.9131 0.4077 0.0000
vn 0.0000 0.2007 0.9797
vn 0.9797 0.2007 0.0000
vn 0.0000 0.2007 -0.9797
vn -0.9926 0.1217 0.0000
vn 0.0000 0.2268 -0.9739
vn 0.9269 0.3753 0.0000
vn 0.0000 0.2268 0.9739
usemtl Wood.028
s 1
f 15/1/1 16/2/1 14/3/1 11/4/1
f 17/5/2 18/6/2 16/7/2 15/8/2
f 12/9/3 13/10/3 18/11/3 17/12/3
f 18/13/4 13/14/4 14/15/4 16/16/4
f 15/17/5 11/18/5 12/19/5 17/20/5
usemtl Leafs.026
f 1/21/6 2/22/6 3/23/6 4/24/6
f 5/25/7 2/26/7 1/27/7 6/28/7
f 5/29/2 7/30/2 2/31/2
f 7/30/2 5/29/2 8/32/2
f 8/32/2 5/29/2 9/33/2
f 10/34/8 9/35/8 5/36/8 6/28/8
f 10/37/9 4/38/9 3/39/9 9/40/9
f 10/41/2 11/42/2 4/43/2
f 10/41/2 12/44/2 11/42/2
f 6/28/2 12/44/2 10/41/2
f 12/44/2 6/28/2 13/45/2
f 1/46/2 13/45/2 6/28/2
f 13/45/2 1/46/2 4/43/2
f 13/45/2 4/43/2 14/47/2
f 14/47/2 4/43/2 11/42/2
f 12/44/2 13/45/2 14/47/2 11/42/2
f 3/48/2 19/49/2 9/33/2
f 2/31/2 19/49/2 3/48/2
f 2/31/2 20/50/2 19/49/2
f 20/50/2 2/31/2 7/30/2
f 21/51/10 22/52/10 20/53/10 7/54/10
f 21/55/2 23/56/2 22/57/2
f 23/56/2 21/55/2 24/58/2
f 24/58/2 21/55/2 25/59/2
f 8/60/11 25/61/11 21/62/11 7/63/11
f 8/64/12 19/65/12 26/66/12 25/67/12
f 8/32/2 9/33/2 19/49/2
f 20/68/13 22/69/13 26/70/13 19/71/13
f 22/57/2 27/72/2 26/73/2
f 22/57/2 28/74/2 27/72/2
f 28/74/2 22/57/2 23/56/2
f 29/75/14 28/76/14 23/77/14
f 29/78/15 27/79/15 28/80/15
f 27/81/16 29/82/16 24/83/16
f 24/84/17 29/85/17 23/86/17
f 24/58/2 25/59/2 27/72/2
f 26/73/2 27/72/2 25/59/2
