# Blender v2.78 (sub 0) OBJ File: ''
# www.blender.org
mtllib Trunk_Alt_01.mtl
o Mesh1_Trunk_Alt_Model
v 0.803690 0.000000 0.000000
v 0.803690 0.000000 -0.803690
v 0.701729 0.230000 -0.701729
v 0.701729 0.230000 -0.101961
v 0.000000 0.000000 0.000000
v 0.000000 0.000000 -0.803690
v 0.101961 0.230000 -0.101961
v 0.101961 0.230000 -0.701729
v 0.118130 0.386775 -0.276564
v 0.163841 0.830000 -0.163841
v 0.639848 0.830000 -0.163841
v 0.639848 0.830000 -0.639848
v 0.163841 0.830000 -0.639848
v 0.118130 0.386775 -0.527126
v -0.163841 0.479545 -0.331687
v -0.163841 0.479545 -0.472002
v -0.147297 0.639957 -0.348231
v -0.147297 0.639957 -0.455458
v 0.147672 0.673225 -0.306107
v 0.147672 0.673225 -0.497583
v 0.262660 0.830000 -0.262660
v 0.541029 0.830000 -0.262660
v 0.541029 0.830000 -0.541029
v 0.262660 0.830000 -0.541029
v 0.262660 0.230000 -0.262660
v 0.262660 0.230000 -0.541029
v 0.541029 0.230000 -0.262660
v 0.541029 0.230000 -0.541029
vt -0.1583 0.2825
vt -0.2070 0.2825
vt -0.2145 0.2092
vt -0.1508 0.2092
vt 0.0745 0.0745
vt 0.1194 0.1194
vt 0.0745 0.2908
vt 0.2908 0.0745
vt 0.2459 0.1194
vt 0.2459 0.2459
vt 0.2908 0.2908
vt 0.1194 0.2459
vt 0.0000 -0.1481
vt 0.3653 -0.1481
vt 0.3190 -0.0337
vt 0.0463 -0.0337
vt 0.0000 0.0000
vt 0.0000 0.3653
vt -0.3653 0.3653
vt -0.3653 0.0000
vt -0.0463 0.1144
vt -0.3190 0.1144
vt -0.3653 0.0000
vt -0.0463 0.1087
vt -0.1257 0.1804
vt -0.3190 0.1087
vt -0.0745 0.3829
vt 0.3190 0.1087
vt 0.2908 0.3829
vt 0.0745 0.3829
vt 0.0463 0.1087
vt 0.0463 0.0713
vt 0.3190 0.0713
vt 0.2908 0.3454
vt 0.0745 0.3454
vt -0.0463 0.0713
vt -0.0745 0.3454
vt -0.2908 0.3454
vt -0.3190 0.0713
vt -0.2396 0.1804
vt -0.2908 0.3829
vt -0.1508 0.1389
vt -0.2145 0.1389
vt -0.2396 0.0039
vt -0.1257 0.0039
vt -0.1583 -0.0339
vt -0.1391 0.1010
vt -0.2262 0.1010
vt -0.2070 -0.0339
vt 0.0336 0.1901
vt 0.0448 0.3212
vt -0.0906 0.3060
vt -0.0969 0.2326
vt -0.1391 0.3113
vt 0.2459 0.3773
vt 0.1194 0.3773
vt 0.1194 0.1045
vt 0.2459 0.1045
vt -0.1194 0.3773
vt -0.2459 0.3773
vt -0.2459 0.1045
vt -0.1194 0.1045
vt -0.1194 0.3773
vt -0.2459 0.3773
vt -0.2459 0.1045
vt -0.1194 0.1045
vt 0.2459 0.3773
vt 0.1194 0.3773
vt 0.1194 0.1045
vt 0.2459 0.1045
vt 0.1194 0.2459
vt 0.1194 0.1194
vt 0.2459 0.1194
vt 0.2459 0.2459
vt -0.2262 0.3113
vt -0.0900 0.1479
vt 0.0405 0.1903
vt 0.0342 0.2637
vt -0.1012 0.2790
vt 0.0000 -0.1481
vt -0.0463 -0.0337
vt -0.3190 -0.0337
vt -0.3653 -0.1481
vt 0.3653 -0.0000
vt 0.3190 0.1144
vt 0.0463 0.1144
vn -0.9947 0.1026 0.0000
vn -0.0000 1.0000 0.0000
vn 0.9142 0.4053 0.0000
vn 0.9664 0.2571 -0.0000
vn 0.0000 -1.0000 -0.0000
vn -0.9664 0.2571 -0.0000
vn -0.9142 0.4053 0.0000
vn 0.0000 0.2571 0.9664
vn 0.0000 0.1026 0.9947
vn 0.9947 0.1026 0.0000
vn -0.0000 0.2571 -0.9664
vn 0.0000 0.1026 -0.9947
vn -0.3125 -0.9499 0.0000
vn -0.1121 0.9937 0.0000
vn -0.1533 0.1170 0.9812
vn 1.0000 -0.0000 0.0000
vn 0.0000 0.0000 -1.0000
vn -1.0000 0.0000 0.0000
vn 0.0000 -0.0000 1.0000
vn -0.1533 0.1170 -0.9812
vn 0.0000 0.4053 -0.9142
vn 0.0000 0.4053 0.9142
usemtl Light_Wood.006
s 1
f 17/1/1 18/2/1 16/3/1 15/4/1
f 10/5/2 21/6/2 13/7/2
f 21/6/2 10/5/2 11/8/2
f 21/6/2 11/8/2 22/9/2
f 22/9/2 11/8/2 23/10/2
f 12/11/2 23/10/2 11/8/2
f 12/11/2 24/12/2 23/10/2
f 13/7/2 24/12/2 12/11/2
f 24/12/2 13/7/2 21/6/2
usemtl Wood.032
f 1/13/3 2/14/3 3/15/4 4/16/4
f 5/17/5 6/18/5 2/19/5 1/20/5
f 7/21/6 8/22/6 6/23/7 5/17/7
f 7/24/6 9/25/1 8/26/6
f 9/25/1 7/24/6 10/27/1
f 4/28/8 11/29/9 10/30/9 7/31/8
f 4/32/4 3/33/4 12/34/10 11/35/10
f 8/36/11 13/37/12 12/38/12 3/39/11
f 8/26/6 14/40/1 13/41/1
f 8/26/6 9/25/1 14/40/1
f 15/42/13 16/43/13 14/44/13 9/45/13
f 17/46/14 19/47/14 20/48/14 18/49/14
f 9/50/15 19/51/15 17/52/15 15/53/15
f 10/27/1 19/54/1 9/25/1
f 19/54/1 10/27/1 13/41/1
f 24/55/16 21/56/16 25/57/16 26/58/16
f 21/59/17 22/60/17 27/61/17 25/62/17
f 22/63/18 23/64/18 28/65/18 27/66/18
f 23/67/19 24/68/19 26/69/19 28/70/19
f 26/71/2 25/72/2 27/73/2 28/74/2
f 19/54/1 13/41/1 20/75/1
f 20/75/1 13/41/1 14/40/1
f 14/76/20 16/77/20 18/78/20 20/79/20
f 6/80/21 8/81/11 3/82/11 2/83/21
f 1/84/22 4/85/8 7/86/8 5/17/22
