# Blender v2.78 (sub 0) OBJ File: ''
# www.blender.org
mtllib Trunk_02.mtl
o Mesh1_Trunk_Model.001
v 0.803690 0.000000 0.000000
v 0.803690 0.000000 -0.803690
v 0.701729 0.230000 -0.701729
v 0.701729 0.230000 -0.101961
v 0.000000 0.000000 0.000000
v 0.000000 0.000000 -0.803690
v 0.101961 0.230000 -0.101961
v 0.101961 0.230000 -0.701729
v 0.163841 0.830000 -0.163841
v 0.163841 0.830000 -0.639848
v 0.639848 0.830000 -0.163841
v 0.639848 0.830000 -0.639848
vt 0.0745 0.0745
vt 0.2908 0.0745
vt 0.2908 0.2908
vt 0.0745 0.2908
vt 0.0000 -0.1481
vt 0.3653 -0.1481
vt 0.3190 -0.0337
vt 0.0463 -0.0337
vt 0.0000 0.0000
vt 0.0000 0.3653
vt -0.3653 0.3653
vt -0.3653 0.0000
vt -0.0463 0.1144
vt -0.3190 0.1144
vt -0.3653 0.0000
vt -0.0745 0.3829
vt -0.2908 0.3829
vt -0.3190 0.1087
vt -0.0463 0.1087
vt 0.3190 0.1087
vt 0.2908 0.3829
vt 0.0745 0.3829
vt 0.0463 0.1087
vt 0.0463 0.0713
vt 0.3190 0.0713
vt 0.2908 0.3454
vt 0.0745 0.3454
vt -0.0463 0.0713
vt -0.0745 0.3454
vt -0.2908 0.3454
vt -0.3190 0.0713
vt 0.0000 -0.1481
vt -0.0463 -0.0337
vt -0.3190 -0.0337
vt -0.3653 -0.1481
vt 0.3653 -0.0000
vt 0.3190 0.1144
vt 0.0463 0.1144
vn 0.0000 1.0000 0.0000
vn 0.9142 0.4053 0.0000
vn 0.9664 0.2571 -0.0000
vn 0.0000 -1.0000 -0.0000
vn -0.9664 0.2571 0.0000
vn -0.9142 0.4053 0.0000
vn -0.9947 0.1026 0.0000
vn 0.0000 0.2571 0.9664
vn 0.0000 0.1026 0.9947
vn 0.9947 0.1026 0.0000
vn -0.0000 0.2571 -0.9664
vn 0.0000 0.1026 -0.9947
vn 0.0000 0.4053 -0.9142
vn 0.0000 0.4053 0.9142
usemtl Light_Wood.005
s 1
f 9/1/1 11/2/1 12/3/1 10/4/1
usemtl Wood.031
f 1/5/2 2/6/2 3/7/3 4/8/3
f 5/9/4 6/10/4 2/11/4 1/12/4
f 7/13/5 8/14/5 6/15/6 5/9/6
f 9/16/7 10/17/7 8/18/5 7/19/5
f 4/20/8 11/21/9 9/22/9 7/23/8
f 4/24/3 3/25/3 12/26/10 11/27/10
f 8/28/11 10/29/12 12/30/12 3/31/11
f 6/32/13 8/33/11 3/34/11 2/35/13
f 1/36/14 4/37/8 7/38/8 5/9/14
